<svg width="48" height="49" viewBox="0 0 48 49" fill="none" xmlns="http://www.w3.org/2000/svg">
<g filter="url(#filter0_d_1488_39010)">
<rect x="4" y="4.5" width="40" height="40" rx="20" fill="#ED6923"/>
</g>
<path d="M19.1779 16.0724C19.0785 16.1097 18.9874 16.2091 18.9584 16.3112C18.9404 16.3747 18.9363 16.4424 18.9404 16.6881C18.9446 16.9848 18.9446 16.9904 18.9819 17.0594C19.142 17.3631 19.5809 17.3175 19.6775 16.9876C19.6955 16.9255 19.6983 16.8565 19.6941 16.6191C19.69 16.3457 19.6872 16.3223 19.6568 16.2602C19.5699 16.0821 19.3628 16.0007 19.1779 16.0724Z" fill="white"/>
<path d="M17.1646 16.3755C17.0266 16.4472 16.9507 16.5673 16.9507 16.7192C16.9507 16.8448 16.9797 16.8972 17.1922 17.1581C17.4794 17.5129 17.5194 17.546 17.6685 17.5584C17.8203 17.5722 17.9749 17.4839 18.0412 17.3459C18.084 17.2575 18.0853 17.125 18.0453 17.038C18.0301 17.0035 17.9169 16.8531 17.7941 16.704C17.5291 16.3796 17.4987 16.3561 17.3303 16.3506C17.2419 16.3479 17.2088 16.3534 17.1646 16.3755Z" fill="white"/>
<path d="M21.1519 16.3809C21.0773 16.4154 21.0414 16.4541 20.7806 16.7729C20.5846 17.0131 20.5597 17.06 20.5611 17.1898C20.5611 17.3099 20.5887 17.3748 20.6729 17.4534C20.7447 17.5225 20.8054 17.5501 20.8993 17.5583C20.9904 17.5666 21.0829 17.5404 21.1546 17.4866C21.2361 17.4244 21.6391 16.9165 21.6626 16.8475C21.6944 16.755 21.6902 16.6445 21.6516 16.5617C21.6129 16.4789 21.5149 16.3864 21.439 16.3643C21.3493 16.3367 21.2306 16.3436 21.1519 16.3809Z" fill="white"/>
<path d="M18.8045 18.6469C17.812 18.7904 16.9797 19.4889 16.6677 20.4399C16.4469 21.108 16.4952 21.812 16.8044 22.4414C16.948 22.7313 17.0915 22.9315 17.3262 23.162C17.547 23.3801 17.7223 23.5057 17.9929 23.6424C18.3587 23.8287 18.7673 23.9253 19.1827 23.9253C19.9709 23.9253 20.7122 23.5802 21.2132 22.9798C22.0387 21.9928 22.0414 20.5586 21.2229 19.5786C20.7964 19.0679 20.2125 18.7407 19.5582 18.6455C19.3774 18.6206 18.984 18.6206 18.8045 18.6469Z" fill="white"/>
<path d="M25.2188 21.2007C24.9551 21.2448 24.7895 21.3207 24.628 21.4726C24.2042 21.8743 24.2056 22.552 24.6308 22.9413C24.8751 23.1649 25.1304 23.2339 25.6467 23.2174C26.0001 23.2049 26.1795 23.1511 26.3741 22.9937C26.6198 22.7977 26.7524 22.5217 26.7524 22.2069C26.7524 21.7431 26.4556 21.3566 25.9987 21.2269C25.9338 21.2076 25.8455 21.202 25.5846 21.1993C25.4024 21.1965 25.2381 21.1979 25.2188 21.2007Z" fill="white"/>
<path d="M23.8549 23.2631C23.7141 23.3003 23.5954 23.3597 23.3966 23.495C23.3014 23.5598 22.9163 23.8042 22.5408 24.0402L21.8575 24.4667L20.1804 24.5206C19.2583 24.5509 18.4163 24.5813 18.31 24.5882C17.5329 24.6434 16.9559 25.0299 16.4852 25.8112C16.3113 26.0983 16.2478 26.2598 16.107 26.7761C15.9331 27.4069 15.8199 28.0474 15.755 28.7431C15.7219 29.0978 15.7219 29.8501 15.7536 30.1579C15.8268 30.8329 15.9193 31.1421 16.1498 31.4831C16.5805 32.1166 17.3728 32.4769 18.3998 32.5073C18.8028 32.5183 19.141 32.4797 19.3757 32.3955C19.4102 32.383 19.9347 32.3195 20.6263 32.2409L21.8175 32.1084L22.6002 32.4272C23.0308 32.6025 23.427 32.7682 23.4808 32.7958C23.5347 32.822 23.6451 32.8662 23.7251 32.8938C23.9225 32.96 24.1158 32.9725 24.2511 32.9255C24.4167 32.8703 24.5465 32.7502 24.6486 32.557C24.8004 32.2726 24.7991 32.0021 24.6472 31.7715C24.5547 31.6335 24.3932 31.4941 24.1696 31.363C24.113 31.3298 23.7031 31.0689 23.2586 30.7832C22.8141 30.4989 22.4331 30.2559 22.4097 30.2435C22.2288 30.1524 21.7499 30.0834 21.0914 30.0544C20.9203 30.0475 20.7726 30.0406 20.7643 30.0406C20.7505 30.0406 20.7464 29.7065 20.7464 28.4145V26.7899L21.3164 26.6836C21.6284 26.6242 21.939 26.5662 22.0066 26.5552C22.2385 26.5138 22.4607 26.4185 22.6637 26.2736C22.7548 26.2087 23.8356 25.2314 24.4001 24.7042C24.6652 24.4557 24.7756 24.2431 24.759 24.0043C24.7466 23.7986 24.6417 23.5957 24.4623 23.4273C24.2759 23.252 24.0896 23.2023 23.8549 23.2631Z" fill="white"/>
<path d="M28.6031 25.1802C28.2705 25.263 28.0013 25.5087 27.8895 25.829C27.6866 26.4074 28.0455 27.0258 28.6528 27.1486C28.7439 27.1679 28.8875 27.1693 29.677 27.1666C30.5826 27.161 30.5964 27.161 30.6957 27.1307C30.8338 27.0879 30.9401 27.0327 31.0477 26.9457C31.4632 26.6103 31.5502 26.0416 31.2534 25.5916C31.1361 25.4149 30.9525 25.2769 30.733 25.1996L30.6226 25.1609L29.6632 25.1581C28.7771 25.1554 28.6956 25.1568 28.6031 25.1802Z" fill="white"/>
<path d="M27.5102 27.7559C27.2935 27.7959 27.1196 27.8911 26.9608 28.0582C26.6337 28.4033 26.5909 28.9112 26.8545 29.3088C26.9746 29.4882 27.1651 29.6331 27.3791 29.7063L27.4895 29.7436L29.5987 29.7477C31.9687 29.7519 31.7879 29.7588 32.024 29.6442C32.1344 29.5904 32.173 29.5628 32.2793 29.4551C32.4795 29.2536 32.5595 29.0713 32.572 28.7911C32.5789 28.6517 32.5747 28.6062 32.5512 28.5109C32.4753 28.21 32.2752 27.9643 32.0033 27.8373C31.7824 27.7352 31.977 27.7434 29.6774 27.7407C27.9754 27.7379 27.5958 27.7407 27.5102 27.7559Z" fill="white"/>
<path d="M26.3301 30.3511C26.1203 30.398 25.9823 30.4753 25.8263 30.6327C25.6331 30.8273 25.553 31.0137 25.5406 31.2897C25.5337 31.4305 25.5378 31.4747 25.5627 31.5727C25.651 31.9288 25.8926 32.1814 26.2611 32.3057L26.3578 32.3388L29.5809 32.3429C33.1215 32.3471 32.8979 32.3512 33.1132 32.2643C33.5176 32.1 33.7813 31.6445 33.7219 31.2124C33.6736 30.8618 33.4748 30.5844 33.1629 30.4339C32.9296 30.3221 33.2291 30.3304 29.6264 30.3318C26.9941 30.3318 26.3978 30.3359 26.3301 30.3511Z" fill="white"/>
<defs>
<filter id="filter0_d_1488_39010" x="0" y="0.5" width="48" height="48" filterUnits="userSpaceOnUse" color-interpolation-filters="sRGB">
<feFlood flood-opacity="0" result="BackgroundImageFix"/>
<feColorMatrix in="SourceAlpha" type="matrix" values="0 0 0 0 0 0 0 0 0 0 0 0 0 0 0 0 0 0 127 0" result="hardAlpha"/>
<feOffset/>
<feGaussianBlur stdDeviation="2"/>
<feComposite in2="hardAlpha" operator="out"/>
<feColorMatrix type="matrix" values="0 0 0 0 0 0 0 0 0 0 0 0 0 0 0 0 0 0 0.25 0"/>
<feBlend mode="normal" in2="BackgroundImageFix" result="effect1_dropShadow_1488_39010"/>
<feBlend mode="normal" in="SourceGraphic" in2="effect1_dropShadow_1488_39010" result="shape"/>
</filter>
</defs>
</svg>
