<svg width="30" height="30" viewBox="0 0 30 30" fill="none" xmlns="http://www.w3.org/2000/svg">
<path fill-rule="evenodd" clip-rule="evenodd" d="M18.3333 10.2857C19.1223 10.2857 19.7619 9.64612 19.7619 8.85714C19.7619 8.06816 19.1223 7.42857 18.3333 7.42857C17.5444 7.42857 16.9048 8.06816 16.9048 8.85714C16.9048 9.64612 17.5444 10.2857 18.3333 10.2857ZM18.3333 11.7143C19.9113 11.7143 21.1905 10.4351 21.1905 8.85714C21.1905 7.27919 19.9113 6 18.3333 6C16.7554 6 15.4762 7.27919 15.4762 8.85714C15.4762 10.4351 16.7554 11.7143 18.3333 11.7143Z" fill="white"/>
<path fill-rule="evenodd" clip-rule="evenodd" d="M14.5238 8.71424C14.5238 9.16133 14.1614 9.52376 13.7143 9.52376L5.80952 9.52376C5.36244 9.52376 5 9.16133 5 8.71424C5 8.26715 5.36244 7.90471 5.80952 7.90471L13.7143 7.90472C14.1614 7.90472 14.5238 8.26715 14.5238 8.71424Z" fill="white"/>
<path fill-rule="evenodd" clip-rule="evenodd" d="M25 8.71424C25 9.16133 24.6376 9.52376 24.1905 9.52376H21.0476C20.6005 9.52376 20.2381 9.16133 20.2381 8.71424C20.2381 8.26715 20.6005 7.90472 21.0476 7.90472H24.1905C24.6376 7.90472 25 8.26715 25 8.71424Z" fill="white"/>
<path fill-rule="evenodd" clip-rule="evenodd" d="M18.3333 23.619C19.1223 23.619 19.7619 22.9795 19.7619 22.1905C19.7619 21.4015 19.1223 20.7619 18.3333 20.7619C17.5444 20.7619 16.9048 21.4015 16.9048 22.1905C16.9048 22.9795 17.5444 23.619 18.3333 23.619ZM18.3333 25.0476C19.9113 25.0476 21.1905 23.7684 21.1905 22.1905C21.1905 20.6125 19.9113 19.3333 18.3333 19.3333C16.7554 19.3333 15.4762 20.6125 15.4762 22.1905C15.4762 23.7684 16.7554 25.0476 18.3333 25.0476Z" fill="white"/>
<path fill-rule="evenodd" clip-rule="evenodd" d="M14.5238 22.0476C14.5238 22.4947 14.1614 22.8571 13.7143 22.8571H5.80952C5.36244 22.8571 5 22.4947 5 22.0476C5 21.6005 5.36244 21.238 5.80952 21.238L13.7143 21.238C14.1614 21.238 14.5238 21.6005 14.5238 22.0476Z" fill="white"/>
<path fill-rule="evenodd" clip-rule="evenodd" d="M25 22.0476C25 22.4947 24.6376 22.8571 24.1905 22.8571H21.0476C20.6005 22.8571 20.2381 22.4947 20.2381 22.0476C20.2381 21.6005 20.6005 21.238 21.0476 21.238H24.1905C24.6376 21.238 25 21.6005 25 22.0476Z" fill="white"/>
<path fill-rule="evenodd" clip-rule="evenodd" d="M11.6667 16.9524C10.8777 16.9524 10.2381 16.3128 10.2381 15.5238C10.2381 14.7348 10.8777 14.0952 11.6667 14.0952C12.4556 14.0952 13.0952 14.7348 13.0952 15.5238C13.0952 16.3128 12.4556 16.9524 11.6667 16.9524ZM11.6667 18.381C10.0887 18.381 8.80952 17.1018 8.80952 15.5238C8.80952 13.9459 10.0887 12.6667 11.6667 12.6667C13.2446 12.6667 14.5238 13.9459 14.5238 15.5238C14.5238 17.1018 13.2446 18.381 11.6667 18.381Z" fill="white"/>
<path fill-rule="evenodd" clip-rule="evenodd" d="M15.4762 15.3809C15.4762 15.828 15.8386 16.1904 16.2857 16.1904L24.1905 16.1904C24.6376 16.1904 25 15.828 25 15.3809C25 14.9338 24.6376 14.5714 24.1905 14.5714L16.2857 14.5714C15.8386 14.5714 15.4762 14.9338 15.4762 15.3809Z" fill="white"/>
<path fill-rule="evenodd" clip-rule="evenodd" d="M5 15.3809C5 15.828 5.36244 16.1904 5.80952 16.1904H8.95238C9.39947 16.1904 9.7619 15.828 9.7619 15.3809C9.7619 14.9338 9.39947 14.5714 8.95238 14.5714H5.80952C5.36244 14.5714 5 14.9338 5 15.3809Z" fill="white"/>
</svg>
