<svg width="48" height="49" viewBox="0 0 48 49" fill="none" xmlns="http://www.w3.org/2000/svg">
<g filter="url(#filter0_d_1488_39002)">
<rect x="4" y="4.5" width="40" height="40" rx="20" fill="#0096C9"/>
</g>
<path d="M24.5356 25.6095C24.0459 24.3001 22.7947 23.3666 21.3321 23.3665C19.8695 23.3666 18.6183 24.3001 18.1287 25.6095C17.529 25.6512 17.053 26.184 17.053 26.8334C17.053 27.4828 17.529 28.0157 18.1287 28.0574C18.6183 29.3668 19.8694 30.3003 21.3321 30.3004C22.7948 30.3003 24.046 29.3668 24.5356 28.0574C25.1353 28.0156 25.6112 27.4828 25.6112 26.8334C25.6112 26.1841 25.1352 25.6512 24.5356 25.6095ZM17.9361 27.2778C17.8125 27.1803 17.7312 27.0176 17.7312 26.8334C17.7312 26.6493 17.8125 26.4866 17.9361 26.3891C17.9176 26.5346 17.908 26.6829 17.908 26.8334C17.908 26.984 17.9176 27.1323 17.9361 27.2778ZM21.3321 29.6136C19.8181 29.6136 18.5863 28.3664 18.5863 26.8334C18.5863 25.7614 19.1891 24.8297 20.0692 24.3661C20.0437 24.469 20.03 24.5766 20.03 24.6873C20.03 25.3076 20.5285 25.8124 21.1412 25.8124C21.1412 25.8124 21.1412 25.8124 21.1412 25.8124C21.3892 25.8124 21.622 25.7304 21.7965 25.5815C21.9909 25.4156 22.098 25.1824 22.098 24.925C22.098 24.5394 21.8928 24.244 21.5624 24.154C21.3816 24.1047 21.1955 24.2132 21.1468 24.3963C21.0981 24.5795 21.2053 24.7679 21.3861 24.8172C21.4139 24.8248 21.4197 24.88 21.4197 24.925C21.4197 24.9787 21.4 25.0216 21.3594 25.0563C21.3077 25.1004 21.2283 25.1256 21.1412 25.1256C20.9025 25.1256 20.7083 24.929 20.7083 24.6873C20.7083 24.3379 20.9891 24.0536 21.3342 24.0536C21.3352 24.0536 21.3363 24.0534 21.3374 24.0534C22.8489 24.0564 24.0778 25.3023 24.0778 26.8334C24.0779 28.3664 22.8461 29.6136 21.3321 29.6136ZM24.7281 27.2778C24.7465 27.1323 24.7562 26.984 24.7562 26.8334C24.7562 26.6829 24.7466 26.5346 24.7281 26.3891C24.8516 26.4866 24.9329 26.6494 24.9329 26.8334C24.9329 27.0176 24.8516 27.1802 24.7281 27.2778Z" fill="white"/>
<path d="M23.0694 26.2068C22.891 25.9839 22.6264 25.8561 22.3433 25.8561C22.0603 25.8561 21.7957 25.984 21.6173 26.2068C21.4993 26.3541 21.5217 26.5704 21.6672 26.6898C21.73 26.7413 21.8055 26.7664 21.8805 26.7664C21.9792 26.7664 22.0772 26.723 22.1442 26.6392C22.1932 26.578 22.2658 26.5429 22.3433 26.5429C22.4209 26.5429 22.4935 26.578 22.5425 26.6392C22.6605 26.7866 22.874 26.8092 23.0195 26.6898C23.165 26.5704 23.1873 26.3542 23.0694 26.2068Z" fill="white"/>
<path d="M21.0471 26.2068C20.8687 25.984 20.604 25.8561 20.321 25.8561C20.0379 25.8561 19.7733 25.984 19.5949 26.2068C19.4769 26.3541 19.4993 26.5704 19.6448 26.6898C19.7903 26.8092 20.0038 26.7866 20.1218 26.6392C20.1708 26.578 20.2434 26.5429 20.321 26.5429C20.3985 26.5429 20.4711 26.578 20.5201 26.6392C20.5872 26.723 20.685 26.7664 20.7838 26.7664C20.8588 26.7664 20.9343 26.7413 20.9972 26.6898C21.1427 26.5704 21.165 26.3542 21.0471 26.2068Z" fill="white"/>
<path d="M22.1348 27.3932C21.9475 27.3932 21.7957 27.547 21.7957 27.7366C21.7957 27.9953 21.5878 28.2058 21.3322 28.2058C21.0766 28.2058 20.8687 27.9953 20.8687 27.7366C20.8687 27.547 20.7169 27.3932 20.5296 27.3932C20.3422 27.3932 20.1904 27.547 20.1904 27.7366C20.1904 28.374 20.7027 28.8926 21.3323 28.8926C21.9618 28.8926 22.474 28.374 22.474 27.7366C22.474 27.5469 22.3221 27.3932 22.1348 27.3932Z" fill="white"/>
<path fill-rule="evenodd" clip-rule="evenodd" d="M24.7557 20.3851H17.7733C17.0085 20.3851 16.3884 21.0129 16.3884 21.7873V30.413C16.3884 30.8777 16.7604 31.2544 17.2194 31.2544H25.8636C26.0166 31.2544 26.1406 31.1288 26.1406 30.9739V21.7873C26.1406 21.0129 25.5206 20.3851 24.7557 20.3851ZM17.7733 18.9828C16.2436 18.9828 15.0034 20.2384 15.0034 21.7873V30.413C15.0034 31.6522 15.9955 32.6567 17.2194 32.6567H25.8636C26.7815 32.6567 27.5256 31.9033 27.5256 30.9739V21.7873C27.5256 20.2384 26.2854 18.9828 24.7557 18.9828H17.7733Z" fill="white"/>
<path fill-rule="evenodd" clip-rule="evenodd" d="M24.1066 17.7465H18.5577C18.4047 17.7465 18.2807 17.872 18.2807 18.0269V18.5089H24.3836V18.0269C24.3836 17.872 24.2596 17.7465 24.1066 17.7465ZM18.5577 16.3442C17.6398 16.3442 16.8957 17.0976 16.8957 18.0269V19.9112H25.7685V18.0269C25.7685 17.0976 25.0245 16.3442 24.1066 16.3442H18.5577Z" fill="white"/>
<path fill-rule="evenodd" clip-rule="evenodd" d="M30.5125 16.4904C29.9132 16.4904 29.4273 16.9824 29.4273 17.5892V21.5223C29.4273 22.1291 29.9132 22.621 30.5125 22.621C31.1119 22.621 31.5977 22.1291 31.5977 21.5223V17.5892C31.5977 16.9824 31.1119 16.4904 30.5125 16.4904Z" fill="white"/>
<path fill-rule="evenodd" clip-rule="evenodd" d="M30.5447 21.6805C30.8506 21.6805 31.0986 21.9316 31.0986 22.2414V26.9391C31.0986 27.2489 30.8506 27.5 30.5447 27.5C30.2387 27.5 29.9907 27.2489 29.9907 26.9391V22.2414C29.9907 21.9316 30.2387 21.6805 30.5447 21.6805Z" fill="white"/>
<path fill-rule="evenodd" clip-rule="evenodd" d="M31.1144 30.3512C31.4229 29.9744 31.6185 29.484 31.6185 29.019C31.6185 28.6076 31.4701 28.3885 31.2996 28.2462C31.092 28.073 30.7903 27.9722 30.5127 27.9722C30.2331 27.9722 29.9188 28.0744 29.7005 28.2535C29.5204 28.4013 29.3741 28.6199 29.3741 29.019C29.3741 29.4744 29.5706 29.9621 29.8872 30.3422C30.221 30.743 30.4903 30.8054 30.5114 30.8103C30.5124 30.8106 30.5129 30.8107 30.5127 30.8107C30.512 30.8107 30.513 30.8104 30.5155 30.8098C30.5457 30.8019 30.7992 30.736 31.1144 30.3512ZM30.5127 32.2129C31.6392 32.2129 33.0034 30.6997 33.0034 29.019C33.0034 27.3382 31.6392 26.5699 30.5127 26.5699C29.3862 26.5699 27.9891 27.3382 27.9891 29.019C27.9891 30.6997 29.3862 32.2129 30.5127 32.2129Z" fill="white"/>
<defs>
<filter id="filter0_d_1488_39002" x="0" y="0.5" width="48" height="48" filterUnits="userSpaceOnUse" color-interpolation-filters="sRGB">
<feFlood flood-opacity="0" result="BackgroundImageFix"/>
<feColorMatrix in="SourceAlpha" type="matrix" values="0 0 0 0 0 0 0 0 0 0 0 0 0 0 0 0 0 0 127 0" result="hardAlpha"/>
<feOffset/>
<feGaussianBlur stdDeviation="2"/>
<feComposite in2="hardAlpha" operator="out"/>
<feColorMatrix type="matrix" values="0 0 0 0 0 0 0 0 0 0 0 0 0 0 0 0 0 0 0.25 0"/>
<feBlend mode="normal" in2="BackgroundImageFix" result="effect1_dropShadow_1488_39002"/>
<feBlend mode="normal" in="SourceGraphic" in2="effect1_dropShadow_1488_39002" result="shape"/>
</filter>
</defs>
</svg>
