<svg width="18" height="14" viewBox="0 0 18 14" fill="none" xmlns="http://www.w3.org/2000/svg">
<path d="M11.3663 13.6351C11.1814 13.6351 10.9965 13.567 10.8506 13.421C10.5684 13.1388 10.5684 12.6718 10.8506 12.3896L16.2412 6.99895L10.8506 1.60829C10.5684 1.32611 10.5684 0.859053 10.8506 0.576871C11.1328 0.294689 11.5998 0.294689 11.882 0.576871L17.7884 6.48323C18.0705 6.76542 18.0705 7.23248 17.7884 7.51466L11.882 13.421C11.736 13.567 11.5512 13.6351 11.3663 13.6351Z" fill="#656565"/>
<path d="M17.1061 7.72867H0.729781C0.330834 7.72867 0 7.39783 0 6.99889C0 6.59994 0.330834 6.2691 0.729781 6.2691H17.1061C17.505 6.2691 17.8359 6.59994 17.8359 6.99889C17.8359 7.39783 17.505 7.72867 17.1061 7.72867Z" fill="#656565"/>
</svg>
