<svg width="35" height="35" viewBox="0 0 35 35" fill="none" xmlns="http://www.w3.org/2000/svg">
<rect width="35" height="35" rx="17.5" fill="#F0F0F0"/>
<path fill-rule="evenodd" clip-rule="evenodd" d="M17.5 19.57C20.1343 19.57 22.27 17.4344 22.27 14.8C22.27 12.1656 20.1343 10.03 17.5 10.03C14.8656 10.03 12.73 12.1656 12.73 14.8C12.73 17.4344 14.8656 19.57 17.5 19.57ZM17.5 21.1C20.9793 21.1 23.8 18.2794 23.8 14.8C23.8 11.3206 20.9793 8.5 17.5 8.5C14.0206 8.5 11.2 11.3206 11.2 14.8C11.2 18.2794 14.0206 21.1 17.5 21.1Z" fill="#4D4C4C"/>
<path fill-rule="evenodd" clip-rule="evenodd" d="M17.5 15.97C18.1461 15.97 18.67 15.4462 18.67 14.8C18.67 14.1538 18.1461 13.63 17.5 13.63C16.8538 13.63 16.33 14.1538 16.33 14.8C16.33 15.4462 16.8538 15.97 17.5 15.97ZM17.5 17.5C18.9911 17.5 20.2 16.2912 20.2 14.8C20.2 13.3088 18.9911 12.1 17.5 12.1C16.0088 12.1 14.8 13.3088 14.8 14.8C14.8 16.2912 16.0088 17.5 17.5 17.5Z" fill="#4D4C4C"/>
<path fill-rule="evenodd" clip-rule="evenodd" d="M17.5 20.2C17.997 20.2 18.4 20.6029 18.4 21.1L18.4 25.6C18.4 26.0971 17.997 26.5 17.5 26.5C17.0029 26.5 16.6 26.0971 16.6 25.6L16.6 21.1C16.6 20.6029 17.0029 20.2 17.5 20.2Z" fill="#4D4C4C"/>
</svg>
