<svg width="15" height="21" viewBox="0 0 15 21" fill="none" xmlns="http://www.w3.org/2000/svg">
<path fill-rule="evenodd" clip-rule="evenodd" d="M7.5 12.8C10.4271 12.8 12.8 10.4271 12.8 7.5C12.8 4.57289 10.4271 2.2 7.5 2.2C4.57289 2.2 2.2 4.57289 2.2 7.5C2.2 10.4271 4.57289 12.8 7.5 12.8ZM7.5 14.5C11.366 14.5 14.5 11.366 14.5 7.5C14.5 3.63401 11.366 0.5 7.5 0.5C3.63401 0.5 0.5 3.63401 0.5 7.5C0.5 11.366 3.63401 14.5 7.5 14.5Z" fill="#4D4C4C"/>
<path fill-rule="evenodd" clip-rule="evenodd" d="M7.5 8.8C8.21797 8.8 8.8 8.21797 8.8 7.5C8.8 6.78203 8.21797 6.2 7.5 6.2C6.78203 6.2 6.2 6.78203 6.2 7.5C6.2 8.21797 6.78203 8.8 7.5 8.8ZM7.5 10.5C9.15685 10.5 10.5 9.15685 10.5 7.5C10.5 5.84315 9.15685 4.5 7.5 4.5C5.84315 4.5 4.5 5.84315 4.5 7.5C4.5 9.15685 5.84315 10.5 7.5 10.5Z" fill="#4D4C4C"/>
<path fill-rule="evenodd" clip-rule="evenodd" d="M7.5 13.5C8.05228 13.5 8.5 13.9477 8.5 14.5L8.5 19.5C8.5 20.0523 8.05228 20.5 7.5 20.5C6.94771 20.5 6.5 20.0523 6.5 19.5L6.5 14.5C6.5 13.9477 6.94772 13.5 7.5 13.5Z" fill="#4D4C4C"/>
</svg>
