<svg width="24" height="24" viewBox="0 0 24 24" fill="none" xmlns="http://www.w3.org/2000/svg">
<rect width="24" height="24" rx="12" fill="#5463D6"/>
<path d="M16.6584 7.41295C16.9034 7.39064 17.0155 7.10183 16.8373 6.93222C16.2965 6.4176 15.6764 5.99146 14.9995 5.67081C14.5814 5.47285 14.1446 5.31712 13.6956 5.20591C12.341 4.87014 10.9171 4.94634 9.60619 5.42476C8.29525 5.90318 7.15697 6.76204 6.33712 7.89133C5.51727 9.02062 5.05319 10.3689 5.0043 11.7636C4.95888 13.0595 5.27385 14.3405 5.91133 15.4652C5.99194 15.6074 6.17517 15.6494 6.31378 15.5627C6.4398 15.4839 6.48706 15.3241 6.4279 15.1878C6.3934 15.1083 6.36019 15.0286 6.32898 14.9483L6.28265 14.8278C6.26783 14.7876 6.25416 14.7466 6.24011 14.7063C6.21086 14.6258 6.18618 14.5437 6.16149 14.4625C5.86611 13.5024 5.79759 12.4868 5.96132 11.4957C6.01295 11.1759 6.09018 10.8608 6.19225 10.5534C6.29367 10.2504 6.41745 9.95533 6.56257 9.67068C6.85219 9.11102 7.22684 8.59967 7.67316 8.15483C8.11136 7.71886 8.61468 7.35367 9.16509 7.07234C9.7051 6.79706 10.2849 6.60803 10.8834 6.51211C11.18 6.46793 11.4794 6.4447 11.7794 6.4426L12.0038 6.44526C12.0787 6.44982 12.1535 6.45172 12.2279 6.45894C12.3768 6.46957 12.5246 6.48856 12.6712 6.51135C12.7445 6.52237 12.8178 6.5349 12.8903 6.54933L12.4287 7.31929C12.3025 7.52983 12.4688 7.79458 12.7133 7.77232L16.6584 7.41295Z" fill="white"/>
<path d="M13.5997 19.1678C13.0414 19.2782 12.4718 19.3204 11.9033 19.2936C11.4413 19.2714 10.9826 19.2032 10.5341 19.0898C9.80798 18.9063 9.11706 18.6082 8.48695 18.2079C8.2793 18.076 8.33339 17.771 8.56941 17.7017L9.1428 17.5332L12.3705 16.5855C12.606 16.5163 12.8204 16.7439 12.7373 16.9749L12.4334 17.8196C12.5073 17.8198 12.5815 17.8181 12.656 17.8145C12.804 17.8087 12.9527 17.7984 13.1008 17.7802C13.1752 17.7727 13.2492 17.7605 13.3235 17.7503L13.544 17.7093C13.8378 17.6493 14.1271 17.5687 14.4095 17.468C14.9782 17.2579 15.5105 16.9602 15.9872 16.5858C16.4726 16.2031 16.8957 15.7474 17.2413 15.2349C17.5932 14.7122 17.8619 14.138 18.0376 13.5329C18.1247 13.2254 18.189 12.912 18.23 12.5951C18.2653 12.3227 18.2808 12.0481 18.2766 11.7734C18.2763 11.7243 18.2752 11.6754 18.2742 11.6261C18.2644 11.261 18.2226 10.8976 18.1494 10.5401C18.1184 10.3884 18.2005 10.2344 18.3465 10.1829L18.5809 10.1003C18.7378 10.045 18.9104 10.1278 18.958 10.2873C19.2149 11.1491 19.3039 12.0532 19.2191 12.9504C19.1248 13.9478 18.8178 14.9134 18.3188 15.7822C17.8198 16.6509 17.1404 17.4026 16.3263 17.9866C15.5123 18.5707 14.5825 18.9734 13.5997 19.1678Z" fill="white"/>
<path d="M12.4574 9V10.0155H11.8215V9H12.4574ZM12.3795 14.5836V15.5H11.7477V14.5836H12.3795ZM12.9128 13.469C12.9128 13.339 12.8827 13.2262 12.8226 13.1305C12.7651 13.0347 12.668 12.9492 12.5313 12.874C12.3973 12.7988 12.2168 12.727 11.9897 12.6586C11.6369 12.5515 11.3279 12.4341 11.0626 12.3064C10.7973 12.1765 10.5908 12.0158 10.4431 11.8243C10.2981 11.6328 10.2256 11.3912 10.2256 11.0994C10.2256 10.819 10.3036 10.5763 10.4595 10.3711C10.6181 10.1637 10.8383 10.0041 11.12 9.89243C11.4017 9.77845 11.7285 9.72146 12.1005 9.72146C12.3904 9.72146 12.6503 9.75793 12.88 9.83088C13.1125 9.90154 13.3108 10.0053 13.4749 10.142C13.6417 10.2788 13.7689 10.4475 13.8564 10.6481C13.9467 10.8464 13.9918 11.0732 13.9918 11.3285H12.9087C12.9087 11.1872 12.8896 11.0618 12.8513 10.9524C12.813 10.843 12.7583 10.7507 12.6872 10.6754C12.6161 10.5979 12.5299 10.5398 12.4287 10.5011C12.3303 10.4623 12.2181 10.4429 12.0923 10.4429C11.9118 10.4429 11.7627 10.4714 11.6451 10.5284C11.5303 10.5854 11.4455 10.6629 11.3908 10.7609C11.3388 10.8589 11.3128 10.9718 11.3128 11.0994C11.3128 11.2225 11.3402 11.3308 11.3949 11.4243C11.4523 11.5154 11.548 11.5986 11.6821 11.6739C11.8188 11.7491 12.0062 11.8254 12.2441 11.9029C12.5997 12.0124 12.9087 12.1332 13.1713 12.2654C13.4338 12.3953 13.6376 12.5549 13.7826 12.7441C13.9275 12.9333 14 13.1726 14 13.4621C14 13.7585 13.9179 14.0092 13.7538 14.2144C13.5925 14.4195 13.3655 14.5757 13.0728 14.6828C12.7802 14.7899 12.4397 14.8435 12.0513 14.8435C11.8024 14.8435 11.5562 14.8161 11.3128 14.7614C11.0694 14.7067 10.8479 14.6178 10.6482 14.4947C10.4513 14.3694 10.294 14.2041 10.1764 13.9989C10.0588 13.7915 10 13.5373 10 13.2365H11.0872C11.0872 13.4097 11.1145 13.5533 11.1692 13.6673C11.2239 13.7813 11.2978 13.8724 11.3908 13.9408C11.4838 14.0069 11.5877 14.0537 11.7026 14.081C11.8174 14.1084 11.9337 14.122 12.0513 14.122C12.2427 14.122 12.4014 14.0947 12.5272 14.04C12.6557 13.9853 12.7515 13.9089 12.8144 13.8109C12.88 13.7106 12.9128 13.5966 12.9128 13.469Z" fill="white"/>
</svg>
