<svg width="42" height="42" viewBox="0 0 42 42" fill="none" xmlns="http://www.w3.org/2000/svg">
<rect width="42" height="42" rx="21" fill="#EF9438"/>
<path d="M28.2381 17.3257C28.2811 17.4175 28.3498 17.4951 28.4361 17.5494C28.5224 17.6038 28.6227 17.6325 28.725 17.6323C28.8024 17.6317 28.8789 17.6156 28.9498 17.5847L32.1974 16.1364C32.262 16.1079 32.3201 16.067 32.3685 16.0161C32.417 15.9652 32.4547 15.9054 32.4796 15.84C32.5044 15.7747 32.516 15.7051 32.5134 15.6353C32.5109 15.5655 32.4945 15.4969 32.465 15.4334C32.4056 15.307 32.2981 15.2088 32.1658 15.1603C32.0335 15.1118 31.8872 15.1169 31.7587 15.1744L28.5057 16.6227C28.4412 16.6513 28.383 16.6921 28.3346 16.743C28.2862 16.7939 28.2484 16.8537 28.2235 16.9191C28.1987 16.9845 28.1872 17.0541 28.1897 17.1239C28.1922 17.1936 28.2086 17.2622 28.2381 17.3257ZM29.5222 11.1467L27.1146 13.742C27.0439 13.8173 26.9969 13.9113 26.9794 14.0126C26.962 14.1138 26.9747 14.2179 27.0161 14.3121C27.0576 14.4063 27.1259 14.4865 27.2127 14.543C27.2996 14.5994 27.4012 14.6297 27.5051 14.63C27.5794 14.6305 27.653 14.6157 27.7211 14.5866C27.7893 14.5575 27.8506 14.5146 27.9011 14.4609L30.3088 11.8603C30.3941 11.7557 30.4359 11.623 30.4257 11.4891C30.4156 11.3552 30.3542 11.2301 30.2541 11.1393C30.154 11.0484 30.0226 10.9986 29.8867 11C29.7507 11.0014 29.6204 11.0539 29.5222 11.1467ZM32.1974 24.102L28.9498 22.6484C28.8858 22.6196 28.8168 22.6035 28.7465 22.6011C28.6763 22.5987 28.6063 22.6099 28.5404 22.6342C28.4746 22.6585 28.4143 22.6954 28.3629 22.7427C28.3115 22.79 28.27 22.8469 28.2408 22.9101C28.2117 22.9732 28.1954 23.0415 28.1929 23.1108C28.1904 23.1802 28.2018 23.2494 28.2264 23.3144C28.251 23.3795 28.2883 23.4391 28.3362 23.4899C28.3842 23.5407 28.4417 23.5816 28.5057 23.6104L31.7587 25.064C31.8276 25.095 31.9024 25.1112 31.9781 25.1116C32.1 25.111 32.2182 25.0693 32.3129 24.9934C32.4076 24.9174 32.4731 24.8118 32.4987 24.6939C32.5243 24.5761 32.5084 24.4532 32.4536 24.3455C32.3988 24.2379 32.3084 24.152 32.1974 24.102ZM27.1306 26.4911L29.5222 29.0917C29.5727 29.1455 29.634 29.1883 29.7022 29.2175C29.7704 29.2466 29.8439 29.2614 29.9182 29.2609C30.0508 29.2605 30.1785 29.2115 30.2766 29.1234C30.3807 29.0287 30.4425 28.897 30.4485 28.7573C30.4545 28.6177 30.4043 28.4813 30.3088 28.3781L27.9171 25.7776C27.8712 25.7213 27.8141 25.6749 27.7493 25.6413C27.6845 25.6077 27.6135 25.5876 27.5405 25.5822C27.4676 25.5768 27.3942 25.5862 27.3251 25.6099C27.256 25.6336 27.1925 25.6711 27.1387 25.72C27.0848 25.7689 27.0416 25.8281 27.0118 25.8942C26.9821 25.9602 26.9663 26.0316 26.9655 26.1038C26.9648 26.1761 26.9791 26.2478 27.0074 26.3144C27.0358 26.381 27.0778 26.4412 27.1306 26.4911ZM32.465 19.588H29.0835C28.9416 19.588 28.8055 19.6437 28.7052 19.7428C28.6048 19.8419 28.5485 19.9764 28.5485 20.1166C28.5485 20.2568 28.6048 20.3912 28.7052 20.4903C28.8055 20.5894 28.9416 20.6451 29.0835 20.6451H32.465C32.6069 20.6451 32.743 20.5894 32.8433 20.4903C32.9436 20.3912 33 20.2568 33 20.1166C33 19.9764 32.9436 19.8419 32.8433 19.7428C32.743 19.6437 32.6069 19.588 32.465 19.588Z" fill="white"/>
<path fill-rule="evenodd" clip-rule="evenodd" d="M23.5172 13.9772V20.0683H25.2414V13.0504C25.2414 12.4324 24.8388 11.9953 24.3989 11.8235C23.9641 11.6536 23.3938 11.7004 22.9768 12.1143C19.2486 15.8149 13.7386 16.6606 10.3443 16.5713C9.13273 16.5394 8 17.4896 8 18.8129V20.0683H9.72414V18.8129C9.72414 18.5672 9.95583 18.3008 10.2993 18.3098C13.7153 18.3997 19.3532 17.6205 23.5172 13.9772Z" fill="white"/>
<path fill-rule="evenodd" clip-rule="evenodd" d="M23.5172 25.911V19.8199H25.2414V26.8378C25.2414 27.4557 24.8388 27.8929 24.3989 28.0647C23.9641 28.2346 23.3938 28.1878 22.9768 27.7739C19.2486 24.0733 13.7386 23.2276 10.3443 23.3169C9.13273 23.3488 8 22.3986 8 21.0753V19.8199H9.72414V21.0753C9.72414 21.321 9.95583 21.5874 10.2993 21.5784C13.7153 21.4885 19.3532 22.2677 23.5172 25.911Z" fill="white"/>
<path fill-rule="evenodd" clip-rule="evenodd" d="M26.1034 21.4348V18.8261C26.1034 18.3458 25.7175 17.9565 25.2414 17.9565C24.7653 17.9565 24.3793 18.3458 24.3793 18.8261V21.4348C24.3793 21.915 24.7653 22.3043 25.2414 22.3043C25.7175 22.3043 26.1034 21.915 26.1034 21.4348ZM25.2414 17.087C24.2892 17.087 23.5172 17.8656 23.5172 18.8261V21.4348C23.5172 22.3953 24.2892 23.1739 25.2414 23.1739C26.1936 23.1739 26.9655 22.3953 26.9655 21.4348V18.8261C26.9655 17.8656 26.1936 17.087 25.2414 17.087Z" fill="white"/>
<path fill-rule="evenodd" clip-rule="evenodd" d="M11.9992 22V17H13.6992V22H11.9992Z" fill="white"/>
<path fill-rule="evenodd" clip-rule="evenodd" d="M8.76562 21.2412L11.4643 21.781C12.0977 21.9076 12.5928 22.4027 12.7195 23.0361L13.9745 29.3114C14.0974 29.9259 13.7644 30.5406 13.1826 30.7734L12.0307 31.2341C11.2601 31.5424 10.402 31.0595 10.2656 30.2408L8.76562 21.2412ZM10.2351 22.7589L11.4492 30.0436C11.4597 30.1065 11.5257 30.1437 11.585 30.12L12.7369 29.6592C12.7817 29.6413 12.8073 29.594 12.7978 29.5467L11.5428 23.2714C11.5111 23.1131 11.3873 22.9893 11.229 22.9576L10.2351 22.7589Z" fill="white"/>
</svg>
