<svg width="18" height="19" viewBox="0 0 18 19" fill="none" xmlns="http://www.w3.org/2000/svg">
<path d="M4.33798 9.76797C3.7857 9.76797 3.33798 9.32026 3.33798 8.76797C3.33798 8.21569 3.7857 7.76797 4.33798 7.76797C4.89027 7.76797 5.33798 8.21569 5.33798 8.76797C5.33798 9.32026 4.89027 9.76797 4.33798 9.76797Z" fill="#4D4C4C"/>
<path d="M4.33798 13.768C3.7857 13.768 3.33798 13.3203 3.33798 12.768C3.33798 12.2157 3.7857 11.768 4.33798 11.768C4.89027 11.768 5.33798 12.2157 5.33798 12.768C5.33798 13.3203 4.89027 13.768 4.33798 13.768Z" fill="#4D4C4C"/>
<path d="M7.33798 12.768C7.33798 13.3203 7.7857 13.768 8.33798 13.768C8.89027 13.768 9.33798 13.3203 9.33798 12.768C9.33798 12.2157 8.89027 11.768 8.33798 11.768C7.7857 11.768 7.33798 12.2157 7.33798 12.768Z" fill="#4D4C4C"/>
<path d="M7.33798 8.76797C7.33798 9.32026 7.7857 9.76797 8.33798 9.76797C8.89027 9.76797 9.33798 9.32026 9.33798 8.76797C9.33798 8.21569 8.89027 7.76797 8.33798 7.76797C7.7857 7.76797 7.33798 8.21569 7.33798 8.76797Z" fill="#4D4C4C"/>
<path d="M12.338 9.76797C11.7857 9.76797 11.338 9.32026 11.338 8.76797C11.338 8.21569 11.7857 7.76797 12.338 7.76797C12.8903 7.76797 13.338 8.21569 13.338 8.76797C13.338 9.32026 12.8903 9.76797 12.338 9.76797Z" fill="#4D4C4C"/>
<path fill-rule="evenodd" clip-rule="evenodd" d="M14 2.2H4C2.72975 2.2 1.7 3.22975 1.7 4.5V14.5C1.7 15.7703 2.72975 16.8 4 16.8H14C15.2703 16.8 16.3 15.7703 16.3 14.5V4.5C16.3 3.22975 15.2703 2.2 14 2.2ZM4 0.5C1.79086 0.5 0 2.29086 0 4.5V14.5C0 16.7091 1.79086 18.5 4 18.5H14C16.2091 18.5 18 16.7091 18 14.5V4.5C18 2.29086 16.2091 0.5 14 0.5H4Z" fill="#4D4C4C"/>
<path fill-rule="evenodd" clip-rule="evenodd" d="M17.0904 6.39897H0.909637V4.69897H17.0904V6.39897Z" fill="#4D4C4C"/>
</svg>
