<svg width="24" height="24" viewBox="0 0 24 24" fill="none" xmlns="http://www.w3.org/2000/svg">
<path d="M17.7602 14.598L15.7286 14.3661C15.4898 14.338 15.2476 14.3645 15.0204 14.4434C14.7932 14.5224 14.5869 14.6518 14.4169 14.822L12.9452 16.2937C10.6746 15.1389 8.82907 13.2934 7.67428 11.0228L9.15398 9.54308C9.49791 9.19915 9.66587 8.71925 9.60988 8.23135L9.37793 6.21576C9.33258 5.82558 9.14533 5.4657 8.85183 5.20464C8.55832 4.94359 8.17906 4.79958 7.78626 4.80005H6.40254C5.49872 4.80005 4.74688 5.5519 4.80286 6.45571C5.22678 13.2863 10.6897 18.7412 17.5123 19.1651C18.4161 19.2211 19.1679 18.4693 19.1679 17.5654V16.1817C19.1759 15.3739 18.5681 14.694 17.7602 14.598Z" fill="#4D4C4C"/>
</svg>
