<svg width="51" height="51" viewBox="0 0 51 51" fill="none" xmlns="http://www.w3.org/2000/svg">
<rect x="1" y="1" width="48.8892" height="48.8892" rx="10" fill="#EF9438"/>
<path fill-rule="evenodd" clip-rule="evenodd" d="M29.6919 15.9123C27.6364 14.9963 25.3398 14.7694 23.1447 15.2654C20.9497 15.7613 18.9737 16.9536 17.5116 18.6642C16.0495 20.3749 15.1795 22.5124 15.0314 24.7579C14.8834 27.0035 15.4651 29.2367 16.69 31.1246C17.9148 33.0124 19.7171 34.4538 21.828 35.2337C23.939 36.0135 26.2455 36.0902 28.4035 35.4521C30.5615 34.814 32.4555 33.4955 33.8029 31.6931C35.1504 29.8906 35.8791 27.7009 35.8804 25.4506V24.3961C35.8804 23.8261 36.3425 23.364 36.9125 23.364C37.4825 23.364 37.9446 23.8261 37.9446 24.3961V25.4511C37.943 28.1467 37.0702 30.7701 35.4562 32.929C33.8423 35.088 31.5737 36.6673 28.9888 37.4316C26.4039 38.1959 23.6412 38.1041 21.1127 37.17C18.5842 36.2358 16.4254 34.5094 14.9583 32.2481C13.4912 29.9868 12.7943 27.3118 12.9717 24.6221C13.149 21.9324 14.1911 19.3721 15.9424 17.3231C17.6938 15.274 20.0606 13.846 22.6898 13.2519C25.3191 12.6579 28.0699 12.9297 30.5321 14.0267C31.0528 14.2587 31.2868 14.8689 31.0548 15.3896C30.8228 15.9102 30.2126 16.1442 29.6919 15.9123Z" fill="white"/>
<path fill-rule="evenodd" clip-rule="evenodd" d="M37.6408 15.5461C38.044 15.9489 38.0443 16.6024 37.6415 17.0057L26.1736 28.485C25.9801 28.6788 25.7175 28.7876 25.4437 28.7877C25.1699 28.7878 24.9072 28.679 24.7136 28.4854L21.2732 25.045C20.8702 24.642 20.8702 23.9885 21.2732 23.5854C21.6763 23.1824 22.3298 23.1824 22.7329 23.5854L25.4431 26.2956L36.1811 15.5468C36.584 15.1435 37.2375 15.1432 37.6408 15.5461Z" fill="white"/>
</svg>
