<svg width="30" height="30" viewBox="0 0 30 30" fill="none" xmlns="http://www.w3.org/2000/svg">
<path fill-rule="evenodd" clip-rule="evenodd" d="M18.8262 7.64701H11.1737C9.85054 7.64701 8.7779 8.70979 8.7779 10.0208V19.9791C8.7779 21.2901 9.85054 22.3529 11.1737 22.3529H18.8262C20.1493 22.3529 21.222 21.2901 21.222 19.9791V10.0208C21.222 8.70979 20.1493 7.64701 18.8262 7.64701ZM11.1737 5.89246C8.87254 5.89246 7.00708 7.74078 7.00708 10.0208V19.9791C7.00708 22.2591 8.87254 24.1075 11.1737 24.1075H18.8262C21.1273 24.1075 22.9928 22.2591 22.9928 19.9791V10.0208C22.9928 7.74078 21.1273 5.89246 18.8262 5.89246H11.1737Z" fill="white"/>
<path d="M12 12C11.4477 12 11 11.5523 11 11C11 10.4477 11.4477 10 12 10C12.5523 10 13 10.4477 13 11C13 11.5523 12.5523 12 12 12Z" fill="white"/>
<path fill-rule="evenodd" clip-rule="evenodd" d="M14.0001 10.9895C14.0021 10.5201 14.2523 10.1406 14.5591 10.1418L18.4482 10.1581C18.7549 10.1594 19.002 10.541 19.0001 11.0104C18.9981 11.4798 18.7478 11.8594 18.4411 11.8581L14.552 11.8418C14.2452 11.8406 13.9982 11.459 14.0001 10.9895Z" fill="white"/>
<path d="M12 16C11.4477 16 11 15.5523 11 15C11 14.4477 11.4477 14 12 14C12.5523 14 13 14.4477 13 15C13 15.5523 12.5523 16 12 16Z" fill="white"/>
<path fill-rule="evenodd" clip-rule="evenodd" d="M14.0001 14.9895C14.0021 14.5201 14.2523 14.1406 14.5591 14.1418L18.4482 14.1581C18.7549 14.1594 19.002 14.541 19.0001 15.0104C18.9981 15.4798 18.7478 15.8594 18.4411 15.8581L14.552 15.8418C14.2452 15.8406 13.9982 15.459 14.0001 14.9895Z" fill="white"/>
<path d="M12 20C11.4477 20 11 19.5523 11 19C11 18.4477 11.4477 18 12 18C12.5523 18 13 18.4477 13 19C13 19.5523 12.5523 20 12 20Z" fill="white"/>
<path fill-rule="evenodd" clip-rule="evenodd" d="M14.0001 18.9895C14.0021 18.5201 14.2523 18.1406 14.5591 18.1418L18.4482 18.1581C18.7549 18.1594 19.002 18.541 19.0001 19.0104C18.9981 19.4798 18.7478 19.8594 18.4411 19.8581L14.552 19.8418C14.2452 19.8406 13.9982 19.459 14.0001 18.9895Z" fill="white"/>
</svg>
