<svg width="31" height="31" viewBox="0 0 31 31" fill="none" xmlns="http://www.w3.org/2000/svg">
<path fill-rule="evenodd" clip-rule="evenodd" d="M19.6919 5.91225C17.6364 4.99634 15.3398 4.76944 13.1447 5.26539C10.9497 5.76133 8.97372 6.95355 7.51159 8.66424C6.04946 10.3749 5.17949 12.5124 5.03142 14.7579C4.88335 17.0035 5.46512 19.2367 6.68996 21.1246C7.9148 23.0124 9.71709 24.4538 11.828 25.2337C13.939 26.0135 16.2455 26.0902 18.4035 25.4521C20.5615 24.814 22.4555 23.4955 23.8029 21.6931C25.1504 19.8906 25.8791 17.7009 25.8804 15.4506V14.3961C25.8804 13.8261 26.3425 13.364 26.9125 13.364C27.4825 13.364 27.9446 13.8261 27.9446 14.3961V15.4511C27.943 18.1467 27.0702 20.7701 25.4562 22.929C23.8423 25.088 21.5737 26.6673 18.9888 27.4316C16.4039 28.1959 13.6412 28.1041 11.1127 27.17C8.58418 26.2358 6.4254 24.5094 4.95828 22.2481C3.49116 19.9868 2.79432 17.3118 2.97168 14.6221C3.14903 11.9324 4.19109 9.37214 5.94243 7.32308C7.69377 5.27401 10.0606 3.84596 12.6898 3.25192C15.3191 2.65787 18.0699 2.92966 20.5321 4.02674C21.0528 4.25873 21.2868 4.86889 21.0548 5.38956C20.8228 5.91023 20.2126 6.14425 19.6919 5.91225Z" fill="white"/>
<path fill-rule="evenodd" clip-rule="evenodd" d="M27.6408 5.54607C28.044 5.94894 28.0443 6.60243 27.6415 7.0057L16.1736 18.485C15.9801 18.6788 15.7175 18.7876 15.4437 18.7877C15.1699 18.7878 14.9072 18.679 14.7136 18.4854L11.2732 15.045C10.8702 14.642 10.8702 13.9885 11.2732 13.5854C11.6763 13.1824 12.3298 13.1824 12.7329 13.5854L15.4431 16.2956L26.1811 5.5468C26.584 5.14354 27.2375 5.14321 27.6408 5.54607Z" fill="white"/>
</svg>
