<svg width="65" height="65" viewBox="0 0 65 65" fill="none" xmlns="http://www.w3.org/2000/svg">
<circle cx="32.5" cy="32.5" r="32.5" fill="black" fill-opacity="0.5"/>
<path d="M18.3916 35.0302L18.8937 34.4778C19.4565 33.8745 20.0798 33.3433 20.7515 32.8944C21.2696 32.5592 21.8355 32.3227 22.4252 32.1947C22.764 32.1107 23.1166 32.1224 23.4502 32.2286C23.7838 32.3349 24.0876 32.5322 24.3332 32.8023C24.7759 33.2554 25.164 33.769 25.488 34.3305C26.0875 35.3518 26.6135 36.4229 27.0613 37.5343C27.2789 38.0498 27.4797 38.5837 27.6973 39.1177C27.706 39.0753 27.706 39.0312 27.6973 38.9888C28.9 36.806 30.219 34.7034 31.6473 32.6919C33.0699 30.6665 34.5762 28.7517 36.1662 26.8921C38.2696 24.4446 40.5052 22.1389 42.861 19.9876C44.7699 18.2399 46.7951 16.652 48.9197 15.2372L49.857 14.6296H49.9407L50.7608 15.9001L50.2085 16.3604C48.8769 17.5039 47.6082 18.7336 46.4092 20.0428C44.4693 22.1638 42.6314 24.3947 40.9028 26.7264C39.0617 29.1813 37.3099 31.7222 35.6474 34.349C34.0859 36.8089 32.6553 39.3663 31.3627 42.0084C30.9945 42.7449 30.6598 43.5182 30.3083 44.2731C30.2725 44.3311 30.2271 44.381 30.1744 44.4203L27.2287 46.8508C26.7433 47.2374 26.2747 47.6793 25.806 48.0844L25.7056 47.7345C25.3709 46.593 24.9692 45.4883 24.5508 44.3835C23.9482 42.8553 23.3625 41.3456 22.6762 39.8726C22.2588 38.9691 21.7717 38.1067 21.2201 37.2949C20.6968 36.5389 20.0355 35.9117 19.2787 35.4537C19.0611 35.3248 18.8435 35.2327 18.6092 35.1223L18.3916 35.0302Z" fill="white"/>
</svg>
