<svg width="18" height="19" viewBox="0 0 18 19" fill="none" xmlns="http://www.w3.org/2000/svg">
<path d="M11.7 8.6H9.9V5C9.9 4.7613 9.80518 4.53239 9.6364 4.3636C9.46762 4.19482 9.2387 4.1 9 4.1C8.76131 4.1 8.53239 4.19482 8.36361 4.3636C8.19482 4.53239 8.1 4.7613 8.1 5V9.5C8.1 9.73869 8.19482 9.96761 8.36361 10.1364C8.53239 10.3052 8.76131 10.4 9 10.4H11.7C11.9387 10.4 12.1676 10.3052 12.3364 10.1364C12.5052 9.96761 12.6 9.73869 12.6 9.5C12.6 9.2613 12.5052 9.03238 12.3364 8.8636C12.1676 8.69482 11.9387 8.6 11.7 8.6ZM9 0.5C7.21997 0.5 5.47991 1.02784 3.99987 2.01677C2.51983 3.00571 1.36628 4.41131 0.685088 6.05585C0.00389956 7.70038 -0.17433 9.50998 0.172936 11.2558C0.520203 13.0016 1.37737 14.6053 2.63604 15.864C3.89471 17.1226 5.49836 17.9798 7.24419 18.3271C8.99002 18.6743 10.7996 18.4961 12.4442 17.8149C14.0887 17.1337 15.4943 15.9802 16.4832 14.5001C17.4722 13.0201 18 11.28 18 9.5C17.9973 7.11386 17.0483 4.82622 15.361 3.13897C13.6738 1.45172 11.3861 0.502654 9 0.5ZM9 16.7C7.57598 16.7 6.18393 16.2777 4.9999 15.4866C3.81586 14.6954 2.89302 13.5709 2.34807 12.2553C1.80312 10.9397 1.66054 9.49201 1.93835 8.09535C2.21616 6.69868 2.9019 5.41577 3.90883 4.40883C4.91577 3.40189 6.19869 2.71616 7.59535 2.43835C8.99201 2.16053 10.4397 2.30312 11.7553 2.84807C13.0709 3.39302 14.1954 4.31586 14.9866 5.49989C15.7777 6.68393 16.2 8.07597 16.2 9.5C16.1978 11.4089 15.4385 13.239 14.0888 14.5888C12.739 15.9385 10.9089 16.6978 9 16.7Z" fill="#4D4C4C"/>
</svg>
