<svg width="36" height="36" viewBox="0 0 36 36" fill="none" xmlns="http://www.w3.org/2000/svg">
<circle cx="18" cy="18" r="18" fill="#959595" fill-opacity="0.54"/>
<path d="M13.6336 12.5644C13.3383 12.2689 12.8595 12.2689 12.5642 12.5644C12.269 12.8598 12.269 13.3384 12.5642 13.6333L16.9306 17.9999L12.5643 22.3665C12.269 22.6614 12.269 23.1406 12.5643 23.4355C12.8596 23.7309 13.3383 23.7309 13.6336 23.4355L17.9999 19.0694L22.3662 23.4355C22.6615 23.7309 23.1403 23.7309 23.4355 23.4355C23.7308 23.1406 23.7308 22.6614 23.4355 22.3665L19.0692 17.9999L23.4356 13.6333C23.7309 13.3384 23.7309 12.8598 23.4356 12.5644C23.1403 12.2689 22.6615 12.2689 22.3662 12.5644L17.9999 16.9304L13.6336 12.5644Z" fill="white"/>
</svg>
