<svg width="23" height="23" viewBox="0 0 23 23" fill="none" xmlns="http://www.w3.org/2000/svg">
<mask id="path-1-inside-1_9362_1998" fill="white">
<path fill-rule="evenodd" clip-rule="evenodd" d="M11.4446 22.4446C17.5197 22.4446 22.4446 17.5197 22.4446 11.4446C22.4446 5.36945 17.5197 0.44458 11.4446 0.44458C5.36945 0.44458 0.44458 5.36945 0.44458 11.4446C0.44458 14.3812 1.59536 17.0491 3.47057 19.0219C3.54439 19.0995 3.54615 19.2214 3.47305 19.2998L0.931219 22.0236C0.812376 22.151 0.901832 22.3588 1.07602 22.36L10.8691 22.4298C11.0597 22.4396 11.2516 22.4446 11.4446 22.4446Z"/>
</mask>
<path d="M10.8691 22.4298L10.9721 20.4324L10.9277 20.4302L10.8834 20.4298L10.8691 22.4298ZM0.931219 22.0236L2.39344 23.3881L0.931219 22.0236ZM1.07602 22.36L1.06178 24.36L1.07602 22.36ZM3.47057 19.0219L2.02097 20.3998L3.47057 19.0219ZM3.47305 19.2998L4.93527 20.6643L3.47305 19.2998ZM20.4446 11.4446C20.4446 16.4151 16.4151 20.4446 11.4446 20.4446V24.4446C18.6243 24.4446 24.4446 18.6243 24.4446 11.4446H20.4446ZM11.4446 2.44458C16.4151 2.44458 20.4446 6.47402 20.4446 11.4446H24.4446C24.4446 4.26488 18.6243 -1.55542 11.4446 -1.55542V2.44458ZM2.44458 11.4446C2.44458 6.47402 6.47402 2.44458 11.4446 2.44458V-1.55542C4.26488 -1.55542 -1.55542 4.26488 -1.55542 11.4446H2.44458ZM4.92017 17.644C3.38418 16.0281 2.44458 13.8482 2.44458 11.4446H-1.55542C-1.55542 14.9143 -0.193461 18.0702 2.02097 20.3998L4.92017 17.644ZM2.39344 23.3881L4.93527 20.6643L2.01083 17.9353L-0.530999 20.6591L2.39344 23.3881ZM10.8834 20.4298L1.09026 20.3601L1.06178 24.36L10.8549 24.4297L10.8834 20.4298ZM11.4446 20.4446C11.2859 20.4446 11.1284 20.4405 10.9721 20.4324L10.7662 24.4271C10.991 24.4387 11.2172 24.4446 11.4446 24.4446V20.4446ZM-0.530999 20.6591C-1.83829 22.06 -0.854249 24.3464 1.06178 24.36L1.09026 20.3601C2.65791 20.3713 3.46304 22.2419 2.39344 23.3881L-0.530999 20.6591ZM2.02097 20.3998C1.38105 19.7266 1.34706 18.6466 2.01083 17.9353L4.93527 20.6643C5.74524 19.7963 5.70773 18.4725 4.92017 17.644L2.02097 20.3998Z" fill="white" mask="url(#path-1-inside-1_9362_1998)"/>
<circle cx="7.04458" cy="11.4446" r="1.1" fill="white"/>
<circle cx="11.4445" cy="11.4446" r="1.1" fill="white"/>
<circle cx="15.8446" cy="11.4446" r="1.1" fill="white"/>
</svg>
