<svg width="25" height="25" viewBox="0 0 25 25" fill="none" xmlns="http://www.w3.org/2000/svg">
<path fill-rule="evenodd" clip-rule="evenodd" d="M17.6047 8.86495C18.0581 9.21529 18.1409 9.86583 17.7895 10.318L14.4091 14.6678C14.2397 14.8859 13.99 15.0275 13.7154 15.0613C13.4408 15.0951 13.164 15.0183 12.9464 14.8479L9.8314 12.4078L7.01699 16.0551C6.66718 16.5084 6.01503 16.5932 5.56038 16.2444C5.10573 15.8956 5.02074 15.2453 5.37055 14.792L8.82478 10.3156C8.99387 10.0964 9.24382 9.95383 9.51896 9.91948C9.79411 9.88513 10.0716 9.96191 10.2897 10.1327L13.4075 12.5749L16.1474 9.04925C16.4988 8.59712 17.1512 8.5146 17.6047 8.86495Z" fill="white"/>
<path fill-rule="evenodd" clip-rule="evenodd" d="M20.909 2.07135C20.2576 2.07135 19.7295 2.59789 19.7295 3.24741C19.7295 3.89693 20.2576 4.42347 20.909 4.42347C21.5604 4.42347 22.0885 3.89693 22.0885 3.24741C22.0885 2.59789 21.5604 2.07135 20.909 2.07135ZM17.6521 3.24741C17.6521 1.45391 19.1103 0 20.909 0C22.7077 0 24.1658 1.45392 24.1658 3.24741C24.1658 5.0409 22.7077 6.49482 20.909 6.49482C19.1103 6.49482 17.6521 5.0409 17.6521 3.24741Z" fill="white"/>
<path fill-rule="evenodd" clip-rule="evenodd" d="M1.78892 2.96092C2.97899 1.68092 4.67365 0.969055 6.66923 0.969055H15.0569C15.6306 0.969055 16.0956 1.43274 16.0956 2.00473C16.0956 2.57671 15.6306 3.0404 15.0569 3.0404H6.66923C5.1893 3.0404 4.06869 3.55565 3.31237 4.36912C2.54781 5.19145 2.07738 6.40415 2.07738 7.92437V17.2251C2.07738 18.7506 2.54028 19.9594 3.29755 20.7762C4.04568 21.5832 5.16399 22.0986 6.66923 22.0986H16.5993C18.0806 22.0986 19.2012 21.585 19.957 20.7742C20.7208 19.9547 21.1911 18.7452 21.1911 17.2251V9.12515C21.1911 8.55316 21.6561 8.08947 22.2298 8.08947C22.8034 8.08947 23.2685 8.55316 23.2685 9.12515V17.2251C23.2685 19.1705 22.6613 20.9155 21.4787 22.1843C20.288 23.4617 18.5934 24.1699 16.5993 24.1699H6.66923C4.6567 24.1699 2.95974 23.4634 1.77204 22.1822C0.593491 20.9109 0 19.1651 0 17.2251V7.92437C0 5.97917 0.607084 4.23205 1.78892 2.96092Z" fill="white"/>
</svg>
