<svg width="23" height="16" viewBox="0 0 23 16" fill="none" xmlns="http://www.w3.org/2000/svg">
<path d="M16.1986 4.90385C16.0532 4.75852 15.8561 4.67688 15.6505 4.67688C15.445 4.67688 15.2478 4.75852 15.1025 4.90385L13.0978 6.90856L11.0931 4.90385C10.9469 4.76264 10.751 4.6845 10.5478 4.68627C10.3445 4.68804 10.1501 4.76956 10.0064 4.9133C9.86262 5.05703 9.78109 5.25146 9.77933 5.45472C9.77756 5.65798 9.8557 5.8538 9.99691 6.00001L12.0016 8.00471L9.99691 10.0094C9.8557 10.1556 9.77756 10.3514 9.77933 10.5547C9.78109 10.758 9.86262 10.9524 10.0064 11.0961C10.1501 11.2399 10.3445 11.3214 10.5478 11.3232C10.751 11.3249 10.9469 11.2468 11.0931 11.1056L13.0978 9.10087L15.1025 11.1056C15.2487 11.2468 15.4445 11.3249 15.6478 11.3232C15.851 11.3214 16.0454 11.2399 16.1892 11.0961C16.3329 10.9524 16.4144 10.758 16.4162 10.5547C16.418 10.3514 16.3398 10.1556 16.1986 10.0094L14.1939 8.00471L16.1986 6.00001C16.344 5.85463 16.4256 5.65749 16.4256 5.45193C16.4256 5.24637 16.344 5.04923 16.1986 4.90385Z" fill="#4D4C4C"/>
<path fill-rule="evenodd" clip-rule="evenodd" d="M8.50469 1.46423L1.96801 7.99924L8.50474 14.536H21.1316V1.46423H8.50469ZM7.55636 0.374993C7.78152 0.149892 8.08686 0.0234375 8.40524 0.0234375H21.3718C22.0349 0.0234375 22.5724 0.560989 22.5724 1.22409V14.7762C22.5724 15.4393 22.0349 15.9768 21.3718 15.9768H8.40528C8.08684 15.9768 7.78145 15.8503 7.55628 15.6252L0.779395 8.8482C0.310471 8.37928 0.31052 7.61898 0.779507 7.15011L7.55636 0.374993Z" fill="#4D4C4C"/>
</svg>
