<svg width="23" height="23" viewBox="0 0 23 23" fill="none" xmlns="http://www.w3.org/2000/svg">
<path d="M17.4069 8.09964L17.0897 17.6302C17.0626 18.4464 16.7162 19.22 16.1238 19.7869C15.5314 20.3538 14.7397 20.6693 13.9168 20.6664H7.88838C7.06599 20.6693 6.27479 20.3542 5.68249 19.788C5.09019 19.2218 4.74336 18.449 4.71552 17.6333L4.39824 8.09964C4.3913 7.89086 4.46821 7.6879 4.61206 7.5354C4.7559 7.3829 4.9549 7.29336 5.16528 7.28647C5.37565 7.27958 5.58016 7.35591 5.73383 7.49866C5.88749 7.64142 5.97772 7.83891 5.98467 8.04768L6.30195 17.5806C6.31775 17.9875 6.49184 18.3726 6.78766 18.6548C7.08348 18.9371 7.478 19.0946 7.88838 19.0943H13.9168C14.3277 19.0946 14.7227 18.9366 15.0186 18.6537C15.3145 18.3708 15.4882 17.9849 15.5032 17.5774L15.8205 8.04768C15.8275 7.83891 15.9177 7.64142 16.0714 7.49866C16.225 7.35591 16.4295 7.27958 16.6399 7.28647C16.8503 7.29336 17.0493 7.3829 17.1931 7.5354C17.337 7.6879 17.4139 7.89086 17.4069 8.09964ZM18.4564 4.92804C18.4564 5.13682 18.3728 5.33704 18.224 5.48467C18.0753 5.6323 17.8735 5.71523 17.6632 5.71523H4.14282C3.93245 5.71523 3.73069 5.6323 3.58194 5.48467C3.43318 5.33704 3.34961 5.13682 3.34961 4.92804C3.34961 4.71927 3.43318 4.51904 3.58194 4.37141C3.73069 4.22379 3.93245 4.14085 4.14282 4.14085H6.60179C6.85311 4.14152 7.0957 4.04937 7.28235 3.88234C7.46899 3.7153 7.58634 3.48532 7.61155 3.23716C7.67008 2.65502 7.9449 2.11535 8.38247 1.72331C8.82003 1.33128 9.38899 1.11494 9.9785 1.11646H11.8267C12.4162 1.11494 12.9852 1.33128 13.4227 1.72331C13.8603 2.11535 14.1351 2.65502 14.1936 3.23716C14.2188 3.48532 14.3362 3.7153 14.5228 3.88234C14.7095 4.04937 14.9521 4.14152 15.2034 4.14085H17.6624C17.8727 4.14085 18.0745 4.22379 18.2232 4.37141C18.372 4.51904 18.4556 4.71927 18.4556 4.92804H18.4564ZM8.98857 4.14085H12.8182C12.714 3.90449 12.6458 3.65404 12.6159 3.39774C12.5963 3.20371 12.5048 3.02382 12.3591 2.89293C12.2134 2.76204 12.024 2.68946 11.8275 2.68927H9.97929C9.78278 2.68946 9.59335 2.76204 9.44768 2.89293C9.30201 3.02382 9.21049 3.20371 9.19084 3.39774C9.16072 3.65408 9.09228 3.90453 8.98777 4.14085H8.98857ZM9.78733 16.0676V9.36465C9.78733 9.15588 9.70376 8.95565 9.55501 8.80802C9.40625 8.6604 9.20449 8.57746 8.99412 8.57746C8.78375 8.57746 8.58199 8.6604 8.43323 8.80802C8.28448 8.95565 8.2009 9.15588 8.2009 9.36465V16.0707C8.2009 16.2795 8.28448 16.4797 8.43323 16.6274C8.58199 16.775 8.78375 16.8579 8.99412 16.8579C9.20449 16.8579 9.40625 16.775 9.55501 16.6274C9.70376 16.4797 9.78733 16.2795 9.78733 16.0707V16.0676ZM13.6059 16.0676V9.36465C13.6059 9.15588 13.5223 8.95565 13.3735 8.80802C13.2248 8.6604 13.023 8.57746 12.8127 8.57746C12.6023 8.57746 12.4005 8.6604 12.2518 8.80802C12.103 8.95565 12.0194 9.15588 12.0194 9.36465V16.0707C12.0194 16.2795 12.103 16.4797 12.2518 16.6274C12.4005 16.775 12.6023 16.8579 12.8127 16.8579C13.023 16.8579 13.2248 16.775 13.3735 16.6274C13.5223 16.4797 13.6059 16.2795 13.6059 16.0707V16.0676Z" fill="#4D4C4C"/>
</svg>
