<svg width="18" height="18" viewBox="0 0 18 18" fill="none" xmlns="http://www.w3.org/2000/svg">
<g clip-path="url(#clip0_1578_37050)">
<path d="M17.5192 5.10253C17.3776 5.01741 16.5301 4.49395 16.0697 3.62705C15.6642 2.861 15.9213 2.35031 16.1703 1.85919C16.2197 1.76131 16.2683 1.66555 16.3105 1.57022C16.4461 1.26423 16.4282 0.942068 16.2607 0.68587C16.056 0.371792 15.6617 0.191772 15.1787 0.191772H9.87051C9.40922 0.191772 9.03321 0.362004 8.83966 0.659909C8.67126 0.918661 8.65591 1.25061 8.79703 1.5715C8.83156 1.64938 8.86865 1.72641 8.90659 1.80557C9.16238 2.33243 9.40112 2.83036 8.97949 3.62832C8.48069 4.57098 7.6046 5.11359 7.59565 5.11785C7.56167 5.13853 7.53678 5.17126 7.52596 5.20949C7.51514 5.24773 7.5192 5.28862 7.53732 5.32399C7.55544 5.35936 7.58628 5.38659 7.62366 5.40021C7.66105 5.41384 7.70221 5.41285 7.73889 5.39745L8.52972 5.06848C8.49391 5.17317 8.4598 5.27148 8.42953 5.35915C8.17076 6.10306 8.06588 6.45502 8.06588 7.70707V14.7551C8.06588 16.8089 9.35295 17.7299 12.3419 17.8005C12.3645 17.804 12.3873 17.8061 12.4101 17.8069C12.4634 17.8069 12.512 17.8044 12.5644 17.8039C12.6169 17.8035 12.6655 17.8069 12.7188 17.8069C12.7418 17.8061 12.7647 17.804 12.7874 17.8005C15.7768 17.7303 17.0647 16.8089 17.0647 14.7551V7.70707C17.0647 6.45502 16.9594 6.10306 16.7006 5.35915C16.6708 5.27404 16.6375 5.177 16.603 5.07444L17.4041 5.39788C17.4227 5.40561 17.4427 5.40952 17.4629 5.40937H17.4672C17.4884 5.411 17.5097 5.40806 17.5297 5.40075C17.5497 5.39344 17.5679 5.38193 17.583 5.36701C17.5982 5.35208 17.61 5.33408 17.6175 5.31422C17.6251 5.29437 17.6284 5.27312 17.627 5.25191C17.627 5.21886 17.6166 5.18665 17.5972 5.15984C17.5779 5.13303 17.5506 5.11298 17.5192 5.10253ZM12.5653 16.7979C9.34826 16.7685 9.07584 15.8161 9.07584 14.7551V11.1649H16.0547V14.7551C16.0547 15.8152 15.7827 16.7685 12.5653 16.7979ZM15.402 4.62673C15.5389 5.09487 15.654 5.42427 15.7461 5.69068C15.9503 6.27755 16.0377 6.53162 16.0522 7.42534H9.0784C9.09247 6.53162 9.17986 6.27628 9.38407 5.69068C9.47616 5.42554 9.59126 5.09487 9.72811 4.62673C9.73339 4.60631 9.73723 4.58555 9.73962 4.5646L10.6532 4.18455L12.4438 5.27233C12.4684 5.28756 12.4969 5.29562 12.5259 5.29562C12.5548 5.29562 12.5833 5.28756 12.6079 5.27233L14.3985 4.1837L15.3939 4.5863C15.3978 4.59949 15.3986 4.61269 15.402 4.62673Z" fill="white"/>
</g>
<g clip-path="url(#clip1_1578_37050)">
<path d="M1.9087 10.2711C1.69104 10.0193 1.47283 9.79211 1.28371 9.54368C0.965892 9.12403 0.82489 8.63276 0.786842 8.11463C0.766699 7.84102 0.88476 7.70505 1.15054 7.63511C2.21365 7.35535 3.51792 7.83487 4.15019 8.73515C4.21341 8.82524 4.27776 8.91476 4.36001 9.03059C4.4473 8.96232 4.51948 8.91029 4.58382 8.8521C4.84472 8.62452 5.15784 8.46499 5.4953 8.38768C5.7124 8.33677 5.88697 8.4207 5.94964 8.60143C5.98592 8.69388 5.98484 8.79682 5.94662 8.88849C5.90841 8.98016 5.83606 9.05338 5.74485 9.09269C5.66987 9.12906 5.58818 9.15145 5.51041 9.18222C5.00683 9.37862 4.74441 9.74175 4.71643 10.3046C4.92849 10.3712 5.12041 10.2778 5.31513 10.2532C5.90935 10.1771 6.50805 10.1077 7.07654 10.3511C7.98242 10.7388 8.50726 11.4651 8.65945 12.4096C8.93306 14.1089 8.51733 15.6549 7.39995 16.972C6.84042 17.6312 6.11302 18.0111 5.22225 17.9842C5.05484 17.9799 4.89003 17.9419 4.73769 17.8723C4.65366 17.8267 4.5597 17.8024 4.46408 17.8017C4.36847 17.8009 4.27413 17.8236 4.18935 17.8678C3.66731 18.1062 3.1503 17.9915 2.64672 17.7861C1.87625 17.4717 1.34693 16.8909 0.955258 16.1825C0.339773 15.0719 0.0465788 13.8884 0.227867 12.6082C0.371107 11.6117 0.856784 10.8513 1.76267 10.3802C1.8145 10.3482 1.86337 10.3117 1.9087 10.2711ZM0.935116 13.1141C0.935116 14.2891 1.28202 15.3779 1.8645 16.1915C2.22316 16.6911 2.68141 17.056 3.29242 17.1986C3.62814 17.2764 3.92973 17.2591 4.17145 16.9508C4.35442 16.7174 4.5911 16.7376 4.78246 16.9726C4.84983 17.0621 4.93879 17.1332 5.04103 17.1791C5.14328 17.225 5.25548 17.2442 5.36717 17.235C5.87578 17.2082 6.29711 16.9888 6.65968 16.6458C7.27517 16.0639 7.62376 15.3287 7.83134 14.523C8.03166 13.7446 8.08873 12.9635 7.8196 12.183C7.55718 11.4226 6.90979 10.9319 6.11078 10.9615C5.69399 10.9856 5.27996 11.0447 4.8731 11.1383C4.60363 11.2041 4.3223 11.2041 4.05283 11.1383C3.66513 11.0408 3.26976 10.9768 2.8711 10.947C2.21924 10.8966 1.72126 11.1893 1.35532 11.7197C1.02912 12.1875 0.939033 12.7235 0.935116 13.1141ZM1.63789 8.35803C1.59257 8.9903 2.49901 9.97228 3.30585 9.98067C3.24384 9.91557 3.17847 9.85375 3.11002 9.79547C2.96901 9.6886 2.82634 9.58396 2.67918 9.48661C2.5074 9.3747 2.46991 9.23929 2.6014 9.03898C3.06414 9.02555 3.2969 9.50339 3.71543 9.61138C3.61695 8.90133 2.37087 8.14373 1.63789 8.35803Z" fill="white"/>
<path d="M1.34578 13.2886C1.40621 12.4549 1.78445 11.7739 2.59298 11.3733C2.69903 11.3265 2.81874 11.3209 2.92869 11.3576C3.08928 11.4186 3.10998 11.596 2.9936 11.7258C2.94881 11.7723 2.89591 11.8102 2.83749 11.8377C2.17836 12.1673 1.8958 12.7268 1.85495 13.4357C1.85495 13.4727 1.8488 13.5102 1.8488 13.5477C1.85149 13.5783 1.84766 13.6093 1.83756 13.6384C1.82745 13.6675 1.81129 13.6941 1.79015 13.7165C1.76901 13.7389 1.74336 13.7566 1.71489 13.7684C1.68642 13.7802 1.65578 13.7858 1.62498 13.7849C1.47167 13.7966 1.38271 13.7054 1.35809 13.5611C1.3492 13.4705 1.34509 13.3796 1.34578 13.2886Z" fill="white"/>
</g>
<defs>
<clipPath id="clip0_1578_37050">
<rect width="10.4892" height="17.9986" fill="white" transform="translate(7.3291 0.000244141)"/>
</clipPath>
<clipPath id="clip1_1578_37050">
<rect width="8.56475" height="10.4448" fill="white" transform="translate(0.176758 7.55505)"/>
</clipPath>
</defs>
</svg>
