<svg width="20" height="20" viewBox="0 0 20 20" fill="none" xmlns="http://www.w3.org/2000/svg">
<path fill-rule="evenodd" clip-rule="evenodd" d="M0.5 3C0.5 1.34315 1.84315 0 3.5 0H14C15.6569 0 17 1.34315 17 3V8C17 8.55228 16.5523 9 16 9C15.4477 9 15 8.55228 15 8V3C15 2.44772 14.5523 2 14 2H3.5C2.94772 2 2.5 2.44772 2.5 3V17C2.5 17.5523 2.94771 18 3.5 18H7C7.55228 18 8 18.4477 8 19C8 19.5523 7.55228 20 7 20H3.5C1.84315 20 0.5 18.6569 0.5 17V3Z" fill="white"/>
<path fill-rule="evenodd" clip-rule="evenodd" d="M3.5 5.1498C3.5 4.68036 3.88056 4.2998 4.35 4.2998H12.65C13.1194 4.2998 13.5 4.68036 13.5 5.1498C13.5 5.61925 13.1194 5.9998 12.65 5.9998H4.35C3.88056 5.9998 3.5 5.61925 3.5 5.1498Z" fill="white"/>
<path fill-rule="evenodd" clip-rule="evenodd" d="M3.5 8.14981C3.5 7.68036 3.88056 7.2998 4.35 7.2998H12.65C13.1194 7.2998 13.5 7.68036 13.5 8.14981C13.5 8.61925 13.1194 8.9998 12.65 8.9998H4.35C3.88056 8.9998 3.5 8.61925 3.5 8.14981Z" fill="white"/>
<path fill-rule="evenodd" clip-rule="evenodd" d="M3.5 11.1498C3.5 10.6804 3.88056 10.2998 4.35 10.2998H12.65C13.1194 10.2998 13.5 10.6804 13.5 11.1498C13.5 11.6192 13.1194 11.9998 12.65 11.9998H4.35C3.88056 11.9998 3.5 11.6192 3.5 11.1498Z" fill="white"/>
<path fill-rule="evenodd" clip-rule="evenodd" d="M18.1871 11.3129C17.8726 10.9984 17.3626 10.9984 17.0481 11.3129L12.2704 16.0906C11.537 16.8239 11.014 17.7405 10.7556 18.7444C11.7595 18.486 12.6761 17.963 13.4094 17.2296L18.1871 12.4519C18.5016 12.1374 18.5016 11.6274 18.1871 11.3129ZM16.2865 10.5513C17.0217 9.81622 18.2135 9.81622 18.9487 10.5513C19.6838 11.2865 19.6838 12.4783 18.9487 13.2135L14.171 17.9911C13.2901 18.8721 12.1863 19.497 10.9777 19.7992L10.2484 19.9815C9.80758 20.0917 9.40832 19.6924 9.51852 19.2516L9.70084 18.5223C10.003 17.3137 10.6279 16.2099 11.5089 15.329L16.2865 10.5513Z" fill="white"/>
<path fill-rule="evenodd" clip-rule="evenodd" d="M15.6527 11.1853C15.863 10.975 16.2039 10.975 16.4142 11.1853L18.3148 13.0859C18.5251 13.2962 18.5251 13.6372 18.3148 13.8475C18.1045 14.0578 17.7635 14.0578 17.5532 13.8475L15.6527 11.9469C15.4424 11.7366 15.4424 11.3956 15.6527 11.1853Z" fill="white"/>
</svg>
