<svg width="16" height="16" viewBox="0 0 16 16" fill="none" xmlns="http://www.w3.org/2000/svg">
<path d="M15.0711 0.928888C16.0474 1.9052 16.0474 3.48811 15.0711 4.46442L5.83805 13.6975C5.43755 14.098 4.93574 14.3821 4.38626 14.5195L1.52251 15.2354C1.06478 15.3499 0.650157 14.9352 0.764591 14.4775L1.48053 11.6137C1.6179 11.0643 1.90202 10.5625 2.30251 10.162L11.5356 0.928888C12.5119 -0.0474224 14.0948 -0.0474224 15.0711 0.928888ZM10.6516 3.5804L3.1864 11.0458C2.9461 11.2861 2.77563 11.5872 2.69321 11.9169L2.22991 13.7701L4.08309 13.3068C4.41278 13.2244 4.71387 13.0539 4.95416 12.8136L12.4191 5.34791L10.6516 3.5804ZM12.4195 1.81277L11.5354 2.69666L13.3029 4.46416L14.1872 3.58054C14.6754 3.09238 14.6754 2.30093 14.1872 1.81277C13.6991 1.32462 12.9076 1.32462 12.4195 1.81277Z" fill="#4D4C4C"/>
</svg>
