<svg width="24" height="24" viewBox="0 0 24 24" fill="none" xmlns="http://www.w3.org/2000/svg">
<path d="M16.4796 12.1849C16.4796 14.6584 14.4744 16.6637 12.0008 16.6637C9.52727 16.6637 7.52205 14.6584 7.52205 12.1849C7.52205 9.71131 9.52727 7.70609 12.0008 7.70609C14.4744 7.70609 16.4796 9.71131 16.4796 12.1849ZM16.4796 12.1849C16.4796 14.6584 17.3755 16.6637 19.6148 16.6637C21.8542 16.6637 22.75 14.6584 22.75 12.1849C22.7498 9.78979 21.9498 7.46337 20.4768 5.57474C19.0039 3.68611 16.9424 2.34347 14.6195 1.75984C12.2966 1.17621 9.84536 1.38504 7.65466 2.35317C5.46397 3.32131 3.65932 4.99331 2.52707 7.10388C1.39483 9.21444 0.999834 11.6427 1.40477 14.0033C1.80971 16.3639 2.99138 18.5217 4.76228 20.1342C6.53319 21.7468 8.79189 22.7218 11.18 22.9045C13.5681 23.0872 15.9488 22.4671 17.9444 21.1427M16.4796 12.1849L16.4797 7.7061" stroke="#4D4C4C" stroke-width="2" stroke-linecap="round" stroke-linejoin="round"/>
</svg>
