<svg width="118" height="117" viewBox="0 0 118 117" fill="none" xmlns="http://www.w3.org/2000/svg">
<path d="M53.8039 9C56.1133 5 61.8868 5 64.1962 9L104.367 78.5773C106.676 82.5773 103.789 87.5773 99.1706 87.5773H18.8296C14.2108 87.5773 11.3241 82.5773 13.6335 78.5773L53.8039 9Z" fill="#FE8934" fill-opacity="0.15"/>
<path fill-rule="evenodd" clip-rule="evenodd" d="M59.0002 32.8216C61.1301 32.8216 62.8567 34.2029 62.8567 35.9068L62.8567 60.588C62.8567 62.2919 61.1301 63.6732 59.0002 63.6732C56.8704 63.6732 55.1438 62.2919 55.1438 60.588L55.1438 35.9068C55.1438 34.2029 56.8704 32.8216 59.0002 32.8216Z" fill="#FE8934"/>
<path fill-rule="evenodd" clip-rule="evenodd" d="M59.0002 75.2425C61.1301 75.2425 62.8567 73.5159 62.8567 71.3861C62.8567 69.2562 61.1301 67.5296 59.0002 67.5296C56.8704 67.5296 55.1438 69.2562 55.1438 71.3861C55.1438 73.5159 56.8704 75.2425 59.0002 75.2425Z" fill="#FE8934"/>
</svg>
