<svg width="36" height="36" viewBox="0 0 36 36" fill="none" xmlns="http://www.w3.org/2000/svg">
<path fill-rule="evenodd" clip-rule="evenodd" d="M25.9367 3.82701C27.5022 3.82701 28.7713 2.55792 28.7713 0.992411C28.7713 0.920417 28.7686 0.849049 28.7633 0.778402C30.7254 1.08878 32.1346 1.67216 33.2312 2.76867C35.5743 5.11181 35.5743 8.88305 35.5743 16.4255V19.5745C35.5743 27.117 35.5743 30.8882 33.2312 33.2314C30.888 35.5745 27.1168 35.5745 19.5743 35.5745H16.4253C8.88282 35.5745 5.11158 35.5745 2.76844 33.2314C0.425293 30.8882 0.425293 27.117 0.425293 19.5745V16.4255C0.425293 8.88305 0.425293 5.11181 2.76844 2.76867C3.86494 1.67216 5.27419 1.08878 7.23629 0.778399C7.23101 0.849056 7.22833 0.920435 7.22833 0.99244C7.22833 2.55795 8.49742 3.82704 10.0629 3.82704C11.6284 3.82704 12.8975 2.55795 12.8975 0.99244C12.8975 0.802549 12.8788 0.617019 12.8432 0.437586C13.5879 0.42934 14.3795 0.42673 15.2218 0.425903C15.1847 0.608953 15.1652 0.798406 15.1652 0.992411C15.1652 2.55792 16.4343 3.82701 17.9998 3.82701C19.5653 3.82701 20.8344 2.55792 20.8344 0.992411C20.8344 0.798406 20.8149 0.608953 20.7778 0.425903C21.6201 0.42673 22.4117 0.42934 23.1564 0.437586C23.1208 0.61701 23.1021 0.802531 23.1021 0.992411C23.1021 2.55792 24.3712 3.82701 25.9367 3.82701Z" fill="#5463D6"/>
</svg>
