<svg width="30" height="30" viewBox="0 0 30 30" fill="none" xmlns="http://www.w3.org/2000/svg">
<path fill-rule="evenodd" clip-rule="evenodd" d="M15.2632 5.14737H14C11.2744 5.14737 9.42441 5.15108 8.0268 5.32085C6.67922 5.48455 6.04336 5.77479 5.60862 6.1461C5.44257 6.28792 5.28792 6.44257 5.1461 6.60862C4.77479 7.04336 4.48455 7.67922 4.32085 9.0268C4.15108 10.4244 4.14737 12.2744 4.14737 15C4.14737 17.7256 4.15108 19.5756 4.32085 20.9732C4.48455 22.3208 4.77479 22.9566 5.1461 23.3914C5.28792 23.5574 5.44257 23.7121 5.60862 23.8539C6.04336 24.2252 6.67922 24.5155 8.0268 24.6791C9.42441 24.8489 11.2744 24.8526 14 24.8526H15.2632C17.9888 24.8526 19.8388 24.8489 21.2364 24.6791C22.5839 24.5155 23.2198 24.2252 23.6545 23.8539C23.8206 23.7121 23.9752 23.5574 24.1171 23.3914C24.4884 22.9566 24.7786 22.3208 24.9423 20.9732C25.1121 19.5756 25.1158 17.7256 25.1158 15C25.1158 12.2744 25.1121 10.4244 24.9423 9.0268C24.7786 7.67922 24.4884 7.04336 24.1171 6.60862C23.9752 6.44257 23.8206 6.28792 23.6545 6.1461C23.2198 5.77479 22.5839 5.48455 21.2364 5.32085C19.8388 5.15108 17.9888 5.14737 15.2632 5.14737ZM3.51323 5.21401C2 6.98577 2 9.65718 2 15C2 20.3428 2 23.0142 3.51323 24.786C3.7281 25.0376 3.96242 25.2719 4.21401 25.4868C5.98577 27 8.65718 27 14 27H15.2632C20.606 27 23.2774 27 25.0491 25.4868C25.3007 25.2719 25.5351 25.0376 25.7499 24.786C27.2632 23.0142 27.2632 20.3428 27.2632 15C27.2632 9.65718 27.2632 6.98577 25.7499 5.21401C25.5351 4.96242 25.3007 4.7281 25.0491 4.51323C23.2774 3 20.606 3 15.2632 3H14C8.65718 3 5.98577 3 4.21401 4.51323C3.96242 4.7281 3.7281 4.96242 3.51323 5.21401Z" fill="white"/>
<path fill-rule="evenodd" clip-rule="evenodd" d="M26 10.5787H3.26316V8.43133H26V10.5787Z" fill="white"/>
<path fill-rule="evenodd" clip-rule="evenodd" d="M5.78947 19.6103C5.78947 19.0173 6.27018 18.5366 6.86316 18.5366H9.76842C10.3614 18.5366 10.8421 19.0173 10.8421 19.6103C10.8421 20.2033 10.3614 20.684 9.76842 20.684H6.86316C6.27018 20.684 5.78947 20.2033 5.78947 19.6103Z" fill="white"/>
<path fill-rule="evenodd" clip-rule="evenodd" d="M12.1053 19.6103C12.1053 19.0173 12.586 18.5366 13.1789 18.5366H21.1368C21.7298 18.5366 22.2105 19.0173 22.2105 19.6103C22.2105 20.2033 21.7298 20.684 21.1368 20.684H13.1789C12.586 20.684 12.1053 20.2033 12.1053 19.6103Z" fill="white"/>
</svg>
