<svg width="36" height="36" viewBox="0 0 36 36" fill="none" xmlns="http://www.w3.org/2000/svg">
<rect width="36" height="36" rx="18" fill="#E53C26"/>
<path d="M25.1999 12.4001L12.4 25.2001C11.9627 25.6374 11.2373 25.6374 10.8 25.2001C10.3627 24.7627 10.3627 24.0374 10.8 23.6001L23.5999 10.8001C24.0373 10.3628 24.7626 10.3628 25.1999 10.8001C25.6373 11.2374 25.6373 11.9628 25.1999 12.4001Z" fill="white"/>
<path d="M25.1999 25.1999C24.7626 25.6372 24.0373 25.6372 23.5999 25.1999L10.8 12.3999C10.3627 11.9626 10.3627 11.2373 10.8 10.7999C11.2373 10.3626 11.9627 10.3626 12.4 10.7999L25.1999 23.5999C25.6373 24.0372 25.6373 24.7626 25.1999 25.1999Z" fill="white"/>
</svg>
