<svg width="51" height="51" viewBox="0 0 51 51" fill="none" xmlns="http://www.w3.org/2000/svg">
<rect x="1" y="1" width="48.8892" height="48.8892" rx="10" fill="#0EAAF4"/>
<path fill-rule="evenodd" clip-rule="evenodd" d="M31.3651 16.3H19.635C17.8837 16.3 16.7756 16.3039 15.956 16.4022C15.1887 16.4943 14.9843 16.6398 14.8994 16.711C14.8205 16.7771 14.7476 16.85 14.6815 16.9289C14.6103 17.0138 14.4647 17.2182 14.3727 17.9856C14.2744 18.8052 14.2705 19.9133 14.2705 21.6645C14.2705 23.4157 14.2744 24.5238 14.3727 25.3434C14.4647 26.1108 14.6103 26.3152 14.6815 26.4001C14.7476 26.479 14.8205 26.5519 14.8994 26.618C14.9843 26.6892 15.1887 26.8347 15.956 26.9268C16.7756 27.0251 17.8837 27.029 19.635 27.029H31.3651C33.1163 27.029 34.2244 27.0251 35.044 26.9268C35.8114 26.8347 36.0157 26.6892 36.1007 26.618C36.1796 26.5519 36.2525 26.479 36.3186 26.4001C36.3898 26.3152 36.5353 26.1108 36.6274 25.3434C36.7257 24.5238 36.7296 23.4157 36.7296 21.6645C36.7296 19.9133 36.7257 18.8052 36.6274 17.9856C36.5353 17.2182 36.3898 17.0138 36.3186 16.9289C36.2525 16.85 36.1796 16.7771 36.1007 16.711C36.0157 16.6398 35.8114 16.4943 35.044 16.4022C34.2244 16.3039 33.1163 16.3 31.3651 16.3ZM12.9189 15.4512C11.9705 16.5826 11.9705 18.2765 11.9705 21.6645C11.9705 25.0525 11.9705 26.7464 12.9189 27.8778C13.0715 28.0597 13.2397 28.228 13.4217 28.3805C14.553 29.329 16.247 29.329 19.635 29.329H31.3651C34.753 29.329 36.447 29.329 37.5784 28.3805C37.7603 28.228 37.9286 28.0597 38.0811 27.8778C39.0296 26.7464 39.0296 25.0525 39.0296 21.6645C39.0296 18.2765 39.0296 16.5826 38.0811 15.4512C37.9286 15.2693 37.7603 15.101 37.5784 14.9485C36.447 14 34.753 14 31.3651 14H19.635C16.247 14 14.553 14 13.4217 14.9485C13.2397 15.101 13.0715 15.2693 12.9189 15.4512Z" fill="white"/>
<path fill-rule="evenodd" clip-rule="evenodd" d="M25.5 23.8766C26.4714 23.8766 27.2589 23.0891 27.2589 22.1177C27.2589 21.1464 26.4714 20.3589 25.5 20.3589C24.5286 20.3589 23.7412 21.1464 23.7412 22.1177C23.7412 23.0891 24.5286 23.8766 25.5 23.8766ZM25.5 26.1766C27.7417 26.1766 29.5589 24.3594 29.5589 22.1177C29.5589 19.8761 27.7417 18.0589 25.5 18.0589C23.2584 18.0589 21.4412 19.8761 21.4412 22.1177C21.4412 24.3594 23.2584 26.1766 25.5 26.1766Z" fill="white"/>
<path d="M34.9707 22.1177C34.9707 22.865 34.365 23.4707 33.6178 23.4707C32.8705 23.4707 32.2648 22.865 32.2648 22.1177C32.2648 21.3705 32.8705 20.7648 33.6178 20.7648C34.365 20.7648 34.9707 21.3705 34.9707 22.1177Z" fill="white"/>
<path d="M18.7352 22.1177C18.7352 22.865 18.1295 23.4707 17.3823 23.4707C16.6351 23.4707 16.0293 22.865 16.0293 22.1177C16.0293 21.3705 16.6351 20.7648 17.3823 20.7648C18.1295 20.7648 18.7352 21.3705 18.7352 22.1177Z" fill="white"/>
<path fill-rule="evenodd" clip-rule="evenodd" d="M13.3234 31.7911C13.3234 31.156 13.8383 30.6411 14.4734 30.6411H36.5266C37.1618 30.6411 37.6766 31.156 37.6766 31.7911C37.6766 32.4263 37.1618 32.9411 36.5266 32.9411H14.4734C13.8383 32.9411 13.3234 32.4263 13.3234 31.7911Z" fill="white"/>
<path fill-rule="evenodd" clip-rule="evenodd" d="M11.9705 35.85C11.9705 35.2149 12.4853 34.7 13.1205 34.7H37.8796C38.5147 34.7 39.0296 35.2149 39.0296 35.85C39.0296 36.4851 38.5147 37 37.8796 37H13.1205C12.4853 37 11.9705 36.4851 11.9705 35.85Z" fill="white"/>
</svg>
