<svg width="29" height="23" viewBox="0 0 29 23" fill="none" xmlns="http://www.w3.org/2000/svg">
<path fill-rule="evenodd" clip-rule="evenodd" d="M20.3651 2.30003H8.63495C6.88372 2.30003 5.77562 2.3039 4.95601 2.40221C4.18866 2.49426 3.9843 2.63981 3.89935 2.71102C3.8205 2.77713 3.74759 2.85004 3.68148 2.9289C3.61027 3.01384 3.46472 3.2182 3.37267 3.98555C3.27436 4.80516 3.27048 5.91327 3.27048 7.6645C3.27048 9.41573 3.27436 10.5238 3.37267 11.3434C3.46472 12.1108 3.61027 12.3152 3.68148 12.4001C3.74759 12.479 3.8205 12.5519 3.89935 12.618C3.9843 12.6892 4.18866 12.8347 4.95601 12.9268C5.77562 13.0251 6.88372 13.029 8.63496 13.029H20.3651C22.1163 13.029 23.2244 13.0251 24.044 12.9268C24.8114 12.8347 25.0157 12.6892 25.1007 12.618C25.1796 12.5519 25.2525 12.479 25.3186 12.4001C25.3898 12.3152 25.5353 12.1108 25.6274 11.3434C25.7257 10.5238 25.7296 9.41573 25.7296 7.6645C25.7296 5.91327 25.7257 4.80516 25.6274 3.98555C25.5353 3.2182 25.3898 3.01384 25.3186 2.9289C25.2525 2.85004 25.1796 2.77713 25.1007 2.71102C25.0157 2.63981 24.8114 2.49426 24.044 2.40221C23.2244 2.3039 22.1163 2.30003 20.3651 2.30003ZM1.91891 1.45124C0.970459 2.58257 0.970459 4.27654 0.970459 7.6645C0.970459 11.0525 0.970459 12.7464 1.91891 13.8778C2.07148 14.0597 2.23972 14.228 2.4217 14.3805C3.55302 15.329 5.247 15.329 8.63496 15.329H20.3651C23.753 15.329 25.447 15.329 26.5784 14.3805C26.7603 14.228 26.9286 14.0597 27.0811 13.8778C28.0296 12.7464 28.0296 11.0525 28.0296 7.6645C28.0296 4.27654 28.0296 2.58257 27.0811 1.45124C26.9286 1.26926 26.7603 1.10102 26.5784 0.948456C25.447 0 23.753 0 20.3651 0H8.63495C5.247 0 3.55302 0 2.4217 0.948456C2.23972 1.10102 2.07148 1.26926 1.91891 1.45124Z" fill="white"/>
<path fill-rule="evenodd" clip-rule="evenodd" d="M14.5 9.87658C15.4714 9.87658 16.2589 9.08912 16.2589 8.11774C16.2589 7.14636 15.4714 6.3589 14.5 6.3589C13.5286 6.3589 12.7412 7.14636 12.7412 8.11774C12.7412 9.08912 13.5286 9.87658 14.5 9.87658ZM14.5 12.1766C16.7417 12.1766 18.5589 10.3594 18.5589 8.11774C18.5589 5.87609 16.7417 4.05887 14.5 4.05887C12.2584 4.05887 10.4412 5.87609 10.4412 8.11774C10.4412 10.3594 12.2584 12.1766 14.5 12.1766Z" fill="white"/>
<path d="M23.9707 8.11774C23.9707 8.86496 23.365 9.4707 22.6178 9.4707C21.8705 9.4707 21.2648 8.86496 21.2648 8.11774C21.2648 7.37052 21.8705 6.76478 22.6178 6.76478C23.365 6.76478 23.9707 7.37052 23.9707 8.11774Z" fill="white"/>
<path d="M7.73524 8.11774C7.73524 8.86496 7.1295 9.4707 6.38228 9.4707C5.63507 9.4707 5.02933 8.86496 5.02933 8.11774C5.02933 7.37052 5.63507 6.76478 6.38228 6.76478C7.1295 6.76478 7.73524 7.37052 7.73524 8.11774Z" fill="white"/>
<path fill-rule="evenodd" clip-rule="evenodd" d="M2.32342 17.7911C2.32342 17.156 2.83829 16.6411 3.47343 16.6411H25.5266C26.1618 16.6411 26.6766 17.156 26.6766 17.7911C26.6766 18.4263 26.1618 18.9411 25.5266 18.9411H3.47343C2.83829 18.9411 2.32342 18.4263 2.32342 17.7911Z" fill="white"/>
<path fill-rule="evenodd" clip-rule="evenodd" d="M0.970459 21.85C0.970459 21.2149 1.48534 20.7 2.12047 20.7H26.8796C27.5147 20.7 28.0296 21.2149 28.0296 21.85C28.0296 22.4851 27.5147 23 26.8796 23H2.12047C1.48534 23 0.970459 22.4851 0.970459 21.85Z" fill="white"/>
</svg>
