<svg width="36" height="36" viewBox="0 0 36 36" fill="none" xmlns="http://www.w3.org/2000/svg">
<circle cx="18" cy="18" r="18" fill="#959595" fill-opacity="0.54"/>
<path d="M13.6336 12.5645C13.3383 12.269 12.8595 12.269 12.5642 12.5645C12.269 12.8599 12.269 13.3386 12.5642 13.6334L16.9306 18L12.5643 22.3666C12.269 22.6615 12.269 23.1407 12.5643 23.4356C12.8596 23.731 13.3383 23.731 13.6336 23.4356L17.9999 19.0696L22.3662 23.4356C22.6615 23.731 23.1403 23.731 23.4355 23.4356C23.7308 23.1407 23.7308 22.6615 23.4355 22.3666L19.0692 18L23.4356 13.6334C23.7309 13.3386 23.7309 12.8599 23.4356 12.5645C23.1403 12.269 22.6615 12.269 22.3662 12.5645L17.9999 16.9305L13.6336 12.5645Z" fill="white"/>
</svg>
