<svg width="20" height="20" viewBox="0 0 20 20" fill="none" xmlns="http://www.w3.org/2000/svg">
<path fill-rule="evenodd" clip-rule="evenodd" d="M13.3333 4.28571C14.1223 4.28571 14.7619 3.64612 14.7619 2.85714C14.7619 2.06816 14.1223 1.42857 13.3333 1.42857C12.5444 1.42857 11.9048 2.06816 11.9048 2.85714C11.9048 3.64612 12.5444 4.28571 13.3333 4.28571ZM13.3333 5.71429C14.9113 5.71429 16.1905 4.4351 16.1905 2.85714C16.1905 1.27919 14.9113 0 13.3333 0C11.7554 0 10.4762 1.27919 10.4762 2.85714C10.4762 4.4351 11.7554 5.71429 13.3333 5.71429Z" fill="white"/>
<path fill-rule="evenodd" clip-rule="evenodd" d="M9.52381 2.71424C9.52381 3.16133 9.16137 3.52376 8.71429 3.52376L0.809524 3.52376C0.362436 3.52376 -3.90839e-08 3.16133 0 2.71424C3.90873e-08 2.26715 0.362436 1.90471 0.809524 1.90471L8.71429 1.90472C9.16137 1.90472 9.52381 2.26715 9.52381 2.71424Z" fill="white"/>
<path fill-rule="evenodd" clip-rule="evenodd" d="M20 2.71424C20 3.16133 19.6376 3.52376 19.1905 3.52376H16.0476C15.6005 3.52376 15.2381 3.16133 15.2381 2.71424C15.2381 2.26715 15.6005 1.90472 16.0476 1.90472H19.1905C19.6376 1.90472 20 2.26715 20 2.71424Z" fill="white"/>
<path fill-rule="evenodd" clip-rule="evenodd" d="M13.3333 17.619C14.1223 17.619 14.7619 16.9795 14.7619 16.1905C14.7619 15.4015 14.1223 14.7619 13.3333 14.7619C12.5444 14.7619 11.9048 15.4015 11.9048 16.1905C11.9048 16.9795 12.5444 17.619 13.3333 17.619ZM13.3333 19.0476C14.9113 19.0476 16.1905 17.7684 16.1905 16.1905C16.1905 14.6125 14.9113 13.3333 13.3333 13.3333C11.7554 13.3333 10.4762 14.6125 10.4762 16.1905C10.4762 17.7684 11.7554 19.0476 13.3333 19.0476Z" fill="white"/>
<path fill-rule="evenodd" clip-rule="evenodd" d="M9.52381 16.0476C9.52381 16.4947 9.16137 16.8571 8.71429 16.8571H0.809524C0.362436 16.8571 -3.90839e-08 16.4947 0 16.0476C3.90873e-08 15.6005 0.362436 15.238 0.809524 15.238L8.71429 15.238C9.16137 15.238 9.52381 15.6005 9.52381 16.0476Z" fill="white"/>
<path fill-rule="evenodd" clip-rule="evenodd" d="M20 16.0476C20 16.4947 19.6376 16.8571 19.1905 16.8571H16.0476C15.6005 16.8571 15.2381 16.4947 15.2381 16.0476C15.2381 15.6005 15.6005 15.238 16.0476 15.238H19.1905C19.6376 15.238 20 15.6005 20 16.0476Z" fill="white"/>
<path fill-rule="evenodd" clip-rule="evenodd" d="M6.66667 10.9524C5.87769 10.9524 5.2381 10.3128 5.2381 9.52381C5.2381 8.73483 5.87769 8.09524 6.66667 8.09524C7.45565 8.09524 8.09524 8.73483 8.09524 9.52381C8.09524 10.3128 7.45565 10.9524 6.66667 10.9524ZM6.66667 12.381C5.08871 12.381 3.80952 11.1018 3.80952 9.52381C3.80952 7.94585 5.08871 6.66667 6.66667 6.66667C8.24462 6.66667 9.52381 7.94585 9.52381 9.52381C9.52381 11.1018 8.24462 12.381 6.66667 12.381Z" fill="white"/>
<path fill-rule="evenodd" clip-rule="evenodd" d="M10.4762 9.38091C10.4762 9.82799 10.8386 10.1904 11.2857 10.1904L19.1905 10.1904C19.6376 10.1904 20 9.82799 20 9.38091C20 8.93382 19.6376 8.57138 19.1905 8.57138L11.2857 8.57138C10.8386 8.57138 10.4762 8.93382 10.4762 9.38091Z" fill="white"/>
<path fill-rule="evenodd" clip-rule="evenodd" d="M0 9.38091C0 9.82799 0.362437 10.1904 0.809524 10.1904H3.95238C4.39947 10.1904 4.7619 9.82799 4.7619 9.38091C4.7619 8.93382 4.39947 8.57138 3.95238 8.57138H0.809524C0.362437 8.57138 0 8.93382 0 9.38091Z" fill="white"/>
</svg>
