<svg width="29" height="29" viewBox="0 0 29 29" fill="none" xmlns="http://www.w3.org/2000/svg">
<path d="M14.5008 16.9659C12.0803 16.9659 10.103 14.9999 10.103 12.5681C10.103 10.1363 12.0803 8.18176 14.5008 8.18176C16.9212 8.18176 18.8985 10.1477 18.8985 12.5795C18.8985 15.0113 16.9212 16.9659 14.5008 16.9659ZM14.5008 9.88631C13.0235 9.88631 11.8076 11.0909 11.8076 12.5795C11.8076 14.0681 13.0121 15.2727 14.5008 15.2727C15.9894 15.2727 17.1939 14.0681 17.1939 12.5795C17.1939 11.0909 15.978 9.88631 14.5008 9.88631Z" fill="white"/>
<path d="M14.5005 26.7275C12.8187 26.7275 11.1255 26.0911 9.8073 24.8298C6.45503 21.6025 2.75049 16.4548 4.14822 10.3298C5.40958 4.77294 10.2619 2.2843 14.5005 2.2843C14.5005 2.2843 14.5005 2.2843 14.5118 2.2843C18.7505 2.2843 23.6028 4.77294 24.8641 10.3411C26.2505 16.4661 22.5459 21.6025 19.1937 24.8298C17.8755 26.0911 16.1823 26.7275 14.5005 26.7275ZM14.5005 3.98885C11.1937 3.98885 6.94367 5.75021 5.81867 10.7048C4.5914 16.057 7.95503 20.6707 11.0005 23.5911C12.9664 25.4888 16.0459 25.4888 18.0118 23.5911C21.0459 20.6707 24.4096 16.057 23.205 10.7048C22.0687 5.75021 17.8073 3.98885 14.5005 3.98885Z" fill="white"/>
</svg>
