<svg width="18" height="22" viewBox="0 0 18 22" fill="none" xmlns="http://www.w3.org/2000/svg">
<path d="M14.3696 7.77814V5.63031C14.3696 4.20621 13.8038 2.84044 12.7969 1.83345C11.7899 0.826463 10.4241 0.260742 9 0.260742C7.5759 0.260742 6.21013 0.826463 5.20314 1.83345C4.19615 2.84044 3.63043 4.20621 3.63043 5.63031V7.77814C2.77597 7.77814 1.95651 8.11757 1.35232 8.72176C0.748124 9.32596 0.408691 10.1454 0.408691 10.9999V18.5173C0.408691 19.3717 0.748124 20.1912 1.35232 20.7954C1.95651 21.3996 2.77597 21.739 3.63043 21.739H14.3696C15.224 21.739 16.0435 21.3996 16.6477 20.7954C17.2519 20.1912 17.5913 19.3717 17.5913 18.5173V10.9999C17.5913 10.1454 17.2519 9.32596 16.6477 8.72176C16.0435 8.11757 15.224 7.77814 14.3696 7.77814ZM5.77826 5.63031C5.77826 4.77585 6.11769 3.95639 6.72188 3.3522C7.32608 2.748 8.14554 2.40857 9 2.40857C9.85446 2.40857 10.6739 2.748 11.2781 3.3522C11.8823 3.95639 12.2217 4.77585 12.2217 5.63031V7.77814H5.77826V5.63031ZM15.4435 18.5173C15.4435 18.8021 15.3303 19.0752 15.1289 19.2766C14.9275 19.478 14.6544 19.5912 14.3696 19.5912H3.63043C3.34561 19.5912 3.07246 19.478 2.87106 19.2766C2.66966 19.0752 2.55652 18.8021 2.55652 18.5173V10.9999C2.55652 10.7151 2.66966 10.4419 2.87106 10.2405C3.07246 10.0391 3.34561 9.92596 3.63043 9.92596H14.3696C14.6544 9.92596 14.9275 10.0391 15.1289 10.2405C15.3303 10.4419 15.4435 10.7151 15.4435 10.9999V18.5173Z" fill="#4D4C4C"/>
</svg>
