<svg width="35" height="35" viewBox="0 0 35 35" fill="none" xmlns="http://www.w3.org/2000/svg">
<rect width="35" height="35" rx="17.5" fill="#F0F0F0"/>
<path d="M17.5007 17.3688C17.6991 17.3688 17.8894 17.29 18.0298 17.1497C18.1701 17.0094 18.2489 16.8191 18.2489 16.6206V9.13824C18.2489 8.93979 18.1701 8.74947 18.0298 8.60915C17.8894 8.46883 17.6991 8.39 17.5007 8.39C17.3022 8.39 17.1119 8.46883 16.9716 8.60915C16.8313 8.74947 16.7524 8.93979 16.7524 9.13824V16.6206C16.7524 16.8191 16.8313 17.0094 16.9716 17.1497C17.1119 17.29 17.3022 17.3688 17.5007 17.3688Z" fill="#4D4C4C"/>
<path d="M20.9348 10.9797C20.7582 10.8884 20.5526 10.871 20.3632 10.9314C20.1737 10.9917 20.016 11.1248 19.9247 11.3014C19.8334 11.4781 19.8161 11.6837 19.8764 11.8731C19.9367 12.0626 20.0699 12.2203 20.2465 12.3116C21.4388 12.9271 22.3896 13.9254 22.9465 15.1462C23.5034 16.367 23.6339 17.7395 23.3172 19.0434C23.0005 20.3472 22.2548 21.5069 21.2 22.3362C20.1451 23.1655 18.8422 23.6163 17.5004 23.6163C16.1586 23.6163 14.8557 23.1655 13.8009 22.3362C12.746 21.5069 12.0004 20.3472 11.6837 19.0434C11.367 17.7395 11.4975 16.367 12.0544 15.1462C12.6112 13.9254 13.5621 12.9271 14.7544 12.3116C14.8419 12.2664 14.9196 12.2044 14.9831 12.1292C15.0465 12.0539 15.0946 11.9669 15.1245 11.8731C15.1544 11.7793 15.1655 11.6806 15.1572 11.5825C15.1489 11.4844 15.1214 11.3889 15.0762 11.3014C15.031 11.214 14.969 11.1363 14.8937 11.0728C14.8185 11.0093 14.7315 10.9612 14.6377 10.9314C14.5439 10.9015 14.4452 10.8904 14.3471 10.8987C14.249 10.907 14.1535 10.9345 14.066 10.9797C12.5761 11.7495 11.3879 12.9975 10.6922 14.5235C9.99653 16.0494 9.83366 17.7649 10.2298 19.3945C10.6259 21.0241 11.5579 22.4734 12.8764 23.5099C14.1949 24.5463 15.8234 25.1097 17.5004 25.1097C19.1775 25.1097 20.806 24.5463 22.1245 23.5099C23.4429 22.4734 24.375 21.0241 24.7711 19.3945C25.1672 17.7649 25.0044 16.0494 24.3087 14.5235C23.613 12.9975 22.4248 11.7495 20.9348 10.9797Z" fill="#4D4C4C"/>
</svg>
