<svg width="18" height="19" viewBox="0 0 18 19" fill="none" xmlns="http://www.w3.org/2000/svg">
<g clip-path="url(#clip0_1578_37059)">
<path d="M6.53204 2.81146C6.34565 2.46924 6.2132 2.11433 6.11644 1.74652C6.07123 1.57412 6.03277 1.39974 5.99886 1.22476C5.95663 1.00772 6.10514 0.833736 6.32602 0.847028C6.74499 0.872223 7.1471 0.97836 7.53513 1.1337C8.1383 1.37514 8.66136 1.72727 9.04563 2.26332C9.05118 2.27105 9.05951 2.27661 9.06466 2.28137C9.14536 2.12683 9.21515 1.96653 9.30775 1.82052C9.56294 1.41759 9.91707 1.14759 10.3933 1.05633C10.5637 1.02379 10.7217 1.13191 10.7586 1.29895C10.7939 1.45945 10.6955 1.63086 10.5303 1.6626C10.1544 1.73481 9.92282 1.97665 9.75686 2.29843C9.63789 2.52936 9.57226 2.77754 9.533 3.04576C9.55798 3.03564 9.57464 3.03088 9.58971 3.02275C10.94 2.2899 12.4743 2.8188 13.084 4.23291C13.4439 5.06773 13.4742 5.9327 13.2741 6.80818C13.0677 7.71144 12.6432 8.49269 11.9326 9.10353C11.9233 9.11166 11.9066 9.11146 11.8935 9.11504C11.8999 9.12555 11.906 9.13607 11.9124 9.14658C11.9502 9.14658 11.9881 9.14658 12.026 9.14658C13.0735 9.14658 14.121 9.14658 15.1685 9.14698C15.636 9.14717 15.9916 9.3898 16.1627 9.82705C16.4393 10.5343 16.7161 11.2414 16.9883 11.9504C17.0182 12.0284 17.0575 12.0583 17.139 12.0726C17.8482 12.1974 18.1556 12.9848 17.7233 13.5619C17.7116 13.5776 17.6999 13.5934 17.6853 13.6129C17.8405 13.8008 17.9268 14.0122 17.9226 14.2584C17.9149 14.7028 17.5726 15.0962 17.1325 15.153C17.0553 15.1629 17.0198 15.193 16.9929 15.2635C16.7222 15.966 16.4482 16.6671 16.1748 17.3684C15.9999 17.8167 15.6454 18.0645 15.1635 18.0762C15.1273 18.077 15.0908 18.0768 15.0545 18.0768C11.0066 18.0768 6.95873 18.0768 2.91066 18.077C2.35091 18.077 2.00809 17.8419 1.80426 17.3188C1.53599 16.6296 1.26692 15.9408 1.00004 15.251C0.979216 15.197 0.955621 15.1657 0.891973 15.1563C0.160322 15.051 -0.16684 14.2465 0.280281 13.6569C0.290195 13.6438 0.300109 13.6305 0.31379 13.6123C0.178365 13.4488 0.0883463 13.2637 0.078234 13.0481C0.054837 12.5563 0.376446 12.1537 0.864214 12.072C0.943724 12.0587 0.980208 12.0284 1.00836 11.9556C1.28278 11.2439 1.56057 10.5335 1.83816 9.82328C2.0067 9.39198 2.3642 9.14717 2.8248 9.14698C3.91197 9.14658 4.99914 9.14678 6.0863 9.14658C6.1216 9.14658 6.15689 9.14658 6.21241 9.14658C6.19119 9.12337 6.18445 9.11404 6.17612 9.1069C5.43932 8.47424 5.01758 7.65986 4.81831 6.72307C4.64699 5.91722 4.67356 5.11891 4.97594 4.34401C5.21566 3.7296 5.59774 3.23423 6.20507 2.93942C6.25841 2.91343 6.31432 2.8928 6.36965 2.87118C6.421 2.85114 6.47315 2.83289 6.53204 2.81146ZM5.34057 5.81426C5.35009 6.50048 5.52517 7.18472 5.89754 7.81302C6.19516 8.31494 6.57903 8.73314 7.1239 8.97101C7.72806 9.23466 8.29018 9.16662 8.78885 8.71786C8.98297 8.54328 9.12177 8.5417 9.3139 8.71747C9.72414 9.09282 10.2004 9.21344 10.7366 9.06663C11.2594 8.92339 11.6524 8.59109 11.9734 8.16972C12.4818 7.50214 12.731 6.73954 12.7665 5.90552C12.7891 5.37285 12.7082 4.85664 12.4693 4.37476C12.2282 3.88871 11.8761 3.52447 11.327 3.40008C10.5442 3.22272 9.86968 3.39532 9.36367 4.04881C9.24212 4.20573 9.10233 4.2587 8.91873 4.23906C8.20551 4.16229 7.57181 3.90022 7.03487 3.41952C6.97995 3.37032 6.93058 3.36496 6.86515 3.37707C6.35933 3.4709 5.99946 3.7663 5.7415 4.1972C5.45181 4.68127 5.34513 5.21394 5.34057 5.81426ZM16.3481 12.0561C16.3481 12.0377 16.35 12.0305 16.3479 12.025C16.0867 11.3542 15.8292 10.6821 15.5593 10.0147C15.5258 9.9318 15.4384 9.85522 15.3569 9.81197C15.2839 9.77309 15.1846 9.77468 15.0969 9.77468C12.3244 9.77309 9.55183 9.77329 6.77929 9.77329C5.47065 9.77329 4.162 9.77309 2.85355 9.77348C2.61185 9.77348 2.49784 9.85304 2.4102 10.0774C2.16671 10.7019 1.92323 11.3265 1.67994 11.951C1.66744 11.9831 1.65614 12.0157 1.64127 12.0563C1.68588 12.0563 1.71543 12.0563 1.74497 12.0563C3.31455 12.0563 4.88433 12.0563 6.45391 12.0563C6.4672 12.0563 6.48048 12.0547 6.49357 12.0565C6.55067 12.0643 6.57486 12.0418 6.58359 11.9829C6.60381 11.8458 6.6288 11.7092 6.65794 11.5735C6.70275 11.365 6.86852 11.2257 7.08147 11.2255C8.36037 11.2237 9.63928 11.2237 10.918 11.2255C11.1313 11.2257 11.2969 11.3651 11.3415 11.5735C11.3679 11.6961 11.3939 11.8195 11.4083 11.9438C11.4188 12.0343 11.4535 12.0589 11.5455 12.0587C13.1151 12.0553 14.6849 12.0563 16.2545 12.0563C16.2842 12.0561 16.3138 12.0561 16.3481 12.0561ZM6.4557 12.6785C6.41247 12.6785 6.38055 12.6785 6.34863 12.6785C4.5885 12.6785 2.82817 12.6785 1.06805 12.6785C1.04167 12.6785 1.01511 12.6773 0.988932 12.6799C0.826343 12.6965 0.705789 12.8229 0.700832 12.981C0.696073 13.1383 0.809093 13.2711 0.97188 13.2955C1.01411 13.3018 1.05734 13.3018 1.10017 13.3018C2.81092 13.3022 4.52148 13.3022 6.23224 13.3022C6.25207 13.3022 6.27447 13.308 6.29113 13.3006C6.31432 13.2905 6.34803 13.2734 6.3518 13.2542C6.38868 13.0671 6.4204 12.879 6.4557 12.6785ZM11.5441 12.6828C11.5753 12.858 11.6112 13.0251 11.6328 13.1941C11.6441 13.283 11.6792 13.3042 11.7648 13.304C13.4788 13.3014 15.1929 13.3022 16.9068 13.3018C16.9496 13.3018 16.9929 13.3008 17.0349 13.2939C17.1832 13.2695 17.2843 13.1594 17.2966 13.0128C17.3131 12.8191 17.1654 12.6787 16.9433 12.6785C15.1764 12.6783 13.4096 12.6783 11.6429 12.6785C11.6139 12.6787 11.585 12.6811 11.5441 12.6828ZM8.88324 3.60005C8.83942 3.11599 8.65343 2.70632 8.3227 2.36489C7.90929 1.93816 7.3894 1.70724 6.8241 1.5636C6.79079 1.55507 6.75669 1.54952 6.71802 1.54138C6.94862 2.60038 7.51927 3.38421 8.88324 3.60005Z" fill="white"/>
<path d="M8.23333 12.9449C8.1911 13.2671 8.14966 13.5841 8.10822 13.9013C8.08859 14.0519 8.07015 14.2028 8.04873 14.3532C8.02414 14.5258 7.88218 14.6439 7.71959 14.6304C7.54133 14.6155 7.41285 14.4766 7.43208 14.2939C7.46857 13.9491 7.51734 13.6057 7.56136 13.2619C7.58396 13.0851 7.60895 12.9084 7.63056 12.7314C7.66149 12.4783 7.83538 12.3168 8.08839 12.3162C8.69611 12.3148 9.30384 12.3146 9.91177 12.3162C10.1656 12.3168 10.3373 12.4777 10.3694 12.731C10.4315 13.219 10.4957 13.7069 10.5609 14.1945C10.5925 14.4306 10.5128 14.5814 10.3293 14.6216C10.1408 14.6631 9.9768 14.5445 9.95003 14.3435C9.89055 13.8983 9.83285 13.4527 9.77416 13.0076C9.77158 12.9883 9.76722 12.9695 9.76286 12.9449C9.25328 12.9449 8.74668 12.9449 8.23333 12.9449Z" fill="white"/>
<path d="M12.1108 5.52368C12.1108 5.59292 12.1144 5.66256 12.1102 5.73159C12.0989 5.91947 11.9558 6.05417 11.7823 6.04386C11.601 6.03314 11.473 5.88277 11.4866 5.69192C11.5073 5.40426 11.4823 5.12314 11.3528 4.86166C11.2239 4.60118 11.0359 4.41311 10.7288 4.36946C10.5549 4.34467 10.4492 4.17981 10.4792 4.01276C10.5097 3.84255 10.6578 3.73006 10.8321 3.75506C11.3338 3.82747 11.6764 4.1193 11.9048 4.55654C12.0624 4.85829 12.1176 5.18543 12.1108 5.52368Z" fill="white"/>
</g>
<defs>
<clipPath id="clip0_1578_37059">
<rect width="17.8462" height="17.2308" fill="white" transform="translate(0.0771484 0.846191)"/>
</clipPath>
</defs>
</svg>
