<svg width="24" height="24" viewBox="0 0 24 24" fill="none" xmlns="http://www.w3.org/2000/svg">
<path fill-rule="evenodd" clip-rule="evenodd" d="M13.7911 7.84403H10.2086C9.00101 7.84403 8.20242 7.84602 7.60257 7.91692C7.0296 7.98465 6.79876 8.10044 6.65539 8.21809C6.57195 8.28657 6.49544 8.36309 6.42696 8.44653C6.3093 8.58989 6.19351 8.82074 6.12579 9.39371C6.05488 9.99356 6.05289 10.7922 6.05289 11.9997C6.05289 13.2073 6.05488 14.0059 6.12579 14.6057C6.19351 15.1787 6.3093 15.4096 6.42696 15.5529C6.49544 15.6364 6.57195 15.7129 6.65539 15.7814C6.79876 15.899 7.0296 16.0148 7.60257 16.0825C8.20242 16.1534 9.00101 16.1554 10.2086 16.1554H13.7911C14.9987 16.1554 15.7973 16.1534 16.3971 16.0825C16.9701 16.0148 17.2009 15.899 17.3443 15.7814C17.4277 15.7129 17.5042 15.6364 17.5727 15.5529C17.6904 15.4096 17.8062 15.1787 17.8739 14.6057C17.9448 14.0059 17.9468 13.2073 17.9468 11.9997C17.9468 10.7922 17.9448 9.99356 17.8739 9.39371C17.8062 8.82074 17.6904 8.58989 17.5727 8.44653C17.5042 8.36309 17.4277 8.28657 17.3443 8.21809C17.2009 8.10044 16.9701 7.98465 16.3971 7.91692C15.7973 7.84602 14.9987 7.84403 13.7911 7.84403ZM5.48539 7.67381C4.83484 8.46651 4.83484 9.64425 4.83484 11.9997C4.83484 14.3552 4.83484 15.5329 5.48539 16.3256C5.60449 16.4708 5.73755 16.6038 5.88267 16.7229C6.67537 17.3735 7.85311 17.3735 10.2086 17.3735H13.7911C16.1466 17.3735 17.3243 17.3735 18.117 16.7229C18.2621 16.6038 18.3952 16.4708 18.5143 16.3256C19.1648 15.5329 19.1648 14.3552 19.1648 11.9997C19.1648 9.64425 19.1648 8.46651 18.5143 7.67381C18.3952 7.52869 18.2621 7.39562 18.117 7.27653C17.3243 6.62598 16.1466 6.62598 13.7911 6.62598H10.2086C7.85311 6.62598 6.67537 6.62598 5.88267 7.27653C5.73755 7.39562 5.60449 7.52869 5.48539 7.67381Z" fill="#4D4C4C"/>
<path fill-rule="evenodd" clip-rule="evenodd" d="M7.70084 14.6148C7.70084 14.2785 7.97351 14.0058 8.30986 14.0058H11.3908C11.7272 14.0058 11.9998 14.2785 11.9998 14.6148C11.9998 14.9512 11.7272 15.2238 11.3908 15.2238H8.30986C7.97351 15.2238 7.70084 14.9512 7.70084 14.6148Z" fill="#4D4C4C"/>
<path fill-rule="evenodd" clip-rule="evenodd" d="M5.33573 9.28903C5.44768 8.97185 5.79555 8.80547 6.11273 8.91742L11.726 10.8986C11.9035 10.9612 12.0971 10.9612 12.2745 10.8986L17.8878 8.91742C18.205 8.80547 18.5529 8.97185 18.6648 9.28903C18.7768 9.60621 18.6104 9.95408 18.2932 10.066L12.6799 12.0472C12.2401 12.2024 11.7604 12.2024 11.3207 12.0472L5.70734 10.066C5.39016 9.95408 5.22378 9.60621 5.33573 9.28903Z" fill="#4D4C4C"/>
</svg>
