<svg width="19" height="18" viewBox="0 0 19 18" fill="none" xmlns="http://www.w3.org/2000/svg">
<path d="M9.53555 10.1095C9.04592 8.80013 7.79472 7.86664 6.33209 7.86661C4.86947 7.86664 3.61826 8.80017 3.12867 10.1095C2.529 10.1513 2.053 10.6841 2.053 11.3335C2.053 11.9829 2.529 12.5157 3.12867 12.5574C3.6183 13.8669 4.86944 14.8004 6.33209 14.8004C7.79481 14.8004 9.04599 13.8669 9.53562 12.5574C10.1353 12.5157 10.6112 11.9829 10.6112 11.3335C10.6112 10.6841 10.1352 10.1513 9.53555 10.1095ZM2.93608 11.7779C2.81251 11.6804 2.73123 11.5176 2.73123 11.3335C2.73123 11.1494 2.81247 10.9866 2.93608 10.8891C2.91765 11.0347 2.90804 11.183 2.90804 11.3335C2.90804 11.4841 2.91761 11.6324 2.93608 11.7779ZM6.33206 14.1136C4.81806 14.1136 3.58632 12.8665 3.58632 11.3335C3.58632 10.2615 4.18911 9.3298 5.06923 8.86613C5.04372 8.96903 5.03002 9.07663 5.03002 9.18739C5.03002 9.80771 5.52851 10.3124 6.1412 10.3124C6.14116 10.3124 6.14123 10.3124 6.1412 10.3124C6.38919 10.3124 6.62196 10.2304 6.7965 10.0815C6.99094 9.91564 7.09802 9.68249 7.09802 9.42505C7.09802 9.0395 6.89281 8.7441 6.56243 8.65408C6.38163 8.60478 6.19547 8.71327 6.14681 8.8964C6.09812 9.07953 6.20527 9.26795 6.38614 9.31725C6.41389 9.32484 6.4197 9.38005 6.4197 9.42508C6.4197 9.47878 6.39997 9.52171 6.35936 9.55635C6.30775 9.60042 6.22825 9.62563 6.14123 9.62563C5.90252 9.62563 5.70828 9.42902 5.70828 9.18736C5.70828 8.83793 5.98906 8.55364 6.33417 8.55364C6.33524 8.55364 6.33631 8.55347 6.33739 8.55347C7.84892 8.55646 9.0778 9.80235 9.07783 11.3335C9.07786 12.8664 7.84613 14.1136 6.33206 14.1136ZM9.72811 11.7779C9.74654 11.6323 9.75615 11.484 9.75615 11.3335C9.75615 11.183 9.74658 11.0347 9.72811 10.8892C9.85165 10.9867 9.93293 11.1494 9.93293 11.3335C9.93293 11.5176 9.85165 11.6803 9.72811 11.7779Z" fill="white"/>
<path d="M8.06943 10.7069C7.89103 10.484 7.62638 10.3562 7.34333 10.3562C7.06031 10.3562 6.79567 10.484 6.61726 10.7069C6.4993 10.8542 6.52167 11.0704 6.66715 11.1899C6.73 11.2414 6.8055 11.2665 6.88052 11.2665C6.97923 11.2665 7.07716 11.223 7.14416 11.1393C7.1932 11.0781 7.26578 11.0429 7.34333 11.0429C7.42091 11.0429 7.49349 11.078 7.54251 11.1393C7.66047 11.2866 7.87402 11.3092 8.01951 11.1899C8.165 11.0704 8.18733 10.8542 8.06943 10.7069Z" fill="white"/>
<path d="M6.04706 10.7069C5.86866 10.484 5.60401 10.3562 5.32096 10.3562C5.03791 10.3562 4.77326 10.484 4.59486 10.7069C4.4769 10.8542 4.49926 11.0704 4.64478 11.1899C4.79027 11.3092 5.00383 11.2866 5.12182 11.1393C5.17083 11.0781 5.24345 11.0429 5.32099 11.0429C5.39851 11.043 5.47109 11.0781 5.52014 11.1393C5.58717 11.223 5.68503 11.2665 5.78378 11.2665C5.85879 11.2665 5.93433 11.2414 5.99717 11.1899C6.14269 11.0704 6.16502 10.8542 6.04706 10.7069Z" fill="white"/>
<path d="M7.13484 11.8932C6.94751 11.8932 6.7957 12.047 6.7957 12.2366C6.7957 12.4954 6.58779 12.7059 6.33223 12.7059C6.07661 12.7059 5.8687 12.4953 5.8687 12.2366C5.8687 12.047 5.71685 11.8932 5.52956 11.8932C5.34223 11.8932 5.19041 12.047 5.19041 12.2366C5.19041 12.8741 5.70267 13.3927 6.33226 13.3927C6.96183 13.3927 7.47401 12.8741 7.47401 12.2366C7.47398 12.047 7.32213 11.8932 7.13484 11.8932Z" fill="white"/>
<path fill-rule="evenodd" clip-rule="evenodd" d="M9.75566 4.88511H2.77335C2.00845 4.88511 1.38838 5.51294 1.38838 6.2874V14.9131C1.38838 15.3778 1.76043 15.7545 2.21936 15.7545H10.8636C11.0166 15.7545 11.1406 15.6289 11.1406 15.474V6.2874C11.1406 5.51294 10.5206 4.88511 9.75566 4.88511ZM2.77335 3.48283C1.24356 3.48283 0.00341797 4.73848 0.00341797 6.2874V14.9131C0.00341797 16.1522 0.99553 17.1567 2.21936 17.1567H10.8636C11.7815 17.1567 12.5256 16.4033 12.5256 15.474V6.2874C12.5256 4.73848 11.2854 3.48283 9.75566 3.48283H2.77335Z" fill="white"/>
<path fill-rule="evenodd" clip-rule="evenodd" d="M9.10659 2.24652H3.55767C3.40469 2.24652 3.28067 2.37209 3.28067 2.52698V3.00897H9.38358V2.52698C9.38358 2.37209 9.25957 2.24652 9.10659 2.24652ZM3.55767 0.844238C2.63979 0.844238 1.89571 1.59763 1.89571 2.52698V4.41125H10.7685V2.52698C10.7685 1.59763 10.0245 0.844238 9.10659 0.844238H3.55767Z" fill="white"/>
<path fill-rule="evenodd" clip-rule="evenodd" d="M15.5125 0.990492C14.9132 0.990492 14.4273 1.48242 14.4273 2.08924V6.02235C14.4273 6.62917 14.9132 7.1211 15.5125 7.1211C16.1119 7.1211 16.5977 6.62917 16.5977 6.02235V2.08924C16.5977 1.48242 16.1119 0.990492 15.5125 0.990492Z" fill="white"/>
<path fill-rule="evenodd" clip-rule="evenodd" d="M15.5447 6.18058C15.8506 6.18058 16.0986 6.43171 16.0986 6.74149V11.4391C16.0986 11.7489 15.8506 12.0001 15.5447 12.0001C15.2387 12.0001 14.9907 11.7489 14.9907 11.4391V6.74149C14.9907 6.43171 15.2387 6.18058 15.5447 6.18058Z" fill="white"/>
<path fill-rule="evenodd" clip-rule="evenodd" d="M16.1144 14.8512C16.4229 14.4744 16.6185 13.9841 16.6185 13.519C16.6185 13.1076 16.4701 12.8886 16.2996 12.7463C16.092 12.573 15.7903 12.4722 15.5127 12.4722C15.2331 12.4722 14.9188 12.5744 14.7005 12.7536C14.5204 12.9014 14.3741 13.12 14.3741 13.519C14.3741 13.9745 14.5706 14.4621 14.8872 14.8423C15.221 15.243 15.4903 15.3055 15.5114 15.3104C15.5124 15.3106 15.5129 15.3107 15.5127 15.3107C15.512 15.3107 15.513 15.3105 15.5155 15.3098C15.5457 15.302 15.7992 15.2361 16.1144 14.8512ZM15.5127 16.713C16.6392 16.713 18.0034 15.1998 18.0034 13.519C18.0034 11.8383 16.6392 11.0699 15.5127 11.0699C14.3862 11.0699 12.9891 11.8383 12.9891 13.519C12.9891 15.1998 14.3862 16.713 15.5127 16.713Z" fill="white"/>
</svg>
