<svg width="51" height="51" viewBox="0 0 51 51" fill="none" xmlns="http://www.w3.org/2000/svg">
<rect x="1" y="1" width="48.8892" height="48.8892" rx="10" fill="#EA706F"/>
<mask id="path-2-inside-1_1027_30293" fill="white">
<path fill-rule="evenodd" clip-rule="evenodd" d="M25.4446 36.4446C31.5197 36.4446 36.4446 31.5197 36.4446 25.4446C36.4446 19.3694 31.5197 14.4446 25.4446 14.4446C19.3694 14.4446 14.4446 19.3694 14.4446 25.4446C14.4446 28.3812 15.5954 31.0491 17.4706 33.0219C17.5444 33.0995 17.5462 33.2214 17.473 33.2998L14.9312 36.0236C14.8124 36.151 14.9018 36.3588 15.076 36.36L24.8691 36.4298C25.0597 36.4396 25.2516 36.4446 25.4446 36.4446Z"/>
</mask>
<path d="M24.8691 36.4298L24.9721 34.4324L24.9277 34.4302L24.8834 34.4298L24.8691 36.4298ZM14.9312 36.0236L16.3934 37.3881L14.9312 36.0236ZM15.076 36.36L15.0618 38.36L15.076 36.36ZM17.4706 33.0219L16.021 34.3998L17.4706 33.0219ZM17.473 33.2998L18.9353 34.6643L17.473 33.2998ZM34.4446 25.4446C34.4446 30.4151 30.4151 34.4446 25.4446 34.4446V38.4446C32.6243 38.4446 38.4446 32.6243 38.4446 25.4446H34.4446ZM25.4446 16.4446C30.4151 16.4446 34.4446 20.474 34.4446 25.4446H38.4446C38.4446 18.2649 32.6243 12.4446 25.4446 12.4446V16.4446ZM16.4446 25.4446C16.4446 20.474 20.474 16.4446 25.4446 16.4446V12.4446C18.2649 12.4446 12.4446 18.2649 12.4446 25.4446H16.4446ZM18.9202 31.644C17.3842 30.0281 16.4446 27.8482 16.4446 25.4446H12.4446C12.4446 28.9143 13.8065 32.0702 16.021 34.3998L18.9202 31.644ZM16.3934 37.3881L18.9353 34.6643L16.0108 31.9353L13.469 34.6591L16.3934 37.3881ZM24.8834 34.4298L15.0903 34.3601L15.0618 38.36L24.8549 38.4297L24.8834 34.4298ZM25.4446 34.4446C25.2859 34.4446 25.1284 34.4405 24.9721 34.4324L24.7662 38.4271C24.991 38.4387 25.2172 38.4446 25.4446 38.4446V34.4446ZM13.469 34.6591C12.1617 36.06 13.1458 38.3464 15.0618 38.36L15.0903 34.3601C16.6579 34.3713 17.463 36.2419 16.3934 37.3881L13.469 34.6591ZM16.021 34.3998C15.381 33.7266 15.3471 32.6466 16.0108 31.9353L18.9353 34.6643C19.7452 33.7963 19.7077 32.4725 18.9202 31.644L16.021 34.3998Z" fill="white" mask="url(#path-2-inside-1_1027_30293)"/>
<circle cx="21.0446" cy="25.4446" r="1.1" fill="white"/>
<circle cx="25.4445" cy="25.4446" r="1.1" fill="white"/>
<circle cx="29.8446" cy="25.4446" r="1.1" fill="white"/>
</svg>
