<svg width="35" height="35" viewBox="0 0 35 35" fill="none" xmlns="http://www.w3.org/2000/svg">
<rect width="35" height="35" rx="17.5" fill="#F0F0F0"/>
<path fill-rule="evenodd" clip-rule="evenodd" d="M21.6512 15.0794C21.9921 15.3427 22.0543 15.8318 21.7902 16.1717L19.249 19.4417C19.1216 19.6056 18.9338 19.7121 18.7274 19.7375C18.521 19.763 18.3129 19.7052 18.1494 19.5771L15.8076 17.7428L13.6919 20.4846C13.4289 20.8254 12.9386 20.8891 12.5968 20.6269C12.2551 20.3647 12.1912 19.8759 12.4541 19.5351L15.0509 16.1699C15.178 16.0052 15.3659 15.8979 15.5727 15.8721C15.7796 15.8463 15.9882 15.904 16.1521 16.0324L18.496 17.8684L20.5557 15.2179C20.8199 14.878 21.3103 14.816 21.6512 15.0794Z" fill="#4D4C4C"/>
<path fill-rule="evenodd" clip-rule="evenodd" d="M24.135 9.97219C23.6453 9.97219 23.2483 10.368 23.2483 10.8563C23.2483 11.3446 23.6453 11.7404 24.135 11.7404C24.6247 11.7404 25.0217 11.3446 25.0217 10.8563C25.0217 10.368 24.6247 9.97219 24.135 9.97219ZM21.6866 10.8563C21.6866 9.50803 22.7828 8.41504 24.135 8.41504C25.4872 8.41504 26.5834 9.50803 26.5834 10.8563C26.5834 12.2046 25.4872 13.2976 24.135 13.2976C22.7828 13.2976 21.6866 12.2046 21.6866 10.8563Z" fill="#4D4C4C"/>
<path fill-rule="evenodd" clip-rule="evenodd" d="M9.76146 10.6409C10.6561 9.67864 11.9301 9.14349 13.4303 9.14349H19.7358C20.167 9.14349 20.5166 9.49207 20.5166 9.92207C20.5166 10.3521 20.167 10.7006 19.7358 10.7006H13.4303C12.3177 10.7006 11.4753 11.088 10.9067 11.6995C10.332 12.3177 9.97832 13.2294 9.97832 14.3722V21.3641C9.97832 22.5109 10.3263 23.4196 10.8956 24.0337C11.458 24.6404 12.2987 25.0278 13.4303 25.0278H20.8953C22.0089 25.0278 22.8513 24.6417 23.4195 24.0322C23.9936 23.4161 24.3472 22.5069 24.3472 21.3641V15.2749C24.3472 14.8449 24.6968 14.4963 25.1281 14.4963C25.5593 14.4963 25.9089 14.8449 25.9089 15.2749V21.3641C25.9089 22.8266 25.4524 24.1384 24.5634 25.0922C23.6683 26.0525 22.3944 26.5849 20.8953 26.5849H13.4303C11.9173 26.5849 10.6416 26.0538 9.74877 25.0907C8.86279 24.1349 8.41663 22.8226 8.41663 21.3641V14.3722C8.41663 12.9099 8.87301 11.5965 9.76146 10.6409Z" fill="#4D4C4C"/>
</svg>
