<svg width="35" height="36" viewBox="0 0 35 36" fill="none" xmlns="http://www.w3.org/2000/svg">
<rect y="0.438477" width="35" height="35" rx="17.5" fill="#F0F0F0"/>
<path fill-rule="evenodd" clip-rule="evenodd" d="M20.0581 11.1367C18.5781 10.4773 16.9246 10.3139 15.3441 10.671C13.7637 11.0281 12.341 11.8865 11.2882 13.1182C10.2355 14.3499 9.60914 15.8888 9.50253 17.5056C9.39592 19.1224 9.81479 20.7303 10.6967 22.0896C11.5786 23.4488 12.8762 24.4866 14.3961 25.0481C15.916 25.6097 17.5766 25.6648 19.1304 25.2054C20.6842 24.746 22.0479 23.7966 23.018 22.4989C23.9882 21.2012 24.5128 19.6246 24.5138 18.0043V17.2451C24.5138 16.8347 24.8465 16.502 25.2569 16.502C25.6673 16.502 26 16.8347 26 17.2451V18.0047C25.9989 19.9455 25.3704 21.8344 24.2084 23.3888C23.0463 24.9432 21.413 26.0804 19.5518 26.6307C17.6907 27.1809 15.7015 27.1149 13.881 26.4423C12.0605 25.7697 10.5062 24.5266 9.44986 22.8985C8.39354 21.2704 7.89181 19.3444 8.01951 17.4078C8.14721 15.4713 8.89749 13.6278 10.1585 12.1525C11.4194 10.6772 13.1235 9.649 15.0166 9.22128C16.9096 8.79357 18.8902 8.98925 20.663 9.77915C21.0379 9.94619 21.2064 10.3855 21.0393 10.7604C20.8723 11.1353 20.433 11.3038 20.0581 11.1367Z" fill="#4D4C4C"/>
<path fill-rule="evenodd" clip-rule="evenodd" d="M25.7812 10.8732C26.0715 11.1633 26.0718 11.6338 25.7817 11.9241L17.5248 20.1893C17.3855 20.3288 17.1965 20.4071 16.9993 20.4072C16.8021 20.4072 16.6131 20.3289 16.4736 20.1895L13.9966 17.7125C13.7064 17.4223 13.7064 16.9518 13.9966 16.6615C14.2868 16.3713 14.7573 16.3713 15.0475 16.6615L16.9989 18.6129L24.7303 10.8737C25.0203 10.5834 25.4908 10.5832 25.7812 10.8732Z" fill="#4D4C4C"/>
</svg>
