<svg width="35" height="35" viewBox="0 0 35 35" fill="none" xmlns="http://www.w3.org/2000/svg">
<rect width="35" height="35" rx="17.5" fill="#F0F0F0"/>
<g clip-path="url(#clip0_1023_29962)">
<path d="M23.8587 11.1413C22.1565 9.43913 19.9065 8.5 17.5 8.5C15.0935 8.5 12.8435 9.43913 11.1413 11.1413C9.43913 12.8435 8.5 15.0935 8.5 17.5C8.5 19.9065 9.43913 22.1565 11.1413 23.8587C12.8435 25.5609 15.0935 26.5 17.5 26.5C19.9065 26.5 22.1565 25.5609 23.8587 23.8587C25.5609 22.1565 26.5 19.9065 26.5 17.5C26.5 15.0935 25.5609 12.8435 23.8587 11.1413ZM22.0978 16.4043L24.7783 15.9935C24.8761 16.4826 24.9348 16.9913 24.9348 17.5C24.9348 18.0087 24.8761 18.5174 24.7783 19.0065L22.0978 18.5957C22.2543 17.8717 22.2543 17.1283 22.0978 16.4043ZM24.4457 14.8391L21.6674 15.2696C21.4522 14.8587 21.1783 14.487 20.8457 14.1543C20.513 13.8217 20.1217 13.5283 19.7304 13.3326L20.1609 10.5543C21.1196 10.9261 22.0196 11.4935 22.763 12.237C23.5065 13 24.0739 13.8804 24.4457 14.8391ZM17.5 20.6696C16.6587 20.6696 15.8565 20.337 15.2696 19.75C14.663 19.1435 14.35 18.3609 14.35 17.5196C14.35 16.6783 14.6826 15.8761 15.2696 15.2891C15.8957 14.663 16.6978 14.3696 17.5 14.3696C18.3022 14.3696 19.1239 14.6826 19.7304 15.2891C20.337 15.8957 20.65 16.6783 20.65 17.5196C20.65 18.3609 20.3174 19.163 19.7304 19.75C19.1435 20.337 18.3413 20.6696 17.5 20.6696ZM17.5 10.0652C18.0087 10.0652 18.5174 10.1239 19.0065 10.2217L18.5957 12.9022C17.8717 12.7261 17.1283 12.7261 16.4043 12.9022L15.9935 10.2217C16.4826 10.1239 16.9913 10.0652 17.5 10.0652ZM12.237 12.237C12.9804 11.4935 13.8804 10.9065 14.8391 10.5543L15.2696 13.3326C14.8587 13.5478 14.487 13.8217 14.1543 14.1543C13.8217 14.487 13.5478 14.8783 13.313 15.2696L10.5348 14.8391C10.9261 13.8804 11.4935 13 12.237 12.237ZM10.0652 17.5C10.0652 16.9913 10.1239 16.4826 10.2217 15.9935L12.9022 16.4043C12.8239 16.7565 12.7652 17.1283 12.7652 17.5C12.7652 17.8717 12.8043 18.2435 12.9022 18.5957L10.2217 19.0065C10.1239 18.5174 10.0652 18.0087 10.0652 17.5ZM10.5543 20.1609L13.3326 19.7304C13.5478 20.1413 13.8217 20.513 14.1739 20.8457C14.5065 21.1783 14.8978 21.4522 15.2891 21.687L14.8587 24.4652C13.9 24.0935 13 23.5261 12.2565 22.7826C11.4935 22 10.9261 21.1196 10.5543 20.1609ZM17.5 24.9348C16.9913 24.9348 16.4826 24.8761 15.9935 24.7783L16.4043 22.0978C16.7565 22.1761 17.1283 22.2348 17.5 22.2348C17.8717 22.2348 18.2435 22.1957 18.5957 22.0978L19.0065 24.7783C18.5174 24.8761 18.0087 24.9348 17.5 24.9348ZM22.763 22.763C22.0196 23.5065 21.1196 24.0935 20.1609 24.4457L19.7304 21.6674C20.1413 21.4522 20.513 21.1783 20.8457 20.8261C21.1783 20.4935 21.4717 20.1022 21.6674 19.7109L24.4457 20.1413C24.0739 21.1196 23.5065 22 22.763 22.763Z" fill="#4D4C4C"/>
</g>
<defs>
<clipPath id="clip0_1023_29962">
<rect width="18" height="18" fill="white" transform="translate(8.5 8.5)"/>
</clipPath>
</defs>
</svg>
