<svg width="35" height="35" viewBox="0 0 35 35" fill="none" xmlns="http://www.w3.org/2000/svg">
<rect width="35" height="35" rx="17.5" fill="#F0F0F0"/>
<path d="M16.3886 9.00012L16.5139 9.01388L23.5973 10.4309C23.887 10.4889 24.1056 10.7187 24.1558 11.0015L24.1667 11.1257V23.8744C24.1667 24.1699 23.9842 24.4295 23.7168 24.5342L23.5973 24.5692L16.5139 25.9862C16.3058 26.0279 16.09 25.9739 15.9259 25.8394C15.7946 25.7317 15.7075 25.5815 15.6779 25.417L15.6667 25.2915V9.70863L15.6779 9.58306C15.7075 9.4186 15.7946 9.26837 15.9259 9.16071C16.0572 9.05305 16.2216 8.99704 16.3886 9.00012ZM13.5415 10.4171C13.9328 10.4171 14.25 10.7344 14.25 11.1257C14.25 11.517 13.9328 11.8342 13.5415 11.8342H11.4167V23.1659H13.5415C13.9328 23.1659 14.25 23.4831 14.25 23.8744C14.25 24.2657 13.9328 24.583 13.5415 24.583H10.7083C10.3606 24.583 10.0714 24.3323 10.0114 24.0018L10 23.8744V11.1257C10 10.7778 10.2506 10.4885 10.581 10.4286L10.7083 10.4171H13.5415ZM17.0833 10.5729V24.4272L22.75 23.2936V11.7065L17.0833 10.5729ZM19.2083 16.7915C19.5995 16.7915 19.9167 17.1087 19.9167 17.5C19.9167 17.8913 19.5995 18.2085 19.2083 18.2085C18.8171 18.2085 18.5 17.8913 18.5 17.5C18.5 17.1087 18.8171 16.7915 19.2083 16.7915Z" fill="#4D4C4C"/>
</svg>
