<svg width="35" height="35" viewBox="0 0 35 35" fill="none" xmlns="http://www.w3.org/2000/svg">
<rect width="35" height="35" rx="17.5" fill="#F0F0F0"/>
<path fill-rule="evenodd" clip-rule="evenodd" d="M17.95 10.48H17.05C15.108 10.48 13.7899 10.4827 12.7941 10.6036C11.8339 10.7203 11.3809 10.9271 11.0711 11.1916C10.9528 11.2927 10.8426 11.4028 10.7416 11.5212C10.477 11.8309 10.2702 12.284 10.1536 13.2441C10.0326 14.2399 10.03 15.558 10.03 17.5C10.03 19.442 10.0326 20.7601 10.1536 21.7559C10.2702 22.7161 10.477 23.1691 10.7416 23.4789C10.8426 23.5972 10.9528 23.7074 11.0711 23.8084C11.3809 24.073 11.8339 24.2798 12.7941 24.3964C13.7899 24.5174 15.108 24.52 17.05 24.52H17.95C19.892 24.52 21.2101 24.5174 22.2059 24.3964C23.1661 24.2798 23.6191 24.073 23.9289 23.8084C24.0472 23.7074 24.1574 23.5972 24.2584 23.4789C24.523 23.1691 24.7298 22.7161 24.8464 21.7559C24.9674 20.7601 24.97 19.442 24.97 17.5C24.97 15.558 24.9674 14.2399 24.8464 13.2441C24.7298 12.284 24.523 11.8309 24.2584 11.5212C24.1574 11.4028 24.0472 11.2927 23.9289 11.1916C23.6191 10.9271 23.1661 10.7203 22.2059 10.6036C21.2101 10.4827 19.892 10.48 17.95 10.48ZM9.57817 10.5275C8.5 11.7899 8.5 13.6933 8.5 17.5C8.5 21.3068 8.5 23.2101 9.57817 24.4725C9.73127 24.6518 9.89823 24.8187 10.0775 24.9718C11.3399 26.05 13.2432 26.05 17.05 26.05H17.95C21.7568 26.05 23.6601 26.05 24.9225 24.9718C25.1018 24.8187 25.2687 24.6518 25.4218 24.4725C26.5 23.2101 26.5 21.3068 26.5 17.5C26.5 13.6933 26.5 11.7899 25.4218 10.5275C25.2687 10.3482 25.1018 10.1813 24.9225 10.0282C23.6601 8.95001 21.7568 8.95001 17.95 8.95001H17.05C13.2432 8.95001 11.3399 8.95001 10.0775 10.0282C9.89823 10.1813 9.73127 10.3482 9.57817 10.5275Z" fill="#4D4C4C"/>
<path fill-rule="evenodd" clip-rule="evenodd" d="M25.6 14.3498H9.4V12.8198H25.6V14.3498Z" fill="#4D4C4C"/>
<path fill-rule="evenodd" clip-rule="evenodd" d="M11.2 20.7848C11.2 20.3623 11.5425 20.0198 11.965 20.0198H14.035C14.4575 20.0198 14.8 20.3623 14.8 20.7848C14.8 21.2073 14.4575 21.5498 14.035 21.5498H11.965C11.5425 21.5498 11.2 21.2073 11.2 20.7848Z" fill="#4D4C4C"/>
<path fill-rule="evenodd" clip-rule="evenodd" d="M15.7 20.7848C15.7 20.3623 16.0425 20.0198 16.465 20.0198H22.135C22.5575 20.0198 22.9 20.3623 22.9 20.7848C22.9 21.2073 22.5575 21.5498 22.135 21.5498H16.465C16.0425 21.5498 15.7 21.2073 15.7 20.7848Z" fill="#4D4C4C"/>
</svg>
