<svg width="122" height="121" viewBox="0 0 122 121" fill="none" xmlns="http://www.w3.org/2000/svg">
<path d="M110.74 60.0285C110.74 32.5579 88.4709 10.2885 61.0003 10.2885C33.5296 10.2885 11.2603 32.5579 11.2603 60.0285C11.2603 87.4992 33.5296 109.769 61.0003 109.769C88.4709 109.769 110.74 87.4992 110.74 60.0285Z" fill="#B01AA7" fill-opacity="0.15"/>
<path d="M63.22 81.9268C63.218 82.7401 62.9748 83.5345 62.5211 84.2095C62.0674 84.8845 61.4236 85.4097 60.6712 85.7187C59.9189 86.0276 59.0918 86.1064 58.2947 85.9451C57.4975 85.7837 56.7662 85.3895 56.1932 84.8123C55.6202 84.2351 55.2313 83.5009 55.0758 82.7026C54.9203 81.9043 55.0051 81.0778 55.3196 80.3278C55.634 79.5777 56.1639 78.9378 56.8422 78.489C57.5205 78.0403 58.3167 77.8028 59.13 77.8068C60.2175 77.8147 61.2577 78.2523 62.0239 79.0241C62.7901 79.7959 63.22 80.8393 63.22 81.9268Z" fill="#B01AA7"/>
<path d="M50.8996 76.6468C51.9482 75.518 53.215 74.6136 54.6232 73.9885C56.0315 73.3633 57.5519 73.0304 59.0925 73.0099C60.6331 72.9893 62.1619 73.2815 63.5863 73.8688C65.0107 74.4561 66.3012 75.3264 67.3796 76.4268C69.4796 78.5468 72.7596 75.2968 70.6596 73.1768C69.15 71.6555 67.3514 70.4515 65.3695 69.6356C63.3877 68.8198 61.2627 68.4086 59.1196 68.4263C56.9764 68.444 54.8585 68.8902 52.8904 69.7387C50.9223 70.5872 49.1438 71.8207 47.6596 73.3668C45.6096 75.5168 48.8596 78.8068 50.9196 76.6468H50.8996Z" fill="#B01AA7"/>
<path d="M36.94 57.5468C43.19 52.1468 50.6501 48.7468 59.0001 48.7268C67.3356 48.6079 75.4019 51.677 81.55 57.3068C83.71 59.3068 87 56.0968 84.83 54.0568C77.8216 47.5656 68.6025 43.9896 59.05 44.0568C49.44 44.0568 40.9001 48.0568 33.7101 54.2268C31.4601 56.1768 34.71 59.4468 36.97 57.5068L36.94 57.5468Z" fill="#B01AA7"/>
<path d="M42.4496 68.1168C44.5334 65.7913 47.0764 63.9228 49.9184 62.6291C52.7603 61.3355 55.8395 60.6449 58.9617 60.6007C62.0839 60.5565 65.1813 61.1598 68.0587 62.3726C70.9361 63.5853 73.531 65.3811 75.6796 67.6468C77.7596 69.7768 81.0396 66.5268 78.9596 64.3868C76.3817 61.6925 73.2779 59.5565 69.8406 58.111C66.4032 56.6656 62.7057 55.9415 58.977 55.9837C55.2484 56.0259 51.5681 56.8334 48.1644 58.3563C44.7606 59.8792 41.7059 62.0849 39.1896 64.8368C37.1896 67.0168 40.4196 70.3068 42.4496 68.1168Z" fill="#B01AA7"/>
<path d="M96.3879 47.6113C97.6009 40.7534 93.0247 34.2107 86.1669 32.9978C79.309 31.7848 72.7663 36.361 71.5534 43.2188C70.3404 50.0767 74.9166 56.6194 81.7745 57.8323C88.6323 59.0452 95.175 54.4691 96.3879 47.6113Z" fill="white"/>
<path d="M89.1681 41.8891L87.3792 40.1001L79.3676 48.1116L81.1566 49.9006L89.1681 41.8891Z" fill="#B01AA7"/>
<path d="M81.1608 40.0908L79.3718 41.8798L87.3833 49.8913L89.1723 48.1023L81.1608 40.0908Z" fill="#B01AA7"/>
</svg>
