<svg width="118" height="118" viewBox="0 0 118 118" fill="none" xmlns="http://www.w3.org/2000/svg">
<path fill-rule="evenodd" clip-rule="evenodd" d="M56.6591 96.6362L56.8456 96.6459C57.5032 96.6797 58.1659 96.6969 58.8335 96.6969C79.745 96.6969 96.6972 79.7448 96.6972 58.8333C96.6972 37.9217 79.745 20.9696 58.8335 20.9696C37.922 20.9696 20.9698 37.9217 20.9698 58.8333C20.9698 68.9454 24.9228 78.1164 31.3848 84.9146C34.3643 88.049 34.7921 92.8686 32.3702 96.4633L56.6591 96.6362ZM15.2122 104.755C14.4794 104.75 14.103 103.876 14.603 103.34L25.2967 91.8807C25.6042 91.5511 25.5968 91.0383 25.2862 90.7116C17.3971 82.412 12.5557 71.188 12.5557 58.8333C12.5557 33.2747 33.275 12.5554 58.8335 12.5554C84.392 12.5554 105.111 33.2747 105.111 58.8333C105.111 84.3918 84.392 105.111 58.8335 105.111C58.0214 105.111 57.2143 105.09 56.4125 105.049L15.2122 104.755Z" fill="#A8A8A8"/>
<circle cx="40.3222" cy="58.8334" r="4.62778" fill="#A8A8A8"/>
<circle cx="58.8332" cy="58.8334" r="4.62778" fill="#A8A8A8"/>
<circle cx="77.3438" cy="58.8334" r="4.62778" fill="#A8A8A8"/>
</svg>
