<svg width="248" height="186" viewBox="0 0 248 186" fill="none" xmlns="http://www.w3.org/2000/svg">
<path d="M57.0794 91.021H104.863V54.1648L57.0794 54.1648L57.0794 91.021Z" fill="#F5F5F5"/>
<path d="M69.0502 90.7627C69.1159 90.7627 69.1685 82.5478 69.1685 72.4156C69.1685 62.2835 69.1159 54.0664 69.0502 54.0664C68.9845 54.0664 68.9297 62.2813 68.9297 72.4156C68.9297 82.55 68.9845 90.7627 69.0502 90.7627Z" fill="#ECECEC"/>
<path d="M61.1293 86.7744H64.793V82.633H61.1293V86.7744Z" fill="#FAFAFA"/>
<path d="M90.2851 54.2607H84.8574V62.125H90.2851V54.2607Z" fill="#ECECEC"/>
<path d="M90.2851 83.0469H84.8574V90.9111H90.2851V83.0469Z" fill="#ECECEC"/>
<path d="M6.23961 151.739H54.0234L54.0234 114.883H6.23961L6.23961 151.739Z" fill="#F5F5F5"/>
<path d="M18.2101 151.479C18.2781 151.479 18.3306 143.264 18.3306 133.132C18.3306 123 18.2781 114.78 18.2101 114.78C18.1422 114.78 18.0918 122.993 18.0918 133.127C18.0918 143.262 18.1444 151.479 18.2101 151.479Z" fill="#ECECEC"/>
<path d="M10.2875 147.491H13.9512V143.349H10.2875V147.491Z" fill="#FAFAFA"/>
<path d="M39.4452 114.978H34.0176V122.842H39.4452V114.978Z" fill="#ECECEC"/>
<path d="M39.4452 143.766H34.0176V151.63H39.4452V143.766Z" fill="#ECECEC"/>
<path d="M185.83 151.739H247.594V104.102H185.83V151.739Z" fill="#ECECEC"/>
<path d="M201.304 151.402C201.389 151.402 201.457 140.783 201.457 127.688C201.457 114.594 201.389 103.971 201.304 103.971C201.219 103.971 201.148 114.587 201.148 127.688C201.148 140.79 201.212 151.402 201.304 151.402Z" fill="#E1E1E1"/>
<path d="M191.064 146.248H195.799V140.895H191.064V146.248Z" fill="#FAFAFA"/>
<path d="M228.751 104.223H221.734V114.388H228.751V104.223Z" fill="#E1E1E1"/>
<path d="M228.751 141.432H221.734V151.597H228.751V141.432Z" fill="#E1E1E1"/>
<path d="M124.782 90.9927H45.9004V151.834H124.782V90.9927Z" fill="#ECECEC"/>
<path d="M78.9247 91.1499H69.9648V104.133H78.9247V91.1499Z" fill="#E1E1E1"/>
<path d="M78.9247 138.671H69.9648V151.654H78.9247V138.671Z" fill="#E1E1E1"/>
<path d="M239.22 0H192.402V67.8597H239.22V0Z" fill="#E1E1E1"/>
<path d="M236.876 0H190.059V67.8597H236.876V0Z" fill="#F5F5F5"/>
<path d="M231.059 7.35156H195.875V60.5126H231.059V7.35156Z" fill="white"/>
<path d="M231.058 60.5122C231.058 60.5122 231.058 60.4202 231.058 60.2515C231.058 60.0828 231.058 59.8132 231.058 59.4977C231.058 58.8294 231.058 57.8521 231.042 56.5812C231.042 54.0328 231.025 50.3209 231.012 45.6251C230.996 36.2511 230.976 22.9767 230.955 7.34459L231.071 7.46072L195.891 7.47168L196.018 7.34459C196.018 27.3986 196 45.8881 195.992 60.5057L195.891 60.4027L221.499 60.4575L228.575 60.4816L230.433 60.4947C230.854 60.4947 231.075 60.5057 231.075 60.5057C231.075 60.5057 230.856 60.5057 230.455 60.5057L228.617 60.5166L221.563 60.5429L195.891 60.5955H195.79V60.4947C195.79 45.8771 195.772 27.3876 195.764 7.33363V7.20654H195.895H231.075H231.191V7.32268C231.169 22.9855 231.147 36.2862 231.134 45.6799C231.121 50.3581 231.11 54.0613 231.104 56.6031C231.104 57.8631 231.104 58.8338 231.088 59.4955C231.088 59.8176 231.088 60.063 231.088 60.2361C231.088 60.4093 231.058 60.5122 231.058 60.5122Z" fill="#E1E1E1"/>
<path d="M237.006 0.00228487C237.034 0.0220058 236.717 0.486544 236.173 1.21403C235.63 1.94151 234.858 2.92975 233.982 4.00125C233.105 5.07276 232.277 6.01717 231.668 6.68987C231.059 7.36258 230.664 7.76357 230.638 7.74166C230.612 7.71975 230.958 7.27493 231.532 6.57374L233.785 3.8391L236.037 1.10228C236.611 0.398895 236.979 -0.0196273 237.006 0.00228487Z" fill="#E1E1E1"/>
<path d="M231.23 60.3394C232.98 63.1191 235.038 65.6919 237.366 68.0086L231.23 60.3394Z" fill="white"/>
<path d="M237.366 68.0152C237.344 68.0393 236.928 67.6755 236.297 67.0423C235.481 66.2116 234.709 65.3398 233.983 64.4304C233.254 63.5222 232.574 62.5765 231.945 61.5971C231.463 60.8455 231.202 60.3569 231.231 60.3394C231.259 60.3218 231.577 60.7776 232.094 61.4963C232.611 62.215 233.334 63.212 234.18 64.2726C235.026 65.3331 235.834 66.2556 236.428 66.9174C237.022 67.5791 237.399 67.9889 237.366 68.0152Z" fill="#E1E1E1"/>
<path d="M190.049 67.807L196.184 60.2407L190.049 67.807Z" fill="white"/>
<path d="M196.182 60.2406C196.236 60.2844 194.909 62.0155 193.215 64.1037C191.521 66.1919 190.103 67.8507 190.049 67.8069C189.994 67.763 191.324 66.0342 193.018 63.9437C194.711 61.8533 196.127 60.1968 196.182 60.2406Z" fill="#E1E1E1"/>
<path d="M190.059 0.00234781C190.113 -0.0414765 191.446 1.55154 193.034 3.55869C194.623 5.56584 195.865 7.23336 195.81 7.28376C195.756 7.33415 194.419 5.7258 192.835 3.71865C191.251 1.7115 190.002 0.0461721 190.059 0.00234781Z" fill="#E1E1E1"/>
<path d="M220.094 18.1431H208.314V51.592H220.094V18.1431Z" fill="#E1E1E1"/>
<path d="M150.977 0.0126953H111.916V40.7299H150.977V0.0126953Z" fill="#E1E1E1"/>
<path d="M148.33 0.0126953H109.27V40.7299H148.33V0.0126953Z" fill="#FAFAFA"/>
<path d="M148.343 40.7413H109.258V0H148.343V40.7413ZM109.282 40.7172H148.318V0.0241035H109.282V40.7172Z" fill="#E1E1E1"/>
<path d="M143.08 5.48682H114.521V35.2567H143.08V5.48682Z" fill="white"/>
<path d="M114.521 35.458C114.543 35.4843 114.271 35.7954 113.815 36.2775C113.359 36.7595 112.72 37.4103 112.001 38.1181C111.282 38.8259 110.623 39.4569 110.134 39.9039C109.645 40.351 109.334 40.6161 109.31 40.592C109.286 40.5679 109.553 40.2567 110.011 39.7747C110.469 39.2926 111.107 38.6418 111.83 37.9318C112.553 37.2219 113.213 36.5908 113.699 36.1416C114.186 35.6924 114.499 35.4273 114.521 35.458Z" fill="#E1E1E1"/>
<path d="M143.078 35.3816C143.104 35.3597 143.418 35.6292 143.898 36.085C144.377 36.5408 145.03 37.1806 145.738 37.9015C146.446 38.6224 147.077 39.2798 147.524 39.7662C147.971 40.2527 148.236 40.5682 148.212 40.5923C148.188 40.6164 147.877 40.3469 147.395 39.8911C146.913 39.4354 146.262 38.7955 145.552 38.0724C144.842 37.3493 144.211 36.6898 143.762 36.2033C143.312 35.7169 143.052 35.4035 143.078 35.3816Z" fill="#E1E1E1"/>
<path d="M143.001 5.56588C142.977 5.53958 143.249 5.22843 143.705 4.74636C144.161 4.2643 144.8 3.61351 145.521 2.90574C146.242 2.19798 146.9 1.56691 147.386 1.1199C147.873 0.672895 148.184 0.398993 148.212 0.431861C148.241 0.46473 147.967 0.767117 147.511 1.24918C147.055 1.73125 146.415 2.38204 145.692 3.092C144.969 3.80195 144.31 4.43302 143.823 4.88222C143.337 5.33142 143.023 5.59217 143.001 5.56588Z" fill="#E1E1E1"/>
<path d="M114.44 5.63798C114.414 5.66209 114.103 5.39038 113.621 4.9346C113.139 4.47883 112.488 3.83899 111.78 3.11808C111.072 2.39717 110.443 1.73981 109.994 1.25336C109.545 0.766911 109.282 0.451376 109.308 0.427273C109.335 0.403169 109.642 0.672689 110.124 1.12846C110.606 1.58423 111.259 2.22407 111.969 2.94717C112.679 3.67027 113.31 4.32983 113.757 4.81628C114.204 5.30273 114.469 5.61607 114.44 5.63798Z" fill="#E1E1E1"/>
<path d="M143.002 35.2565C142.999 35.2083 142.999 35.16 143.002 35.1118C143.002 35.011 143.002 34.873 143.002 34.6955C143.002 34.323 143.002 33.7862 142.989 33.0893C142.989 31.6782 142.973 29.6272 142.96 27.0219C142.947 21.8068 142.927 14.3807 142.903 5.48661L143.015 5.59617L114.529 5.61151L114.656 5.48661C114.656 16.412 114.643 26.634 114.639 35.2565L114.529 35.1469L135.151 35.2039L140.944 35.2324H142.478H142.875H143.013C142.971 35.2354 142.928 35.2354 142.886 35.2324H142.502L140.99 35.2455L135.223 35.274L114.531 35.3288H114.422V35.2192C114.422 26.5968 114.411 16.3748 114.404 5.44936V5.32227H114.534L143.019 5.3376H143.129V5.44936C143.105 14.372 143.087 21.8243 143.072 27.0547C143.061 29.6491 143.05 31.6935 143.043 33.0981C143.043 33.7862 143.039 34.3142 143.03 34.6824C143.03 34.8555 143.03 34.9891 143.03 35.0877C143.03 35.1863 143.004 35.2586 143.002 35.2565Z" fill="#E1E1E1"/>
<path d="M133.563 15.6055H124.033V25.1351H133.563V15.6055Z" fill="#ECECEC"/>
<path d="M242.654 151.68C242.654 151.729 188.421 151.766 121.537 151.766C54.652 151.766 0.40625 151.729 0.40625 151.68C0.40625 151.632 54.6191 151.593 121.537 151.593C188.454 151.593 242.654 151.634 242.654 151.68Z" fill="#1A2E35"/>
<path d="M100.268 157.513C100.174 157.513 100.1 143.047 100.1 125.206C100.1 107.365 100.174 92.8984 100.268 92.8984C100.361 92.8984 100.434 107.36 100.434 125.206C100.434 143.052 100.361 157.513 100.268 157.513Z" fill="#E1E1E1"/>
<path d="M114.217 143.199H107.766V150.492H114.217V143.199Z" fill="#FAFAFA"/>
<path d="M113.917 185.118C93.4511 185.118 74.1816 184.01 59.6477 181.998C52.4275 180.997 46.7126 179.819 42.6643 178.492C37.7557 176.886 35.2734 175.035 35.2734 172.987C35.2734 170.939 37.7604 169.088 42.6643 167.482C46.7126 166.157 52.4275 164.979 59.6477 163.976C74.177 161.964 93.4511 160.856 113.917 160.856C134.383 160.856 153.653 161.964 168.187 163.976C175.409 164.974 181.122 166.152 185.173 167.482C190.081 169.088 192.561 170.939 192.561 172.987C192.561 175.035 190.076 176.881 185.173 178.494C181.122 179.819 175.409 180.997 168.187 182C153.658 184.01 134.393 185.118 113.917 185.118Z" fill="#7689D6" fill-opacity="0.5"/>
<path d="M113.917 183.484C155.789 183.484 189.733 178.785 189.733 172.989C189.733 167.193 155.789 162.494 113.917 162.494C72.0453 162.494 38.1016 167.193 38.1016 172.989C38.1016 178.785 72.0453 183.484 113.917 183.484Z" fill="#8A9EDD" fill-opacity="0.5"/>
<path d="M73.9609 118.727L89.3877 116.537L91.8022 117.876C91.8022 117.876 88.9576 121.908 88.7636 121.85C88.5696 121.791 74.1433 119.105 74.1433 119.105L73.9609 118.727Z" fill="#009846"/>
<path d="M72.8964 119.11L72.707 118.197L89.1716 116.107L89.6648 117.03L72.8964 119.11Z" fill="#595959"/>
<path d="M154.117 118.727L138.69 116.537L136.262 117.876C136.262 117.876 139.104 121.908 139.3 121.85C139.497 121.791 153.921 119.105 153.921 119.105L154.117 118.727Z" fill="#009846"/>
<path d="M155.182 119.11L155.369 118.197L138.907 116.107L138.414 117.03L155.182 119.11Z" fill="#595959"/>
<path d="M146.372 133.756H81.6992C81.7203 130.965 82.8679 127.959 84.3264 125.271L86.2291 125.36C88.2462 121.691 89.4734 119.18 90.3242 118.196C90.3405 118.18 91.3293 117.631 90.1629 117.511L90.3592 117.292C90.2611 117.238 90.1676 117.182 90.0764 117.123C89.9151 117.02 89.7585 116.913 89.6089 116.803C85.7032 114.216 83.506 110.726 83.1157 106.453C82.6762 101.718 84.7028 97.6903 86.4839 95.1262C87.6806 93.4175 89.1204 92.4896 89.852 91.7814C89.852 91.758 89.8333 91.7323 89.8263 91.7089C89.0321 89.6599 88.6033 87.4875 88.5595 85.2904C88.5595 78.138 92.7668 72.3296 97.9324 72.3296C98.7471 72.3286 99.556 72.4678 100.324 72.741C101.486 73.1622 102.544 73.8295 103.425 74.6974C103.577 74.8446 103.722 74.9989 103.862 75.1648C104.716 76.1229 105.412 77.211 105.924 78.3881C106.25 79.121 106.516 79.8792 106.719 80.6554H106.747C106.896 80.611 106.92 80.8891 107.083 80.8354C107.317 80.7676 107.88 80.5572 108.133 80.4918L107.95 80.3281C109.905 79.8324 111.905 79.5364 113.92 79.4446H113.944C116.466 79.5475 120.743 80.847 120.888 80.8914C120.981 80.9172 121.056 80.6367 121.145 80.6577C121.778 78.2408 122.926 76.1886 124.441 74.6997C124.774 74.3733 125.132 74.0732 125.511 73.8021C126.104 73.3698 126.755 73.0228 127.444 72.7714C128.242 72.4802 129.084 72.3314 129.934 72.3319C135.109 72.3319 139.309 78.1427 139.309 85.2951C139.328 87.3879 138.955 89.4657 138.21 91.4214C138.325 91.5336 138.229 91.6925 138.372 91.8351C138.479 91.9403 138.956 92.375 139.073 92.4989C139.073 92.4989 138.933 92.1507 138.935 92.1507C139.834 93.0777 140.66 94.0724 141.406 95.1262C143.187 97.6973 145.236 101.715 144.774 106.451C144.379 110.733 142.182 114.213 138.276 116.81C138.159 116.894 138.042 116.969 137.923 117.044L137.518 117.296L137.715 117.516C137.75 117.558 137.247 117.75 137.294 117.806C138.208 118.874 139.889 121.583 141.85 125.155L143.738 125.264C145.197 127.948 146.354 130.961 146.372 133.756Z" fill="#BEE857"/>
<path d="M105.078 81.7985C105.078 81.7985 113.621 79.2601 122.994 81.8219C122.994 81.8219 118.383 79.6972 114.5 79.5757C110.618 79.4541 107.079 80.9921 107.079 80.9921L105.078 81.7985Z" fill="#CDEE69"/>
<path d="M95.6777 73.0826C95.6777 73.0826 98.9244 71.7644 101.928 75.4504C104.931 79.1365 105.319 81.724 105.319 81.724L106.907 81.2355C106.907 81.2355 106.346 79.2113 106.296 79.0149C106.247 78.8186 103.772 75.0601 103.732 74.9713C103.693 74.8824 101.629 72.8489 101.629 72.8489C101.629 72.8489 96.954 72.4819 96.8698 72.5544L95.6777 73.0826Z" fill="#CDEE69"/>
<path d="M132.418 73.0827C132.418 73.0827 129.172 71.7644 126.168 75.4505C123.165 79.1366 122.774 81.7241 122.774 81.7241L121.189 81.2355C121.189 81.2355 121.75 79.2114 121.8 79.015C121.849 78.8187 124.312 75.0601 124.371 74.962C124.429 74.8638 126.474 72.8396 126.474 72.8396C126.474 72.8396 131.149 72.4727 131.236 72.5451L132.418 73.0827Z" fill="#CDEE69"/>
<path d="M114.207 80.8145C114.207 81.1066 113.303 81.352 112.204 81.352C111.105 81.352 110.203 81.1066 110.203 80.8145C110.203 80.5223 111.105 80.2769 112.204 80.2769C113.303 80.2769 114.207 80.5293 114.207 80.8145Z" fill="#CDEE69"/>
<path d="M117.355 80.8144C117.355 81.0084 116.768 81.1557 116.06 81.1557C115.352 81.1557 114.758 81.0154 114.758 80.8144C114.758 80.6134 115.345 80.4731 116.05 80.4731C116.756 80.4731 117.355 80.6251 117.355 80.8144Z" fill="#CDEE69"/>
<path d="M134.587 102.889C137.485 102.889 139.835 101.435 139.835 99.6421C139.835 97.8491 137.485 96.3955 134.587 96.3955C131.689 96.3955 129.34 97.8491 129.34 99.6421C129.34 101.435 131.689 102.889 134.587 102.889Z" fill="#CEA67E"/>
<path d="M93.849 102.889C96.7471 102.889 99.0964 101.435 99.0964 99.6421C99.0964 97.8491 96.7471 96.3955 93.849 96.3955C90.9509 96.3955 88.6016 97.8491 88.6016 99.6421C88.6016 101.435 90.9509 102.889 93.849 102.889Z" fill="#CEA67E"/>
<path d="M110.179 84.262C110.399 84.7295 109.934 85.4096 109.176 85.7509C108.419 86.0922 107.615 85.9963 107.395 85.5312C107.176 85.0661 107.629 84.3859 108.396 84.0423C109.162 83.6987 109.983 83.7992 110.179 84.262Z" fill="#63982B"/>
<path d="M117.696 83.6198C118.037 84.3514 117.331 85.4009 116.134 85.9572C114.937 86.5135 113.668 86.3499 113.329 85.616C112.99 84.882 113.694 83.8349 114.891 83.2786C116.087 82.7223 117.354 82.8719 117.696 83.6198Z" fill="#63982B"/>
<path d="M115.719 87.2167C115.915 87.6561 115.499 88.2919 114.767 88.6332C114.036 88.9744 113.302 88.8669 113.082 88.4135C112.862 87.96 113.302 87.3383 114.036 86.997C114.77 86.6557 115.525 86.7773 115.719 87.2167Z" fill="#63982B"/>
<path d="M111.522 85.9966C111.62 86.2303 111.4 86.5576 111.033 86.7282C110.666 86.8988 110.252 86.8497 110.154 86.6067C110.056 86.3636 110.276 86.0457 110.643 85.875C111.01 85.7044 111.4 85.7512 111.522 85.9966Z" fill="#63982B"/>
<path d="M120.48 82.8719C120.625 83.2132 120.31 83.7017 119.746 83.9705C119.183 84.2393 118.601 84.1668 118.454 83.7998C118.307 83.4329 118.624 82.9701 119.185 82.7013C119.746 82.4325 120.31 82.5306 120.48 82.8719Z" fill="#63982B"/>
<path d="M92.5535 111.36C93.652 112.458 93.9956 113.872 93.3365 114.557C92.6774 115.242 91.2328 114.875 90.1366 113.777C89.0404 112.678 88.6968 111.261 89.3559 110.577C90.0151 109.892 91.4549 110.266 92.5535 111.36Z" fill="#63982B"/>
<path d="M137.056 105.357C138.325 104.478 139.814 104.403 140.328 105.184C140.842 105.965 140.255 107.309 138.986 108.187C137.717 109.066 136.228 109.139 135.714 108.358C135.2 107.577 135.796 106.233 137.056 105.357Z" fill="#63982B"/>
<path d="M133.709 110.967C134.539 110.404 135.49 110.354 135.834 110.843C136.178 111.331 135.785 112.21 134.955 112.771C134.125 113.332 133.172 113.381 132.83 112.895C132.489 112.409 132.879 111.53 133.709 110.967Z" fill="#63982B"/>
<path d="M137.811 110.871C138.47 110.432 139.214 110.382 139.494 110.773C139.775 111.163 139.471 111.848 138.812 112.311C138.153 112.774 137.395 112.799 137.126 112.409C136.858 112.019 137.152 111.31 137.811 110.871Z" fill="#63982B"/>
<path d="M97.1669 111.455C97.9475 112.238 98.193 113.239 97.7045 113.702C97.2159 114.164 96.2389 113.921 95.4582 113.164C94.6775 112.407 94.4344 111.383 94.9206 110.92C95.4068 110.457 96.4095 110.675 97.1669 111.455Z" fill="#63982B"/>
<path d="M96.6555 116.59C96.9513 116.295 96.8048 115.669 96.3283 115.192C95.8518 114.716 95.2258 114.569 94.93 114.865C94.6343 115.161 94.7808 115.787 95.2573 116.263C95.7338 116.74 96.3598 116.886 96.6555 116.59Z" fill="#63982B"/>
<path d="M92.2109 117.876C92.2109 117.876 99.534 130.227 114.056 130.227C128.578 130.227 135.904 117.876 135.904 117.876C135.904 117.876 113.96 129.741 92.2109 117.876Z" fill="#77AA32"/>
<path d="M89.552 91.9034C88.6841 89.8075 88.2523 87.5568 88.2828 85.2886C88.2828 77.9164 92.6747 71.9351 98.046 71.9351C102.293 71.9351 106.028 75.5253 107.347 81.0509L106.444 81.2706C105.222 76.1587 101.854 72.8677 98.046 72.8677C93.1632 72.8677 89.2107 78.4587 89.2107 85.2932C89.192 87.4343 89.598 89.5579 90.4051 91.5411L89.552 91.9034Z" fill="#565656"/>
<path d="M99.9265 121.05C96.168 120.44 83.8406 117.558 82.8145 106.5C81.9356 97.1273 88.3471 92.2935 90.9182 91.0991C90.9182 91.0991 82.9103 97.5667 83.7167 106.428C84.1562 111.163 86.8418 114.312 89.9646 116.387C93.7512 118.853 99.9265 121.05 99.9265 121.05Z" fill="#565656"/>
<path d="M138.543 91.9034C139.409 89.8072 139.841 87.5567 139.812 85.2886C139.812 77.9164 135.418 71.9351 130.049 71.9351C125.799 71.9351 122.066 75.5253 120.748 81.0509L121.65 81.2706C122.847 76.1681 126.239 72.8723 130.049 72.8723C134.929 72.8723 138.884 78.4634 138.884 85.2979C138.903 87.4393 138.496 89.563 137.687 91.5458L138.543 91.9034Z" fill="#565656"/>
<path d="M128.168 121.05C131.929 120.44 144.256 117.558 145.28 106.5C146.159 97.1273 139.74 92.2935 137.176 91.0991C137.176 91.0991 145.184 97.5667 144.378 106.428C143.938 111.163 141.253 114.312 138.128 116.387C134.346 118.853 128.168 121.05 128.168 121.05Z" fill="#565656"/>
<path d="M114.036 79.9665C117.102 80.0958 120.127 80.7226 122.993 81.8224C122.848 81.7242 119.381 79.2349 114.036 79.0386H113.987C108.664 79.2349 105.175 81.7242 105.027 81.8224C107.906 80.7067 110.951 80.0794 114.036 79.9665Z" fill="#565656"/>
<path d="M113.961 110.064H113.912C111.912 110.09 110.715 109.234 110.715 109.234C110.741 109.307 111.374 110.992 113.84 110.992H114.036C116.526 110.992 117.136 109.307 117.161 109.234C117.159 109.234 115.965 110.113 113.961 110.064Z" fill="#77AA32"/>
<path d="M113.96 109.431H113.911C111.52 109.455 110.08 108.602 110.08 108.602C110.103 108.674 110.861 110.357 113.82 110.357H114.054C117.031 110.357 117.765 108.674 117.793 108.602C117.796 108.602 116.377 109.455 113.96 109.431Z" fill="#565656"/>
<path d="M97.8029 76.1582C101 76.1582 103.611 79.8209 103.611 84.2876C103.611 88.7544 101 92.4171 97.8029 92.4171C94.6054 92.4171 91.9922 88.7614 91.9922 84.2876C91.9922 79.8139 94.6054 76.1582 97.8029 76.1582Z" fill="white"/>
<path d="M97.8022 92.9295C94.2119 92.9295 91.2832 88.9559 91.2832 84.0685C91.2832 79.181 94.2119 75.2051 97.8022 75.2051C101.392 75.2051 104.319 79.1786 104.319 84.0661C104.319 88.9536 101.413 92.9295 97.8022 92.9295ZM97.8022 76.1003C94.7262 76.1003 92.2111 79.6648 92.2111 84.0334C92.2111 88.402 94.7262 91.9665 97.8022 91.9665C100.878 91.9665 103.391 88.4043 103.391 84.0334C103.391 79.6625 100.902 76.1096 97.8022 76.1096V76.1003Z" fill="#565656"/>
<path d="M100.586 89.4372C102.257 89.4372 103.612 86.8911 103.612 83.7503C103.612 80.6096 102.257 78.0635 100.586 78.0635C98.9138 78.0635 97.5586 80.6096 97.5586 83.7503C97.5586 86.8911 98.9138 89.4372 100.586 89.4372Z" fill="#1D1D1B"/>
<path d="M101.903 83.5773C102.51 83.5773 103.002 82.7579 103.002 81.7472C103.002 80.7364 102.51 79.917 101.903 79.917C101.297 79.917 100.805 80.7364 100.805 81.7472C100.805 82.7579 101.297 83.5773 101.903 83.5773Z" fill="white"/>
<path d="M130.853 76.1582C127.656 76.1582 125.045 79.8209 125.045 84.2876C125.045 88.7544 127.656 92.4171 130.853 92.4171C134.051 92.4171 136.664 88.7544 136.664 84.2876C136.664 79.8209 134.051 76.1582 130.853 76.1582Z" fill="white"/>
<path d="M124.342 84.0685C124.342 79.1786 127.266 75.2051 130.854 75.2051C134.442 75.2051 137.373 79.1786 137.373 84.0661C137.373 88.9536 134.442 92.9272 130.854 92.9272C127.266 92.9272 124.342 88.9513 124.342 84.0685ZM125.277 84.0685C125.277 88.437 127.789 92.0016 130.865 92.0016C133.941 92.0016 136.456 88.437 136.456 84.0685C136.456 79.6999 133.925 76.14 130.854 76.14C127.782 76.14 125.277 79.6742 125.277 84.0685Z" fill="#565656"/>
<path d="M128.072 89.4372C129.744 89.4372 131.099 86.8911 131.099 83.7503C131.099 80.6096 129.744 78.0635 128.072 78.0635C126.4 78.0635 125.045 80.6096 125.045 83.7503C125.045 86.8911 126.4 89.4372 128.072 89.4372Z" fill="#1D1D1B"/>
<path d="M126.753 83.5773C127.36 83.5773 127.851 82.7579 127.851 81.7472C127.851 80.7364 127.36 79.917 126.753 79.917C126.146 79.917 125.654 80.7364 125.654 81.7472C125.654 82.7579 126.146 83.5773 126.753 83.5773Z" fill="white"/>
<path d="M111.691 97.5668C111.203 95.4188 119.332 106.989 114.767 107.599C110.422 108.162 112.57 101.351 111.691 97.5668Z" fill="#565656"/>
<path d="M114.037 181.78L72.9551 171.771V118.752L114.037 126.807V181.78Z" fill="#2DC071"/>
<path d="M114.037 181.78L155.145 171.771V118.752L114.037 126.807V181.78Z" fill="#2DC071"/>
<path d="M101.66 140.161L60.5293 132.031L72.8801 118.727L114.037 126.833L101.66 140.161Z" fill="#38DA83"/>
<path d="M155.16 131.66C146.493 128.755 139.5 127.706 137.487 129.79C137.487 129.79 157.063 175.51 114.686 169.823L114.053 169.751V182.139L155.135 172.153V131.66H155.16Z" fill="#009846"/>
<path d="M126.414 140.161L167.545 132.031L155.194 118.727L114.037 126.833L126.414 140.161Z" fill="#009846"/>
<path d="M114.041 182.258L113.922 181.281L154.632 171.389V134.472H155.607V172.156L114.041 182.258Z" fill="#595959"/>
<path d="M126.241 140.691L113.084 126.522L155.365 118.196L168.499 132.34L126.241 140.691ZM114.994 127.141L126.589 139.628L166.592 131.723L155.021 119.26L114.994 127.141Z" fill="#595959"/>
<path d="M114.035 182.257L114.524 182.14V126.431L72.7057 118.196L59.5742 132.34L72.4649 134.888V172.155L114.035 182.257ZM113.547 181.135L73.4396 171.388V135.082L101.563 140.652L101.832 140.703L113.547 128.081V181.14V181.135ZM61.4815 131.723L73.0516 119.26L113.082 127.141L101.486 139.628L61.4815 131.723Z" fill="#595959"/>
<path d="M139.117 121.448L138.603 119.739L134.674 115.443L130.572 114.856L127.3 115.71L126.224 116.588C126.224 116.588 125.322 117.907 125.322 117.991C125.322 118.075 124.591 122.091 124.591 122.091L124.123 126.298L127.664 124.101L129.861 127.908L131.886 124.515L135.572 127.908L135.207 122.532L135.401 122.119L139.117 121.448Z" fill="#A4CA46"/>
<path d="M129.951 128.843L131.951 125.085L135.736 128.551L135.663 127.647C135.443 124.4 135.345 119.396 135.614 118.909C135.614 118.909 134.831 119.763 134.808 121.838C134.784 123.278 134.808 125.718 134.88 126.793L131.757 123.937L129.901 127.404L127.655 123.717L124.677 125.573C124.946 122.35 125.556 117.713 126.166 116.979C127.045 115.929 129.17 114.929 132.463 115.198C135.224 115.417 137.468 118.664 138.251 119.959C138.445 120.275 139.518 122.156 139.518 122.156L140.237 121.922C140.214 121.873 139.069 119.865 138.861 119.548C138.005 118.131 135.637 114.74 132.538 114.471C129.511 114.225 126.928 114.983 125.629 116.521C124.579 117.741 123.969 125.382 123.897 126.261L123.848 126.992L127.412 124.772L129.951 128.843Z" fill="#565656"/>
<path d="M88.9785 121.35L89.4904 119.641L93.4196 115.345L97.5217 114.758L100.794 115.614L101.869 116.493C101.869 116.493 102.771 117.811 102.771 117.883C102.771 117.956 103.503 121.983 103.503 121.983L103.971 126.19L100.429 123.993L98.2299 127.796L96.2034 124.402L92.5173 127.796L92.882 122.42L92.688 122.007L88.9785 121.35Z" fill="#A4CA46"/>
<path d="M98.1337 128.745L96.1305 124.991L92.3486 128.458L92.4211 127.556C92.6408 124.309 92.739 119.305 92.4702 118.816C92.4702 118.816 93.2509 119.669 93.2766 121.745C93.3 123.185 93.2766 125.625 93.2018 126.7L96.3269 123.844L98.1828 127.31L100.429 123.624L103.407 125.48C103.138 122.257 102.528 117.619 101.918 116.888C101.039 115.838 98.9144 114.836 95.6186 115.104C92.8605 115.324 90.6143 118.571 89.8336 119.866C89.6396 120.183 88.707 121.986 88.707 121.986L87.6855 122.112C87.7089 122.063 89.0038 119.774 89.2235 119.45C90.0767 118.047 92.4445 114.642 95.5462 114.373C98.5731 114.139 101.156 114.885 102.453 116.423C103.503 117.645 104.115 125.284 104.188 126.163L104.237 126.896L100.672 124.674L98.1337 128.745Z" fill="#565656"/>
</svg>
