<svg width="30" height="30" viewBox="0 0 30 30" fill="none" xmlns="http://www.w3.org/2000/svg">
<path fill-rule="evenodd" clip-rule="evenodd" d="M15.4 17.76C18.9125 17.76 21.76 14.9125 21.76 11.4C21.76 7.88747 18.9125 5.04 15.4 5.04C11.8875 5.04 9.04 7.88747 9.04 11.4C9.04 14.9125 11.8875 17.76 15.4 17.76ZM15.4 19.8C20.0392 19.8 23.8 16.0392 23.8 11.4C23.8 6.76081 20.0392 3 15.4 3C10.7608 3 7 6.76081 7 11.4C7 16.0392 10.7608 19.8 15.4 19.8Z" fill="white"/>
<path fill-rule="evenodd" clip-rule="evenodd" d="M15.4 12.96C16.2616 12.96 16.96 12.2616 16.96 11.4C16.96 10.5384 16.2616 9.84 15.4 9.84C14.5384 9.84 13.84 10.5384 13.84 11.4C13.84 12.2616 14.5384 12.96 15.4 12.96ZM15.4 15C17.3882 15 19 13.3882 19 11.4C19 9.41178 17.3882 7.8 15.4 7.8C13.4118 7.8 11.8 9.41178 11.8 11.4C11.8 13.3882 13.4118 15 15.4 15Z" fill="white"/>
<path fill-rule="evenodd" clip-rule="evenodd" d="M15.4 18.6C16.0627 18.6 16.6 19.1373 16.6 19.8L16.6 25.8C16.6 26.4627 16.0627 27 15.4 27C14.7373 27 14.2 26.4627 14.2 25.8L14.2 19.8C14.2 19.1373 14.7373 18.6 15.4 18.6Z" fill="white"/>
</svg>
