<svg width="19" height="18" viewBox="0 0 19 18" fill="none" xmlns="http://www.w3.org/2000/svg">
<path d="M4.18421 0.573841C4.08482 0.61111 3.99372 0.710496 3.96473 0.812642C3.94679 0.876138 3.94265 0.943775 3.94679 1.18948C3.95093 1.48625 3.95093 1.49177 3.9882 1.56079C4.14832 1.86447 4.58727 1.81892 4.6839 1.48901C4.70184 1.4269 4.7046 1.35788 4.70046 1.12046C4.69632 0.84715 4.69356 0.823684 4.66319 0.761569C4.57623 0.583503 4.36918 0.502063 4.18421 0.573841Z" fill="white"/>
<path d="M2.17099 0.875926C2.03295 0.947704 1.95703 1.06779 1.95703 1.21963C1.95703 1.34525 1.98602 1.3977 2.19859 1.65859C2.48571 2.01334 2.52574 2.04646 2.67481 2.05889C2.82665 2.07269 2.98125 1.98435 3.04751 1.84631C3.0903 1.75797 3.09168 1.62546 3.05165 1.53849C3.03647 1.50399 2.92328 1.35353 2.80043 1.20445C2.5354 0.880067 2.50503 0.856601 2.33663 0.85108C2.24829 0.848319 2.21516 0.853841 2.17099 0.875926Z" fill="white"/>
<path d="M6.16408 0.881361C6.08955 0.915869 6.05366 0.954519 5.79277 1.27338C5.59676 1.51356 5.57191 1.56049 5.57329 1.69025C5.57329 1.81034 5.6009 1.87521 5.6851 1.95389C5.75688 2.02291 5.81762 2.05052 5.91148 2.0588C6.00258 2.06708 6.09507 2.04086 6.16685 1.98702C6.24829 1.92491 6.65135 1.41694 6.67481 1.34792C6.70656 1.25544 6.70242 1.14501 6.66377 1.06219C6.62512 0.979365 6.52712 0.886882 6.4512 0.864796C6.36147 0.837189 6.24276 0.844091 6.16408 0.881361Z" fill="white"/>
<path d="M3.80794 3.14781C2.81547 3.29136 1.98312 3.98982 1.67116 4.94088C1.4503 5.60897 1.49861 6.31295 1.80781 6.94239C1.95137 7.23227 2.09492 7.43242 2.32958 7.66294C2.55044 7.88103 2.72575 8.00664 2.99629 8.1433C3.36209 8.32964 3.77067 8.42627 4.18616 8.42627C4.97434 8.42627 5.71559 8.08118 6.21665 7.48073C7.0421 6.49378 7.04486 5.05959 6.22632 4.07954C5.79979 3.56881 5.2159 3.24167 4.56161 3.14643C4.38079 3.12158 3.98739 3.12158 3.80794 3.14781Z" fill="white"/>
<path d="M10.231 5.70228C9.96735 5.74645 9.80171 5.82237 9.64021 5.9742C9.21644 6.37589 9.21782 7.05364 9.64297 7.4429C9.88729 7.66651 10.1427 7.73553 10.6589 7.71897C11.0123 7.70654 11.1917 7.65271 11.3864 7.49535C11.6321 7.29934 11.7646 7.02327 11.7646 6.70855C11.7646 6.24475 11.4678 5.85825 11.0109 5.7285C10.946 5.70918 10.8577 5.70366 10.5968 5.70089C10.4146 5.69813 10.2503 5.69951 10.231 5.70228Z" fill="white"/>
<path d="M8.8632 7.76395C8.72241 7.80122 8.6037 7.86057 8.40493 7.99585C8.30968 8.06073 7.92457 8.30505 7.54911 8.54109L6.86584 8.96762L5.18871 9.02145C4.26663 9.05182 3.42462 9.08218 3.31833 9.08909C2.5412 9.1443 1.96421 9.5308 1.49351 10.3121C1.31958 10.5992 1.25609 10.7607 1.11529 11.2769C0.941368 11.9078 0.828179 12.5482 0.763303 13.2439C0.730174 13.5987 0.730174 14.351 0.761923 14.6588C0.835081 15.3338 0.927565 15.643 1.15808 15.9839C1.58875 16.6175 2.38107 16.9778 3.40806 17.0082C3.81112 17.0192 4.1493 16.9806 4.38396 16.8964C4.41847 16.8839 4.94301 16.8204 5.63456 16.7418L6.82581 16.6092L7.60846 16.9281C8.03913 17.1034 8.4353 17.269 8.48913 17.2967C8.54296 17.3229 8.65339 17.3671 8.73345 17.3947C8.93084 17.4609 9.12409 17.4733 9.25937 17.4264C9.42501 17.3712 9.55476 17.2511 9.65691 17.0579C9.80874 16.7735 9.80736 16.503 9.65553 16.2724C9.56304 16.1344 9.40154 15.995 9.17792 15.8638C9.12133 15.8307 8.71137 15.5698 8.26689 15.2841C7.82242 14.9997 7.44144 14.7568 7.41798 14.7444C7.23715 14.6533 6.75817 14.5843 6.09974 14.5553C5.92858 14.5484 5.78088 14.5415 5.7726 14.5415C5.75879 14.5415 5.75465 14.2074 5.75465 12.9154V11.2907L6.32474 11.1845C6.6367 11.1251 6.94728 11.0671 7.01491 11.0561C7.24681 11.0147 7.46905 10.9194 7.67196 10.7745C7.76306 10.7096 8.84388 9.73233 9.40844 9.20504C9.67347 8.95657 9.7839 8.744 9.76733 8.5052C9.75491 8.29953 9.65 8.09661 9.47056 7.92821C9.28421 7.75291 9.09786 7.70321 8.8632 7.76395Z" fill="white"/>
<path d="M13.6134 9.68117C13.2807 9.76399 13.0115 10.0097 12.8997 10.3299C12.6968 10.9083 13.0557 11.5267 13.6631 11.6496C13.7542 11.6689 13.8977 11.6703 14.6873 11.6675C15.5928 11.662 15.6066 11.662 15.706 11.6316C15.844 11.5888 15.9503 11.5336 16.058 11.4466C16.4735 11.1112 16.5604 10.5425 16.2637 10.0925C16.1463 9.91583 15.9627 9.7778 15.7433 9.7005L15.6328 9.66185L14.6735 9.65909C13.7873 9.65633 13.7059 9.65771 13.6134 9.68117Z" fill="white"/>
<path d="M12.5146 12.2571C12.2979 12.2971 12.124 12.3923 11.9652 12.5594C11.6381 12.9044 11.5953 13.4124 11.8589 13.81C11.979 13.9894 12.1695 14.1343 12.3835 14.2075L12.4939 14.2448L14.6031 14.2489C16.9731 14.253 16.7923 14.26 17.0283 14.1454C17.1388 14.0915 17.1774 14.0639 17.2837 13.9563C17.4839 13.7547 17.5639 13.5725 17.5763 13.2923C17.5833 13.1529 17.5791 13.1074 17.5556 13.0121C17.4797 12.7112 17.2796 12.4655 17.0076 12.3385C16.7868 12.2364 16.9814 12.2446 14.6818 12.2419C12.9798 12.2391 12.6002 12.2419 12.5146 12.2571Z" fill="white"/>
<path d="M11.3384 14.8517C11.1286 14.8987 10.9906 14.976 10.8346 15.1333C10.6414 15.3279 10.5613 15.5143 10.5489 15.7904C10.542 15.9312 10.5461 15.9753 10.571 16.0733C10.6593 16.4295 10.9009 16.6821 11.2694 16.8063L11.3661 16.8394L14.5892 16.8436C18.1298 16.8477 17.9062 16.8519 18.1215 16.7649C18.5259 16.6006 18.7896 16.1451 18.7302 15.7131C18.6819 15.3625 18.4831 15.085 18.1712 14.9345C17.9379 14.8227 18.2374 14.831 14.6347 14.8324C12.0024 14.8324 11.4061 14.8365 11.3384 14.8517Z" fill="white"/>
</svg>
