<svg width="30" height="30" viewBox="0 0 30 30" fill="none" xmlns="http://www.w3.org/2000/svg">
<path fill-rule="evenodd" clip-rule="evenodd" d="M4 8.42395C4 5.98067 5.98067 4 8.42395 4H11.0263C11.4574 4 11.807 4.34953 11.807 4.7807C11.807 5.21186 11.4574 5.5614 11.0263 5.5614H8.42395C6.84301 5.5614 5.5614 6.84301 5.5614 8.42395V11.0263C5.5614 11.4574 5.21186 11.807 4.7807 11.807C4.34953 11.807 4 11.4574 4 11.0263V8.42395ZM18.573 4.7807C18.573 4.34953 18.9226 4 19.3537 4H21.956C24.3993 4 26.38 5.98067 26.38 8.42395V11.0263C26.38 11.4574 26.0305 11.807 25.5993 11.807C25.1681 11.807 24.8186 11.4574 24.8186 11.0263V8.42395C24.8186 6.84301 23.537 5.5614 21.956 5.5614H19.3537C18.9226 5.5614 18.573 5.21186 18.573 4.7807ZM4.7807 18.573C5.21186 18.573 5.5614 18.9226 5.5614 19.3537V21.956C5.5614 23.537 6.84301 24.8186 8.42395 24.8186H11.0263C11.4574 24.8186 11.807 25.1681 11.807 25.5993C11.807 26.0305 11.4574 26.38 11.0263 26.38H8.42395C5.98067 26.38 4 24.3993 4 21.956V19.3537C4 18.9226 4.34953 18.573 4.7807 18.573Z" fill="white"/>
<path fill-rule="evenodd" clip-rule="evenodd" d="M7.90405 10.4187C7.90405 9.02934 9.03032 7.90308 10.4196 7.90308H12.2491C13.6385 7.90308 14.7647 9.02934 14.7647 10.4187V12.2482C14.7647 13.6375 13.6385 14.7638 12.2491 14.7638H10.4196C9.03032 14.7638 7.90405 13.6375 7.90405 12.2482V10.4187ZM10.4196 9.27521C9.78812 9.27521 9.27619 9.78715 9.27619 10.4187V12.2482C9.27619 12.8797 9.78812 13.3916 10.4196 13.3916H12.2491C12.8807 13.3916 13.3926 12.8797 13.3926 12.2482V10.4187C13.3926 9.78715 12.8807 9.27521 12.2491 9.27521H10.4196ZM7.90405 18.6515C7.90405 17.2621 9.03032 16.1359 10.4196 16.1359H12.2491C13.6385 16.1359 14.7647 17.2621 14.7647 18.6515V20.481C14.7647 21.8703 13.6385 22.9966 12.2491 22.9966H10.4196C9.03032 22.9966 7.90405 21.8703 7.90405 20.481V18.6515ZM10.4196 17.508C9.78812 17.508 9.27619 18.0199 9.27619 18.6515V20.481C9.27619 21.1125 9.78812 21.6244 10.4196 21.6244H12.2491C12.8807 21.6244 13.3926 21.1125 13.3926 20.481V18.6515C13.3926 18.0199 12.8807 17.508 12.2491 17.508H10.4196ZM16.1369 10.4187C16.1369 9.02934 17.2631 7.90308 18.6524 7.90308H20.482C21.8713 7.90308 22.9975 9.02934 22.9975 10.4187V12.2482C22.9975 13.6375 21.8713 14.7638 20.482 14.7638H18.6524C17.2631 14.7638 16.1369 13.6375 16.1369 12.2482V10.4187ZM18.6524 9.27521C18.0209 9.27521 17.509 9.78715 17.509 10.4187V12.2482C17.509 12.8797 18.0209 13.3916 18.6524 13.3916H20.482C21.1135 13.3916 21.6254 12.8797 21.6254 12.2482V10.4187C21.6254 9.78715 21.1135 9.27521 20.482 9.27521H18.6524ZM16.1369 18.6515C16.1369 17.2621 17.2631 16.1359 18.6524 16.1359H20.482C21.8713 16.1359 22.9975 17.2621 22.9975 18.6515V20.481C22.9975 21.8703 21.8713 22.9966 20.482 22.9966H18.6524C17.2631 22.9966 16.1369 21.8703 16.1369 20.481V18.6515ZM18.6524 17.508C18.0209 17.508 17.509 18.0199 17.509 18.6515V20.481C17.509 21.1125 18.0209 21.6244 18.6524 21.6244H20.482C21.1135 21.6244 21.6254 21.1125 21.6254 20.481V18.6515C21.6254 18.0199 21.1135 17.508 20.482 17.508H18.6524Z" fill="white"/>
<path d="M26.3801 19.3537C26.3801 18.9225 26.0306 18.573 25.5994 18.573C25.1683 18.573 24.8187 18.9225 24.8187 19.3537L24.8187 21.956C24.8187 23.537 23.5371 24.8186 21.9562 24.8186L19.3538 24.8186C18.9227 24.8186 18.5731 25.1681 18.5731 25.5993C18.5731 26.0304 18.9227 26.38 19.3538 26.38L21.9562 26.38C24.3995 26.38 26.3801 24.3993 26.3801 21.956L26.3801 19.3537Z" fill="white"/>
</svg>
