<svg width="30" height="30" viewBox="0 0 30 30" fill="none" xmlns="http://www.w3.org/2000/svg">
<path fill-rule="evenodd" clip-rule="evenodd" d="M3.5 8.42395C3.5 5.98067 5.48067 4 7.92395 4H10.5263C10.9574 4 11.307 4.34953 11.307 4.7807C11.307 5.21186 10.9574 5.5614 10.5263 5.5614H7.92395C6.34301 5.5614 5.0614 6.84301 5.0614 8.42395V11.0263C5.0614 11.4574 4.71186 11.807 4.2807 11.807C3.84953 11.807 3.5 11.4574 3.5 11.0263V8.42395ZM18.073 4.7807C18.073 4.34953 18.4226 4 18.8537 4H21.456C23.8993 4 25.88 5.98067 25.88 8.42395V11.0263C25.88 11.4574 25.5305 11.807 25.0993 11.807C24.6681 11.807 24.3186 11.4574 24.3186 11.0263V8.42395C24.3186 6.84301 23.037 5.5614 21.456 5.5614H18.8537C18.4226 5.5614 18.073 5.21186 18.073 4.7807ZM4.2807 18.573C4.71186 18.573 5.0614 18.9226 5.0614 19.3537V21.956C5.0614 23.537 6.34301 24.8186 7.92395 24.8186H10.5263C10.9574 24.8186 11.307 25.1681 11.307 25.5993C11.307 26.0305 10.9574 26.38 10.5263 26.38H7.92395C5.48067 26.38 3.5 24.3993 3.5 21.956V19.3537C3.5 18.9226 3.84953 18.573 4.2807 18.573Z" fill="white"/>
<path fill-rule="evenodd" clip-rule="evenodd" d="M3.6333 15.19C3.6333 14.6745 4.05121 14.2566 4.56672 14.2566H24.9465C25.462 14.2566 25.8799 14.6745 25.8799 15.19C25.8799 15.7055 25.462 16.1234 24.9465 16.1234H4.56672C4.05121 16.1234 3.6333 15.7055 3.6333 15.19Z" fill="white"/>
<path d="M25.8801 19.3537C25.8801 18.9225 25.5306 18.573 25.0994 18.573C24.6683 18.573 24.3187 18.9225 24.3187 19.3537L24.3187 21.956C24.3187 23.537 23.0371 24.8186 21.4562 24.8186L18.8538 24.8186C18.4227 24.8186 18.0731 25.1681 18.0731 25.5993C18.0731 26.0304 18.4227 26.38 18.8538 26.38L21.4562 26.38C23.8995 26.38 25.8801 24.3993 25.8801 21.956L25.8801 19.3537Z" fill="white"/>
</svg>
