<svg width="24" height="24" viewBox="0 0 24 24" fill="none" xmlns="http://www.w3.org/2000/svg">
<rect width="24" height="24" rx="12" fill="#EF9438"/>
<path d="M17.8871 17.8832C17.7137 17.8832 17.5473 17.8143 17.4247 17.6917C17.302 17.569 17.2331 17.4027 17.2331 17.2292V14.6132H14.6171C14.4436 14.6132 14.2773 14.5443 14.1546 14.4216C14.032 14.299 13.9631 14.1326 13.9631 13.9592C13.9631 13.7857 14.032 13.6194 14.1546 13.4967C14.2773 13.3741 14.4436 13.3052 14.6171 13.3052H17.8871C18.0606 13.3052 18.2269 13.3741 18.3496 13.4967C18.4722 13.6194 18.5411 13.7857 18.5411 13.9592V17.2292C18.5411 17.4027 18.4722 17.569 18.3496 17.6917C18.2269 17.8143 18.0606 17.8832 17.8871 17.8832ZM9.385 10.6891H6.11495C5.94149 10.6891 5.77514 10.6202 5.65249 10.4976C5.52984 10.3749 5.46094 10.2086 5.46094 10.0351V6.76506C5.46094 6.59161 5.52984 6.42526 5.65249 6.30261C5.77514 6.17996 5.94149 6.11105 6.11495 6.11105C6.2884 6.11105 6.45475 6.17996 6.5774 6.30261C6.70005 6.42526 6.76896 6.59161 6.76896 6.76506V9.3811H9.385C9.55845 9.3811 9.7248 9.45001 9.84745 9.57266C9.9701 9.69531 10.039 9.86166 10.039 10.0351C10.039 10.2086 9.9701 10.3749 9.84745 10.4976C9.7248 10.6202 9.55845 10.6891 9.385 10.6891Z" fill="white"/>
<path d="M12.0019 18.5376C10.3928 18.5379 8.84015 17.945 7.6408 16.8723C6.44145 15.7997 5.67962 14.3225 5.50102 12.7234C5.49157 12.6375 5.49913 12.5506 5.52327 12.4677C5.54741 12.3847 5.58765 12.3073 5.6417 12.2399C5.75086 12.1038 5.90963 12.0166 6.08308 11.9975C6.25654 11.9784 6.43047 12.029 6.56661 12.1382C6.70275 12.2473 6.78996 12.4061 6.80904 12.5795C6.93831 13.7585 7.46432 14.8586 8.30083 15.6994C9.13735 16.5402 10.2347 17.0719 11.413 17.2072C12.5913 17.3425 13.7807 17.0735 14.786 16.4442C15.7913 15.8149 16.553 14.8627 16.9462 13.7437C16.9707 13.6577 17.0126 13.5776 17.0693 13.5084C17.126 13.4392 17.1963 13.3824 17.2758 13.3415C17.3554 13.3005 17.4424 13.2764 17.5317 13.2704C17.6209 13.2645 17.7104 13.2769 17.7947 13.3069C17.879 13.3369 17.9562 13.3839 18.0215 13.445C18.0869 13.506 18.1391 13.5798 18.1748 13.6618C18.2105 13.7439 18.229 13.8323 18.2292 13.9218C18.2293 14.0112 18.2111 14.0997 18.1757 14.1819C17.7237 15.4574 16.8872 16.5614 15.7814 17.3415C14.6757 18.1216 13.3551 18.5395 12.0019 18.5376ZM17.8487 11.9975C17.687 11.9985 17.5307 11.9395 17.41 11.832C17.2892 11.7245 17.2125 11.5761 17.1947 11.4154C17.0597 10.2421 16.5316 9.14894 15.6964 8.31383C14.8612 7.47873 13.768 6.95077 12.5946 6.81585C11.4213 6.68093 10.2368 6.94698 9.23384 7.57073C8.23089 8.19447 7.46849 9.13921 7.07064 10.2513C7.04612 10.3373 7.00422 10.4174 6.94752 10.4865C6.89082 10.5557 6.82054 10.6125 6.74101 10.6535C6.66148 10.6944 6.5744 10.7186 6.48515 10.7245C6.3959 10.7305 6.30639 10.7181 6.22213 10.688C6.13788 10.658 6.06068 10.611 5.9953 10.55C5.92993 10.4889 5.87778 10.4151 5.84207 10.3331C5.80635 10.2511 5.78784 10.1626 5.78767 10.0732C5.78751 9.98375 5.80569 9.89522 5.8411 9.81308C6.33352 8.41617 7.28554 7.22777 8.54134 6.44239C9.79714 5.65701 11.2823 5.32116 12.7539 5.48981C14.2254 5.65846 15.5961 6.32163 16.6417 7.37077C17.6872 8.41991 18.3457 9.79288 18.5093 11.265C18.5277 11.4366 18.4775 11.6085 18.3697 11.7432C18.2619 11.878 18.1052 11.9647 17.9337 11.9844L17.8487 11.9975Z" fill="white"/>
</svg>
