<svg width="20" height="24" viewBox="0 0 20 24" fill="none" xmlns="http://www.w3.org/2000/svg">
<path d="M9.01922 0.000170092L9.19612 0.019597L19.1962 2.0201C19.6052 2.10193 19.9139 2.42645 19.9846 2.82572L20 3.00092V20.9992C20 21.4163 19.7424 21.7828 19.3649 21.9306L19.1962 21.9801L9.19612 23.9806C8.90234 24.0394 8.5977 23.9632 8.36602 23.7733C8.18066 23.6213 8.05762 23.4092 8.01582 23.177L8 22.9997V1.00042L8.01582 0.823145C8.05762 0.590967 8.18066 0.378878 8.36602 0.226888C8.55136 0.0748984 8.7834 -0.00417717 9.01922 0.000170092ZM4.99975 2.00067C5.55217 2.00067 6 2.4485 6 3.00092C6 3.55334 5.55217 4.00117 4.99975 4.00117H2V19.999H4.99975C5.55217 19.999 6 20.4468 6 20.9992C6 21.5516 5.55217 21.9995 4.99975 21.9995H1C0.509084 21.9995 0.100784 21.6456 0.0161114 21.179L0 20.9992V3.00092C0 2.50988 0.353754 2.10148 0.82025 2.01679L1 2.00067H4.99975ZM10 2.22055V21.7796L18 20.1792V3.82095L10 2.22055ZM13 10.9997C13.5523 10.9997 14 11.4476 14 12C14 12.5524 13.5523 13.0002 13 13.0002C12.4477 13.0002 12 12.5524 12 12C12 11.4476 12.4477 10.9997 13 10.9997Z" fill="white"/>
</svg>
