<svg width="51" height="51" viewBox="0 0 51 51" fill="none" xmlns="http://www.w3.org/2000/svg">
<rect x="1" y="1" width="48.8892" height="48.8892" rx="10" fill="#B01AA7"/>
<path d="M25.0192 14.0002L25.1961 14.0196L35.1962 16.0201C35.6052 16.1019 35.9139 16.4264 35.9846 16.8257L36 17.0009V34.9992C36 35.4163 35.7424 35.7828 35.3649 35.9306L35.1962 35.9801L25.1961 37.9806C24.9023 38.0394 24.5977 37.9632 24.366 37.7733C24.1807 37.6213 24.0576 37.4092 24.0158 37.177L24 36.9997V15.0004L24.0158 14.8231C24.0576 14.591 24.1807 14.3789 24.366 14.2269C24.5514 14.0749 24.7834 13.9958 25.0192 14.0002ZM20.9998 16.0007C21.5522 16.0007 22 16.4485 22 17.0009C22 17.5533 21.5522 18.0012 20.9998 18.0012H18V33.999H20.9998C21.5522 33.999 22 34.4468 22 34.9992C22 35.5516 21.5522 35.9995 20.9998 35.9995H17C16.5091 35.9995 16.1008 35.6456 16.0161 35.179L16 34.9992V17.0009C16 16.5099 16.3538 16.1015 16.8203 16.0168L17 16.0007H20.9998ZM26 16.2205V35.7796L34 34.1792V17.8209L26 16.2205ZM29 24.9997C29.5523 24.9997 30 25.4476 30 26C30 26.5524 29.5523 27.0002 29 27.0002C28.4477 27.0002 28 26.5524 28 26C28 25.4476 28.4477 24.9997 29 24.9997Z" fill="white"/>
</svg>
