<svg width="30" height="30" viewBox="0 0 30 30" fill="none" xmlns="http://www.w3.org/2000/svg">
<rect width="30" height="30" rx="15" fill="#B01AA7" fill-opacity="0.15"/>
<path d="M21.492 16.4267H8.5078C8.06418 16.4267 7.69629 16.0589 7.69629 15.6152C7.69629 15.1716 8.06418 14.8037 8.5078 14.8037H21.492C21.9357 14.8037 22.3036 15.1716 22.3036 15.6152C22.3036 16.0589 21.9357 16.4267 21.492 16.4267Z" fill="#B01AA7"/>
<path d="M15 22.9188C14.5564 22.9188 14.1885 22.5509 14.1885 22.1073V9.12304C14.1885 8.67941 14.5564 8.31152 15 8.31152C15.4436 8.31152 15.8115 8.67941 15.8115 9.12304V22.1073C15.8115 22.5509 15.4436 22.9188 15 22.9188Z" fill="#B01AA7"/>
</svg>
