<svg width="35" height="35" viewBox="0 0 35 35" fill="none" xmlns="http://www.w3.org/2000/svg">
<rect width="35" height="35" rx="17.5" fill="#F0F0F0"/>
<mask id="path-2-inside-1_1023_29986" fill="white">
<path fill-rule="evenodd" clip-rule="evenodd" d="M21.3387 10.6448C22.0959 10.6448 22.7097 10.031 22.7097 9.27387C22.7097 9.24734 22.7089 9.22098 22.7074 9.19482C23.63 9.35435 24.3014 9.64429 24.8284 10.1713C26 11.3428 26 13.2285 26 16.9997V17.9998C26 21.771 26 23.6566 24.8284 24.8282C23.6569 25.9998 21.7712 25.9998 18 25.9998H17C13.2288 25.9998 11.3431 25.9998 10.1716 24.8282C9 23.6566 9 21.771 9 17.9998V16.9997C9 13.2285 9 11.3428 10.1716 10.1713C10.6986 9.64429 11.37 9.35435 12.2926 9.19482C12.2911 9.22098 12.2903 9.24734 12.2903 9.27387C12.2903 10.031 12.9041 10.6448 13.6613 10.6448C14.4184 10.6448 15.0323 10.031 15.0323 9.27387C15.0323 9.18301 15.0234 9.09421 15.0065 9.00829C15.3666 9.00313 15.7492 9.00107 16.1563 9.00024C16.1384 9.08866 16.129 9.18017 16.129 9.27387C16.129 10.031 16.7428 10.6448 17.5 10.6448C18.2572 10.6448 18.871 10.031 18.871 9.27387C18.871 9.18017 18.8616 9.08866 18.8437 9.00024C19.2508 9.00107 19.6334 9.00313 19.9934 9.00829C19.9766 9.09421 19.9677 9.18301 19.9677 9.27387C19.9677 10.031 20.5815 10.6448 21.3387 10.6448Z"/>
</mask>
<path d="M22.7074 9.19482L22.9971 7.51968L20.8888 7.15512L21.0102 9.29128L22.7074 9.19482ZM24.8284 10.1713L26.0305 8.96919V8.96919L24.8284 10.1713ZM10.1716 10.1713L11.3737 11.3734H11.3737L10.1716 10.1713ZM12.2926 9.19482L13.9898 9.29131L14.1113 7.15511L12.0029 7.51968L12.2926 9.19482ZM15.0065 9.00829L14.9822 7.30847L12.9462 7.33769L13.3384 9.33574L15.0065 9.00829ZM16.1563 9.00024L17.8225 9.33772L18.236 7.29604L16.1529 7.30025L16.1563 9.00024ZM18.8437 9.00024L18.8471 7.30025L16.764 7.29604L17.1775 9.33772L18.8437 9.00024ZM19.9934 9.00829L21.6616 9.33573L22.0538 7.33769L20.0178 7.30847L19.9934 9.00829ZM21.0097 9.27387C21.0097 9.09216 21.157 8.94485 21.3387 8.94485V12.3448C23.0348 12.3448 24.4097 10.9699 24.4097 9.27387H21.0097ZM21.0102 9.29128C21.0098 9.28538 21.0097 9.27957 21.0097 9.27387H24.4097C24.4097 9.21511 24.408 9.15659 24.4047 9.09836L21.0102 9.29128ZM22.4178 10.87C23.1279 10.9928 23.4284 11.1754 23.6263 11.3734L26.0305 8.96919C25.1745 8.11316 24.132 7.71593 22.9971 7.51968L22.4178 10.87ZM23.6263 11.3734C23.8436 11.5906 24.0476 11.9364 24.1687 12.8371C24.2964 13.7868 24.3 15.066 24.3 16.9997H27.7C27.7 15.1621 27.7036 13.613 27.5384 12.3841C27.3666 11.1063 26.9848 9.92348 26.0305 8.96919L23.6263 11.3734ZM24.3 16.9997V17.9998H27.7V16.9997H24.3ZM24.3 17.9998C24.3 19.9334 24.2964 21.2127 24.1687 22.1623C24.0476 23.0631 23.8436 23.4088 23.6263 23.6261L26.0305 26.0303C26.9848 25.076 27.3666 23.8931 27.5384 22.6154C27.7036 21.3865 27.7 19.8373 27.7 17.9998H24.3ZM23.6263 23.6261C23.4091 23.8434 23.0633 24.0474 22.1626 24.1685C21.2129 24.2961 19.9337 24.2998 18 24.2998V27.6998C19.8376 27.6998 21.3867 27.7034 22.6156 27.5382C23.8934 27.3664 25.0762 26.9846 26.0305 26.0303L23.6263 23.6261ZM18 24.2998H17V27.6998H18V24.2998ZM17 24.2998C15.0663 24.2998 13.7871 24.2961 12.8374 24.1685C11.9367 24.0474 11.5909 23.8434 11.3737 23.6261L8.96949 26.0303C9.92379 26.9846 11.1066 27.3664 12.3844 27.5382C13.6133 27.7034 15.1624 27.6998 17 27.6998V24.2998ZM11.3737 23.6261C11.1564 23.4088 10.9524 23.0631 10.8313 22.1623C10.7036 21.2127 10.7 19.9334 10.7 17.9998H7.3C7.3 19.8373 7.29639 21.3865 7.46161 22.6154C7.6334 23.8931 8.0152 25.076 8.96949 26.0303L11.3737 23.6261ZM10.7 17.9998V16.9997H7.3V17.9998H10.7ZM10.7 16.9997C10.7 15.066 10.7036 13.7868 10.8313 12.8371C10.9524 11.9364 11.1564 11.5906 11.3737 11.3734L8.96949 8.96919C8.0152 9.92348 7.6334 11.1063 7.46161 12.3841C7.29639 13.613 7.3 15.1621 7.3 16.9997H10.7ZM11.3737 11.3734C11.5716 11.1754 11.8721 10.9928 12.5822 10.87L12.0029 7.51968C10.8679 7.71593 9.82551 8.11317 8.96949 8.96919L11.3737 11.3734ZM10.5953 9.09833C10.592 9.15661 10.5903 9.21514 10.5903 9.27387H13.9903C13.9903 9.27954 13.9902 9.28536 13.9898 9.29131L10.5953 9.09833ZM10.5903 9.27387C10.5903 10.9699 11.9652 12.3448 13.6613 12.3448V8.94485C13.843 8.94485 13.9903 9.09216 13.9903 9.27387H10.5903ZM13.6613 12.3448C15.3573 12.3448 16.7323 10.9699 16.7323 9.27387H13.3323C13.3323 9.09216 13.4796 8.94485 13.6613 8.94485V12.3448ZM16.7323 9.27387C16.7323 9.07251 16.7126 8.87406 16.6747 8.68085L13.3384 9.33574C13.3342 9.31437 13.3323 9.29351 13.3323 9.27387H16.7323ZM15.0309 10.7081C15.3809 10.7031 15.7556 10.7011 16.1598 10.7002L16.1529 7.30025C15.7429 7.30108 15.3523 7.30316 14.9822 7.30847L15.0309 10.7081ZM14.4902 8.66277C14.4499 8.86165 14.429 9.0662 14.429 9.27387H17.829C17.829 9.29414 17.827 9.31568 17.8225 9.33772L14.4902 8.66277ZM14.429 9.27387C14.429 10.9699 15.8039 12.3448 17.5 12.3448V8.94485C17.6817 8.94485 17.829 9.09216 17.829 9.27387H14.429ZM17.5 12.3448C19.1961 12.3448 20.571 10.9699 20.571 9.27387H17.171C17.171 9.09216 17.3183 8.94485 17.5 8.94485V12.3448ZM20.571 9.27387C20.571 9.0662 20.5501 8.86165 20.5098 8.66277L17.1775 9.33772C17.173 9.31568 17.171 9.29414 17.171 9.27387H20.571ZM18.8402 10.7002C19.2444 10.7011 19.6191 10.7031 19.9691 10.7081L20.0178 7.30847C19.6477 7.30316 19.2571 7.30108 18.8471 7.30025L18.8402 10.7002ZM21.6677 9.27387C21.6677 9.29352 21.6658 9.31437 21.6616 9.33573L18.3253 8.68086C18.2874 8.87405 18.2677 9.0725 18.2677 9.27387H21.6677ZM21.3387 8.94485C21.5204 8.94485 21.6677 9.09216 21.6677 9.27387H18.2677C18.2677 10.9699 19.6427 12.3448 21.3387 12.3448V8.94485Z" fill="#4D4C4C" mask="url(#path-2-inside-1_1023_29986)"/>
<rect x="12.0786" y="13.865" width="4.23964" height="4.23966" rx="1" fill="#4D4C4C"/>
</svg>
