<svg width="30" height="30" viewBox="0 0 30 30" fill="none" xmlns="http://www.w3.org/2000/svg">
<mask id="path-1-inside-1_1560_33901" fill="white">
<path fill-rule="evenodd" clip-rule="evenodd" d="M20.4197 5.32251C21.4887 5.32251 22.3552 4.45594 22.3552 3.38697C22.3552 3.27227 22.3453 3.15991 22.3261 3.0507C24.0079 3.1444 25.0689 3.41131 25.8291 4.17157C27.0007 5.34315 27.0007 7.22876 27.0007 11V19.0008C27.0007 22.772 27.0007 24.6576 25.8291 25.8292C24.6575 27.0008 22.7719 27.0008 19.0007 27.0008H11C7.22877 27.0008 5.34315 27.0008 4.17157 25.8292C3 24.6576 3 22.772 3 19.0008V11C3 7.22876 3 5.34315 4.17157 4.17157C4.9318 3.41135 5.99269 3.14443 7.67434 3.05071C7.65521 3.15991 7.64524 3.27226 7.64524 3.38693C7.64524 4.45591 8.51181 5.32248 9.58078 5.32248C10.6497 5.32248 11.5163 4.45591 11.5163 3.38693C11.5163 3.25442 11.503 3.12502 11.4776 3H13.1035C13.0781 3.12503 13.0648 3.25445 13.0648 3.38697C13.0648 4.45594 13.9313 5.32251 15.0003 5.32251C16.0693 5.32251 16.9359 4.45594 16.9359 3.38697C16.9359 3.25445 16.9225 3.12503 16.8972 3H18.5229C18.4975 3.12503 18.4842 3.25445 18.4842 3.38697C18.4842 4.45594 19.3507 5.32251 20.4197 5.32251Z"/>
</mask>
<path d="M22.3261 3.0507L22.4207 1.35333L20.282 1.23417L20.6516 3.34402L22.3261 3.0507ZM25.8291 4.17157L24.627 5.37365V5.37365L25.8291 4.17157ZM25.8291 25.8292L24.627 24.6271L24.627 24.6271L25.8291 25.8292ZM4.17157 25.8292L5.37365 24.6271H5.37365L4.17157 25.8292ZM7.67434 3.05071L9.34885 3.344L9.71838 1.23416L7.57974 1.35334L7.67434 3.05071ZM11.4776 3V1.3H9.39809L9.81158 3.33802L11.4776 3ZM13.1035 3L14.7695 3.33806L15.183 1.3H13.1035V3ZM16.8972 3V1.3H14.8176L15.2311 3.33806L16.8972 3ZM18.5229 3L20.1889 3.33806L20.6024 1.3H18.5229V3ZM20.6552 3.38697C20.6552 3.51706 20.5498 3.62251 20.4197 3.62251V7.02251C22.4276 7.02251 24.0552 5.39482 24.0552 3.38697H20.6552ZM20.6516 3.34402C20.6539 3.35682 20.6552 3.37105 20.6552 3.38697H24.0552C24.0552 3.1735 24.0367 2.963 24.0006 2.75738L20.6516 3.34402ZM22.2316 4.74806C23.8484 4.83815 24.3417 5.08833 24.627 5.37365L27.0312 2.96949C25.796 1.7343 24.1674 1.45065 22.4207 1.35333L22.2316 4.74806ZM24.627 5.37365C24.8443 5.59093 25.0483 5.93669 25.1694 6.83743C25.2971 7.78708 25.3007 9.06632 25.3007 11H28.7007C28.7007 9.16244 28.7043 7.61325 28.5391 6.38439C28.3673 5.10663 27.9855 3.92378 27.0312 2.96949L24.627 5.37365ZM25.3007 11V19.0008H28.7007V11H25.3007ZM25.3007 19.0008C25.3007 20.9345 25.2971 22.2137 25.1694 23.1633C25.0483 24.0641 24.8443 24.4098 24.627 24.6271L27.0312 27.0313C27.9855 26.077 28.3673 24.8941 28.5391 23.6164C28.7043 22.3875 28.7007 20.8383 28.7007 19.0008H25.3007ZM24.627 24.6271C24.4098 24.8444 24.064 25.0484 23.1633 25.1695C22.2136 25.2972 20.9344 25.3008 19.0007 25.3008V28.7008C20.8382 28.7008 22.3874 28.7044 23.6163 28.5392C24.8941 28.3674 26.0769 27.9856 27.0312 27.0313L24.627 24.6271ZM19.0007 25.3008H11V28.7008H19.0007V25.3008ZM11 25.3008C9.06633 25.3008 7.78708 25.2972 6.83744 25.1695C5.93669 25.0484 5.59093 24.8444 5.37365 24.6271L2.96949 27.0313C3.92378 27.9856 5.10663 28.3674 6.38439 28.5392C7.61326 28.7044 9.16244 28.7008 11 28.7008V25.3008ZM5.37365 24.6271C5.15638 24.4098 4.95239 24.0641 4.83129 23.1633C4.70361 22.2137 4.7 20.9345 4.7 19.0008H1.3C1.3 20.8383 1.29639 22.3875 1.46161 23.6164C1.6334 24.8941 2.0152 26.077 2.96949 27.0313L5.37365 24.6271ZM4.7 19.0008V11H1.3V19.0008H4.7ZM4.7 11C4.7 9.06632 4.70361 7.78708 4.83129 6.83743C4.95239 5.93669 5.15637 5.59093 5.37365 5.37365L2.96949 2.96949C2.0152 3.92378 1.6334 5.10662 1.46161 6.38439C1.29639 7.61325 1.3 9.16244 1.3 11H4.7ZM5.37365 5.37365C5.65897 5.08834 6.15223 4.83817 7.76893 4.74808L7.57974 1.35334C5.83315 1.45068 4.20463 1.73435 2.96949 2.96949L5.37365 5.37365ZM5.99983 2.75742C5.96381 2.96304 5.94524 3.17351 5.94524 3.38693H9.34524C9.34524 3.371 9.34661 3.35678 9.34885 3.344L5.99983 2.75742ZM5.94524 3.38693C5.94524 5.39478 7.57292 7.02248 9.58078 7.02248V3.62248C9.4507 3.62248 9.34524 3.51703 9.34524 3.38693H5.94524ZM9.58078 7.02248C11.5886 7.02248 13.2163 5.39478 13.2163 3.38693H9.81632C9.81632 3.51703 9.71086 3.62248 9.58078 3.62248V7.02248ZM13.2163 3.38693C13.2163 3.14025 13.1915 2.89763 13.1437 2.66198L9.81158 3.33802C9.8145 3.35242 9.81632 3.36859 9.81632 3.38693H13.2163ZM11.4776 4.7H13.1035V1.3H11.4776V4.7ZM11.4374 2.66194C11.3896 2.89762 11.3648 3.14027 11.3648 3.38697H14.7648C14.7648 3.36862 14.7666 3.35245 14.7695 3.33806L11.4374 2.66194ZM11.3648 3.38697C11.3648 5.39482 12.9925 7.02251 15.0003 7.02251V3.62251C14.8702 3.62251 14.7648 3.51706 14.7648 3.38697H11.3648ZM15.0003 7.02251C17.0082 7.02251 18.6359 5.39482 18.6359 3.38697H15.2359C15.2359 3.51706 15.1304 3.62251 15.0003 3.62251V7.02251ZM18.6359 3.38697C18.6359 3.14027 18.611 2.89762 18.5632 2.66194L15.2311 3.33806C15.234 3.35245 15.2359 3.36862 15.2359 3.38697H18.6359ZM16.8972 4.7H18.5229V1.3H16.8972V4.7ZM20.1842 3.38697C20.1842 3.36862 20.186 3.35245 20.1889 3.33806L16.8568 2.66194C16.809 2.89762 16.7842 3.14027 16.7842 3.38697H20.1842ZM20.4197 3.62251C20.2896 3.62251 20.1842 3.51706 20.1842 3.38697H16.7842C16.7842 5.39482 18.4118 7.02251 20.4197 7.02251V3.62251Z" fill="white" mask="url(#path-1-inside-1_1560_33901)"/>
<mask id="path-3-inside-2_1560_33901" fill="white">
<rect x="7.34644" y="9.86859" width="5.98555" height="5.98557" rx="1"/>
</mask>
<rect x="7.34644" y="9.86859" width="5.98555" height="5.98557" rx="1" fill="white" stroke="white" stroke-width="3.4" mask="url(#path-3-inside-2_1560_33901)"/>
</svg>
