<svg width="51" height="51" viewBox="0 0 51 51" fill="none" xmlns="http://www.w3.org/2000/svg">
<rect x="1" y="1" width="48.8892" height="48.8892" rx="10" fill="#EF9438"/>
<g clip-path="url(#clip0_1027_30312)">
<path d="M14.5515 30.634L15.5515 32.367C15.9503 33.0555 16.6057 33.5578 17.3742 33.764C18.1427 33.9702 18.9616 33.8634 19.6515 33.467L20.4685 32.995C20.7816 33.2031 21.1076 33.3911 21.4445 33.558V34.5C21.4445 35.2956 21.7605 36.0587 22.3231 36.6213C22.8858 37.1839 23.6488 37.5 24.4445 37.5H26.4445C27.2401 37.5 28.0032 37.1839 28.5658 36.6213C29.1284 36.0587 29.4445 35.2956 29.4445 34.5V33.558C29.7818 33.3902 30.1081 33.2011 30.4215 32.992L31.2385 33.464C31.5799 33.6612 31.9568 33.7892 32.3476 33.8406C32.7385 33.8921 33.1357 33.866 33.5165 33.7638C33.8972 33.6616 34.2542 33.4854 34.5668 33.2452C34.8794 33.0051 35.1416 32.7056 35.3385 32.364L36.3385 30.631C36.5357 30.2896 36.6637 29.9127 36.7151 29.5218C36.7665 29.131 36.7404 28.7338 36.6383 28.353C36.5361 27.9722 36.3599 27.6153 36.1197 27.3027C35.8795 26.99 35.5801 26.7278 35.2385 26.531L34.4235 26.06C34.4515 25.6839 34.4515 25.3061 34.4235 24.93L35.2385 24.459C35.5801 24.2622 35.8795 24 36.1197 23.6873C36.3599 23.3747 36.5361 23.0178 36.6383 22.637C36.7404 22.2562 36.7665 21.859 36.7151 21.4682C36.6637 21.0773 36.5357 20.7004 36.3385 20.359L35.3385 18.626C34.9396 17.9375 34.2842 17.4352 33.5157 17.229C32.7472 17.0228 31.9284 17.1296 31.2385 17.526L30.4215 17.998C30.1078 17.7923 29.7815 17.6066 29.4445 17.442V16.5C29.4445 15.7044 29.1284 14.9413 28.5658 14.3787C28.0032 13.8161 27.2401 13.5 26.4445 13.5H24.4445C23.6488 13.5 22.8858 13.8161 22.3231 14.3787C21.7605 14.9413 21.4445 15.7044 21.4445 16.5V17.442C21.1072 17.6098 20.7808 17.7989 20.4675 18.008L19.6505 17.536C18.9606 17.1396 18.1417 17.0328 17.3732 17.239C16.6047 17.4452 15.9493 17.9475 15.5505 18.636L14.5505 20.369C14.3533 20.7104 14.2253 21.0873 14.1738 21.4782C14.1224 21.869 14.1485 22.2662 14.2507 22.647C14.3528 23.0278 14.529 23.3847 14.7692 23.6973C15.0094 24.01 15.3089 24.2722 15.6505 24.469L16.4655 24.94C16.4375 25.3161 16.4375 25.6939 16.4655 26.07L15.6505 26.541C14.9626 26.9387 14.4606 27.5929 14.2546 28.3602C14.0486 29.1276 14.1553 29.9453 14.5515 30.634ZM16.6515 28.268L18.0305 27.468C18.2021 27.3687 18.3403 27.2206 18.4275 27.0425C18.5148 26.8645 18.5471 26.6645 18.5205 26.468C18.4335 25.8249 18.4335 25.1731 18.5205 24.53C18.5471 24.3335 18.5148 24.1335 18.4275 23.9555C18.3403 23.7774 18.2021 23.6293 18.0305 23.53L16.6515 22.73C16.4222 22.5976 16.2548 22.3796 16.186 22.1239C16.1172 21.8682 16.1526 21.5956 16.2845 21.366L17.2845 19.634C17.4171 19.4043 17.6355 19.2367 17.8917 19.1681C18.1478 19.0995 18.4208 19.1354 18.6505 19.268L20.0285 20.068C20.2016 20.167 20.4003 20.212 20.5992 20.1972C20.798 20.1824 20.9879 20.1085 21.1445 19.985C21.655 19.5851 22.2188 19.2583 22.8195 19.014C23.0041 18.9393 23.1623 18.8112 23.2736 18.646C23.385 18.4808 23.4445 18.2862 23.4445 18.087V16.5C23.4445 16.2348 23.5498 15.9804 23.7374 15.7929C23.9249 15.6054 24.1793 15.5 24.4445 15.5H26.4445C26.7097 15.5 26.964 15.6054 27.1516 15.7929C27.3391 15.9804 27.4445 16.2348 27.4445 16.5V18.087C27.4445 18.2862 27.504 18.4808 27.6153 18.646C27.7267 18.8112 27.8848 18.9393 28.0695 19.014C28.6702 19.2583 29.2339 19.5851 29.7445 19.985C29.9015 20.1078 30.0917 20.1808 30.2905 20.1947C30.4894 20.2086 30.6879 20.1627 30.8605 20.063L32.2385 19.268C32.4681 19.1354 32.7411 19.0995 32.9973 19.1681C33.2534 19.2367 33.4719 19.4043 33.6045 19.634L34.6045 21.366C34.7371 21.5957 34.773 21.8686 34.7044 22.1248C34.6357 22.381 34.4681 22.5994 34.2385 22.732L32.8595 23.532C32.6879 23.6313 32.5496 23.7794 32.4624 23.9575C32.3751 24.1355 32.3428 24.3355 32.3695 24.532C32.4164 24.8526 32.4415 25.176 32.4445 25.5C32.4415 25.8243 32.4165 26.1481 32.3695 26.469C32.3428 26.6655 32.3751 26.8655 32.4624 27.0435C32.5496 27.2216 32.6879 27.3697 32.8595 27.469L34.2385 28.269C34.4681 28.4016 34.6357 28.62 34.7044 28.8762C34.773 29.1324 34.7371 29.4053 34.6045 29.635L33.6045 31.367C33.4719 31.5967 33.2534 31.7643 32.9973 31.8329C32.7411 31.9015 32.4681 31.8656 32.2385 31.733L30.8605 30.938C30.6879 30.8383 30.4894 30.7924 30.2905 30.8063C30.0917 30.8202 29.9015 30.8932 29.7445 31.016C29.2339 31.4159 28.6702 31.7427 28.0695 31.987C27.8848 32.0617 27.7267 32.1898 27.6153 32.355C27.504 32.5202 27.4445 32.7148 27.4445 32.914V34.5C27.4445 34.7652 27.3391 35.0196 27.1516 35.2071C26.964 35.3946 26.7097 35.5 26.4445 35.5H24.4445C24.1793 35.5 23.9249 35.3946 23.7374 35.2071C23.5498 35.0196 23.4445 34.7652 23.4445 34.5V32.913C23.4445 32.7138 23.385 32.5192 23.2736 32.354C23.1623 32.1888 23.0041 32.0607 22.8195 31.986C22.2188 31.7417 21.655 31.4149 21.1445 31.015C20.9852 30.8971 20.7955 30.8272 20.5978 30.8133C20.4001 30.7995 20.2026 30.8424 20.0285 30.937L18.6505 31.732C18.4208 31.8646 18.1478 31.9005 17.8917 31.8319C17.6355 31.7633 17.4171 31.5957 17.2845 31.366L16.2845 29.634C16.1519 29.4043 16.1159 29.1314 16.1846 28.8752C16.2532 28.619 16.4208 28.4006 16.6505 28.268H16.6515Z" fill="white"/>
<path d="M25.4446 30.5C26.4335 30.5 27.4002 30.2068 28.2224 29.6574C29.0447 29.1079 29.6855 28.327 30.064 27.4134C30.4424 26.4998 30.5414 25.4945 30.3485 24.5246C30.1556 23.5546 29.6794 22.6637 28.9801 21.9645C28.2809 21.2652 27.3899 20.789 26.42 20.5961C25.4501 20.4031 24.4448 20.5022 23.5312 20.8806C22.6175 21.259 21.8366 21.8999 21.2872 22.7222C20.7378 23.5444 20.4446 24.5111 20.4446 25.5C20.4462 26.8256 20.9735 28.0964 21.9108 29.0338C22.8481 29.9711 24.119 30.4984 25.4446 30.5ZM25.4446 22.5C26.0379 22.5 26.6179 22.6759 27.1113 23.0056C27.6046 23.3352 27.9892 23.8038 28.2162 24.352C28.4433 24.9001 28.5027 25.5033 28.3869 26.0853C28.2712 26.6672 27.9855 27.2018 27.5659 27.6213C27.1463 28.0409 26.6118 28.3266 26.0299 28.4424C25.4479 28.5581 24.8447 28.4987 24.2965 28.2716C23.7484 28.0446 23.2798 27.6601 22.9502 27.1667C22.6205 26.6734 22.4446 26.0933 22.4446 25.5C22.4446 24.7044 22.7607 23.9413 23.3233 23.3787C23.8859 22.8161 24.6489 22.5 25.4446 22.5Z" fill="white"/>
</g>
<defs>
<clipPath id="clip0_1027_30312">
<rect width="24" height="24" fill="white" transform="translate(13.4446 13.5)"/>
</clipPath>
</defs>
</svg>
