<svg width="118" height="118" viewBox="0 0 118 118" fill="none" xmlns="http://www.w3.org/2000/svg">
<path fill-rule="evenodd" clip-rule="evenodd" d="M80.6254 73.4923L107.524 100.392C108.47 101.338 109 102.621 109 103.958C109 105.296 108.468 106.579 107.522 107.524C106.576 108.47 105.293 109 103.955 109C102.617 109 101.335 108.468 100.389 107.522L73.4907 80.6222C65.4496 86.8504 55.338 89.7814 45.2127 88.8188C35.0874 87.8561 25.7091 83.0723 18.9857 75.4403C12.2622 67.8084 8.69869 57.9017 9.01998 47.7356C9.34127 37.5695 13.5233 27.9076 20.7152 20.7155C27.9071 13.5234 37.5688 9.34128 47.7346 9.01998C57.9005 8.69868 67.8069 12.2623 75.4387 18.9859C83.0704 25.7095 87.8542 35.088 88.8168 45.2136C89.7794 55.3391 86.8485 65.4511 80.6204 73.4923H80.6254ZM49.0019 78.9972C56.958 78.9972 64.5882 75.8366 70.2141 70.2106C75.8399 64.5846 79.0005 56.9542 79.0005 48.9979C79.0005 41.0415 75.8399 33.4111 70.2141 27.7851C64.5882 22.1591 56.958 18.9985 49.0019 18.9985C41.0457 18.9985 33.4155 22.1591 27.7896 27.7851C22.1638 33.4111 19.0033 41.0415 19.0033 48.9979C19.0033 56.9542 22.1638 64.5846 27.7896 70.2106C33.4155 75.8366 41.0457 78.9972 49.0019 78.9972Z" fill="#A8A8A8"/>
<circle cx="37" cy="39" r="5" fill="#A8A8A8"/>
<circle cx="62" cy="39" r="5" fill="#A8A8A8"/>
<path d="M58 62C57.1072 58.7836 54.1944 56 49.5 56C44.8056 56 41.9935 58.9201 41 62" stroke="#A8A8A8" stroke-width="4" stroke-linecap="round"/>
</svg>
