<svg width="30" height="31" viewBox="0 0 30 31" fill="none" xmlns="http://www.w3.org/2000/svg">
<path fill-rule="evenodd" clip-rule="evenodd" d="M18.8929 18.1086L23.7348 22.9505C23.905 23.1208 24.0005 23.3518 24.0004 23.5925C24.0004 23.8333 23.9046 24.0641 23.7343 24.2343C23.564 24.4045 23.3331 24.5001 23.0923 24.5C22.8516 24.4999 22.6207 24.4042 22.4505 24.2339L17.6086 19.392C16.1612 20.5131 14.341 21.0406 12.5184 20.8674C10.6958 20.6941 9.00771 19.833 7.79746 18.4593C6.58722 17.0855 5.94576 15.3023 6.0036 13.4724C6.06143 11.6425 6.81421 9.90337 8.10879 8.60879C9.40337 7.31421 11.1425 6.56143 12.9724 6.5036C14.8023 6.44576 16.5855 7.08722 17.9593 8.29746C19.333 9.50771 20.1941 11.1958 20.3674 13.0184C20.5406 14.841 20.0131 16.6612 18.892 18.1086H18.8929ZM13.2005 19.0995C14.6327 19.0995 16.0061 18.5306 17.0188 17.5179C18.0315 16.5052 18.6004 15.1318 18.6004 13.6996C18.6004 12.2675 18.0315 10.894 17.0188 9.88132C16.0061 8.86865 14.6327 8.29973 13.2005 8.29973C11.7684 8.29973 10.3949 8.86865 9.38222 9.88132C8.36955 10.894 7.80063 12.2675 7.80063 13.6996C7.80063 15.1318 8.36955 16.5052 9.38222 17.5179C10.3949 18.5306 11.7684 19.0995 13.2005 19.0995Z" fill="#A8A8A8"/>
</svg>
