<svg width="20" height="19" viewBox="0 0 20 19" fill="none" xmlns="http://www.w3.org/2000/svg">
<path fill-rule="evenodd" clip-rule="evenodd" d="M19.1745 9.26668C19.1745 9.76871 18.7675 10.1757 18.2655 10.1757L4.1246 10.1757C3.62256 10.1757 3.21559 9.76871 3.21559 9.26668C3.21559 8.76464 3.62256 8.35767 4.1246 8.35767L18.2655 8.35767C18.7675 8.35767 19.1745 8.76465 19.1745 9.26668Z" fill="#D9D9D9"/>
<path fill-rule="evenodd" clip-rule="evenodd" d="M19.1728 9.265C19.1728 9.6142 18.9727 9.93253 18.6581 10.084L1.30339 18.44C0.967574 18.6017 0.567085 18.542 0.293014 18.2894C0.0189425 18.0368 -0.073171 17.6425 0.060624 17.2947L3.14895 9.265L0.0606254 1.23534C-0.0731703 0.887474 0.018943 0.493179 0.293014 0.240594C0.567085 -0.0119915 0.967574 -0.07168 1.30339 0.0900084L18.6581 8.44598C18.9727 8.59747 19.1728 8.9158 19.1728 9.265ZM2.58054 2.72271L4.9713 8.93868C5.05209 9.14873 5.05209 9.38127 4.9713 9.59132L2.58054 15.8073L16.1684 9.265L2.58054 2.72271Z" fill="#D9D9D9"/>
</svg>
