<svg width="25" height="25" viewBox="0 0 25 25" fill="none" xmlns="http://www.w3.org/2000/svg">
<g clip-path="url(#clip0_9362_2009)">
<path d="M1.55147 17.634L2.55147 19.367C2.9503 20.0555 3.60574 20.5578 4.37422 20.764C5.14271 20.9702 5.96158 20.8634 6.65147 20.467L7.46847 19.995C7.7816 20.2031 8.10759 20.3911 8.44447 20.558V21.5C8.44447 22.2956 8.76054 23.0587 9.32315 23.6213C9.88576 24.1839 10.6488 24.5 11.4445 24.5H13.4445C14.2401 24.5 15.0032 24.1839 15.5658 23.6213C16.1284 23.0587 16.4445 22.2956 16.4445 21.5V20.558C16.7818 20.3902 17.1081 20.2011 17.4215 19.992L18.2385 20.464C18.5799 20.6612 18.9568 20.7892 19.3476 20.8406C19.7385 20.8921 20.1357 20.866 20.5165 20.7638C20.8972 20.6616 21.2542 20.4854 21.5668 20.2452C21.8794 20.0051 22.1416 19.7056 22.3385 19.364L23.3385 17.631C23.5357 17.2896 23.6637 16.9127 23.7151 16.5218C23.7665 16.131 23.7404 15.7338 23.6383 15.353C23.5361 14.9722 23.3599 14.6153 23.1197 14.3027C22.8795 13.99 22.5801 13.7278 22.2385 13.531L21.4235 13.06C21.4515 12.6839 21.4515 12.3061 21.4235 11.93L22.2385 11.459C22.5801 11.2622 22.8795 11 23.1197 10.6873C23.3599 10.3747 23.5361 10.0178 23.6383 9.637C23.7404 9.25622 23.7665 8.85903 23.7151 8.46816C23.6637 8.07728 23.5357 7.70038 23.3385 7.359L22.3385 5.626C21.9396 4.93752 21.2842 4.43517 20.5157 4.22899C19.7472 4.02281 18.9284 4.12961 18.2385 4.526L17.4215 4.998C17.1078 4.79229 16.7815 4.60659 16.4445 4.442V3.5C16.4445 2.70435 16.1284 1.94129 15.5658 1.37868C15.0032 0.81607 14.2401 0.5 13.4445 0.5L11.4445 0.5C10.6488 0.5 9.88576 0.81607 9.32315 1.37868C8.76054 1.94129 8.44447 2.70435 8.44447 3.5V4.442C8.10717 4.60983 7.78085 4.79887 7.46747 5.008L6.65047 4.536C5.96058 4.13961 5.14171 4.03281 4.37322 4.23899C3.60474 4.44517 2.9493 4.94752 2.55047 5.636L1.55047 7.369C1.35327 7.71038 1.22528 8.08728 1.17384 8.47816C1.1224 8.86903 1.1485 9.26622 1.25066 9.647C1.35283 10.0278 1.52904 10.3847 1.76923 10.6973C2.00942 11.01 2.30887 11.2722 2.65047 11.469L3.46547 11.94C3.43747 12.3161 3.43747 12.6939 3.46547 13.07L2.65047 13.541C1.96264 13.9387 1.46063 14.5929 1.2546 15.3602C1.04857 16.1276 1.15533 16.9453 1.55147 17.634V17.634ZM3.65147 15.268L5.03047 14.468C5.20209 14.3687 5.3403 14.2206 5.42755 14.0425C5.5148 13.8645 5.54714 13.6645 5.52047 13.468C5.43347 12.8249 5.43347 12.1731 5.52047 11.53C5.54714 11.3335 5.5148 11.1335 5.42755 10.9555C5.3403 10.7774 5.20209 10.6293 5.03047 10.53L3.65147 9.73C3.42217 9.59756 3.25476 9.37958 3.18596 9.12388C3.11716 8.86817 3.15258 8.59562 3.28447 8.366L4.28447 6.634C4.41708 6.40433 4.6355 6.23674 4.89167 6.1681C5.14784 6.09946 5.42079 6.1354 5.65047 6.268L7.02847 7.068C7.20156 7.16701 7.40031 7.21202 7.59917 7.19723C7.79803 7.18244 7.98793 7.10853 8.14447 6.985C8.65501 6.58514 9.21876 6.25833 9.81947 6.014C10.0041 5.9393 10.1623 5.81116 10.2736 5.646C10.385 5.48084 10.4445 5.28619 10.4445 5.087V3.5C10.4445 3.23478 10.5498 2.98043 10.7374 2.79289C10.9249 2.60536 11.1793 2.5 11.4445 2.5H13.4445C13.7097 2.5 13.964 2.60536 14.1516 2.79289C14.3391 2.98043 14.4445 3.23478 14.4445 3.5V5.087C14.4445 5.28619 14.504 5.48084 14.6153 5.646C14.7267 5.81116 14.8848 5.9393 15.0695 6.014C15.6702 6.25833 16.2339 6.58514 16.7445 6.985C16.9015 7.10775 17.0917 7.18076 17.2905 7.19466C17.4894 7.20856 17.6879 7.16271 17.8605 7.063L19.2385 6.268C19.4681 6.1354 19.7411 6.09946 19.9973 6.1681C20.2534 6.23674 20.4719 6.40433 20.6045 6.634L21.6045 8.366C21.7371 8.59568 21.773 8.86863 21.7044 9.1248C21.6357 9.38097 21.4681 9.59939 21.2385 9.732L19.8595 10.532C19.6879 10.6313 19.5496 10.7794 19.4624 10.9575C19.3751 11.1355 19.3428 11.3355 19.3695 11.532C19.4164 11.8526 19.4415 12.176 19.4445 12.5C19.4415 12.8243 19.4165 13.1481 19.3695 13.469C19.3428 13.6655 19.3751 13.8655 19.4624 14.0435C19.5496 14.2216 19.6879 14.3697 19.8595 14.469L21.2385 15.269C21.4681 15.4016 21.6357 15.62 21.7044 15.8762C21.773 16.1324 21.7371 16.4053 21.6045 16.635L20.6045 18.367C20.4719 18.5967 20.2534 18.7643 19.9973 18.8329C19.7411 18.9015 19.4681 18.8656 19.2385 18.733L17.8605 17.938C17.6879 17.8383 17.4894 17.7924 17.2905 17.8063C17.0917 17.8202 16.9015 17.8932 16.7445 18.016C16.2339 18.4159 15.6702 18.7427 15.0695 18.987C14.8848 19.0617 14.7267 19.1898 14.6153 19.355C14.504 19.5202 14.4445 19.7148 14.4445 19.914V21.5C14.4445 21.7652 14.3391 22.0196 14.1516 22.2071C13.964 22.3946 13.7097 22.5 13.4445 22.5H11.4445C11.1793 22.5 10.9249 22.3946 10.7374 22.2071C10.5498 22.0196 10.4445 21.7652 10.4445 21.5V19.913C10.4445 19.7138 10.385 19.5192 10.2736 19.354C10.1623 19.1888 10.0041 19.0607 9.81947 18.986C9.21876 18.7417 8.65501 18.4149 8.14447 18.015C7.98517 17.8971 7.79553 17.8272 7.59784 17.8133C7.40015 17.7995 7.20262 17.8424 7.02847 17.937L5.65047 18.732C5.42079 18.8646 5.14784 18.9005 4.89167 18.8319C4.6355 18.7633 4.41708 18.5957 4.28447 18.366L3.28447 16.634C3.15187 16.4043 3.11593 16.1314 3.18457 15.8752C3.25321 15.619 3.4208 15.4006 3.65047 15.268H3.65147Z" fill="white"/>
<path d="M12.4446 17.5C13.4335 17.5 14.4002 17.2068 15.2224 16.6574C16.0447 16.1079 16.6855 15.327 17.064 14.4134C17.4424 13.4998 17.5414 12.4945 17.3485 11.5246C17.1556 10.5546 16.6794 9.66373 15.9801 8.96447C15.2809 8.26521 14.3899 7.789 13.42 7.59608C12.4501 7.40315 11.4448 7.50217 10.5312 7.8806C9.61753 8.25904 8.83664 8.89991 8.28723 9.72215C7.73782 10.5444 7.44458 11.5111 7.44458 12.5C7.44617 13.8256 7.97346 15.0964 8.9108 16.0338C9.84814 16.9711 11.119 17.4984 12.4446 17.5ZM12.4446 9.5C13.0379 9.5 13.6179 9.67595 14.1113 10.0056C14.6046 10.3352 14.9892 10.8038 15.2162 11.352C15.4433 11.9001 15.5027 12.5033 15.3869 13.0853C15.2712 13.6672 14.9855 14.2018 14.5659 14.6213C14.1463 15.0409 13.6118 15.3266 13.0299 15.4424C12.4479 15.5581 11.8447 15.4987 11.2965 15.2716C10.7484 15.0446 10.2798 14.6601 9.95017 14.1667C9.62053 13.6734 9.44458 13.0933 9.44458 12.5C9.44458 11.7044 9.76065 10.9413 10.3233 10.3787C10.8859 9.81607 11.6489 9.5 12.4446 9.5Z" fill="white"/>
</g>
<defs>
<clipPath id="clip0_9362_2009">
<rect width="24" height="24" fill="white" transform="translate(0.44458 0.5)"/>
</clipPath>
</defs>
</svg>
