<svg width="20" height="18" viewBox="0 0 20 18" fill="none" xmlns="http://www.w3.org/2000/svg">
<path d="M8.59075 6.66683C8.58746 6.68124 8.5073 7.02062 8.01812 7.02062C7.56133 7.02062 7.46031 6.72062 7.44604 6.66683C7.42558 6.57329 7.36917 6.49179 7.28922 6.44026C7.20927 6.38873 7.11233 6.37139 7.01972 6.39205C6.92711 6.41271 6.84642 6.46969 6.79541 6.55044C6.74439 6.6312 6.72722 6.72911 6.74768 6.82265C6.81686 7.14096 7.17207 7.74264 8.01812 7.74264C8.86417 7.74264 9.21939 7.14096 9.28857 6.82265C9.30675 6.73007 9.28831 6.63398 9.2372 6.55496C9.18609 6.47594 9.10638 6.42029 9.01514 6.39991C8.92389 6.37954 8.82838 6.39606 8.74906 6.44595C8.66973 6.49585 8.61291 6.57513 8.59075 6.66683Z" fill="white"/>
<path d="M11.976 7.74264C12.8221 7.74264 13.1773 7.14096 13.2465 6.82265C13.2669 6.72911 13.2497 6.6312 13.1987 6.55044C13.1477 6.46969 13.067 6.41271 12.9744 6.39205C12.8818 6.37139 12.7849 6.38873 12.7049 6.44026C12.625 6.49179 12.5685 6.57329 12.5481 6.66683C12.5442 6.68124 12.4646 7.02062 11.976 7.02062C11.5192 7.02062 11.4176 6.72062 11.4034 6.66683C11.3812 6.57513 11.3244 6.49585 11.2451 6.44595C11.1657 6.39606 11.0702 6.37954 10.979 6.39991C10.8877 6.42029 10.808 6.47594 10.7569 6.55496C10.7058 6.63398 10.6874 6.73007 10.7056 6.82265C10.7742 7.14096 11.1294 7.74264 11.976 7.74264Z" fill="white"/>
<path d="M17.4313 10.7715C18.0868 9.91585 18.2493 8.42579 18.4289 6.75939C18.4645 6.42666 18.5008 6.08506 18.5425 5.73902C18.8571 3.10938 17.1117 2.37571 16.0686 1.93818C15.9374 1.88272 15.8122 1.82727 15.6969 1.77625C14.0614 1.00821 12.1985 0.636108 10.0024 0.636108C7.80633 0.636108 5.93965 1.00821 4.30575 1.77625C4.19101 1.83171 4.06528 1.88217 3.93406 1.93818C2.89092 2.37571 1.14612 3.10938 1.46016 5.73902C1.50189 6.08506 1.53867 6.42777 1.57381 6.75939C1.75334 8.42579 1.91585 9.91585 2.57193 10.7715C1.15271 11.6161 0.800781 12.9792 0.800781 14.1171V16.7135C0.800709 16.7988 0.817304 16.8834 0.849615 16.9623C0.881926 17.0411 0.92932 17.1128 0.989085 17.1732C1.04885 17.2335 1.11981 17.2814 1.19791 17.3141C1.27601 17.3467 1.35972 17.3635 1.44424 17.3634H18.5568C18.6413 17.3635 18.725 17.3467 18.8032 17.3141C18.8813 17.2814 18.9523 17.2336 19.0121 17.1732C19.0719 17.1129 19.1194 17.0412 19.1517 16.9623C19.1841 16.8834 19.2008 16.7989 19.2008 16.7135V14.1171C19.2008 12.9792 18.8478 11.6161 17.4313 10.7715ZM4.42654 3.13766C4.57532 3.0761 4.71697 3.0151 4.84599 2.95521C6.30859 2.26869 7.99519 1.93596 10.0008 1.93596C12.0064 1.93596 13.693 2.26869 15.1545 2.95466C15.2846 3.0151 15.429 3.0761 15.5745 3.13766C16.5874 3.56355 17.4626 3.93232 17.2655 5.5832C17.2232 5.93422 17.1859 6.28192 17.1491 6.61909C16.9761 8.23392 16.7966 9.90531 16.1861 10.1654C16.149 10.1815 16.1135 10.2012 16.0801 10.2242C15.9116 10.1804 15.7342 10.1421 15.5465 10.1094C15.5465 10.1094 15.5426 10.1094 15.541 10.1094H15.5349C14.9464 10.0162 14.3694 9.93027 13.7731 9.85541C13.8533 9.75337 13.9279 9.64634 13.9999 9.53821C14.1232 9.58306 14.2531 9.6065 14.3842 9.60752C14.6499 9.60752 14.9749 9.52157 15.3576 9.27757C15.8808 8.94484 16.1553 8.40361 16.1323 7.75535C16.1087 7.0849 15.7589 6.37952 15.3362 6.14994C15.1401 6.03712 14.9088 6.004 14.6894 6.05733C14.2579 3.89461 12.3193 2.26092 10.0002 2.26092C7.68115 2.26092 5.74255 3.89516 5.30937 6.05678C5.09216 6.00535 4.86373 6.03862 4.66975 6.14994C4.24591 6.37952 3.89618 7.08379 3.87312 7.75479C3.85006 8.40361 4.12457 8.94373 4.64725 9.27757C5.03156 9.52157 5.35494 9.60752 5.62067 9.60752C5.75002 9.60645 5.87827 9.58339 6.00004 9.53931C6.07032 9.6469 6.14334 9.75448 6.22404 9.85541C5.62835 9.93027 5.05297 10.0162 4.46716 10.1094H4.46113C4.46113 10.1094 4.45673 10.1094 4.45509 10.1094C4.26732 10.1421 4.08999 10.1804 3.92089 10.2242C3.88749 10.2012 3.85201 10.1815 3.81492 10.1654C3.20551 9.90531 3.02598 8.23392 2.85249 6.61909C2.81625 6.28192 2.77837 5.93422 2.73609 5.5832C2.5357 3.93232 3.41414 3.56355 4.42654 3.13766ZM8.74681 5.32422C8.75775 5.34017 8.77235 5.3532 8.78938 5.36218C8.8064 5.37116 8.82533 5.37584 8.84453 5.3758C8.85148 5.37632 8.85845 5.37632 8.8654 5.3758C10.2885 5.12681 10.9023 4.03657 11.1455 3.39497C12.6987 3.87132 13.8291 5.29317 13.8291 6.96734C13.8268 7.4911 13.714 8.00834 13.4982 8.48462C13.2825 8.9609 12.9687 9.38529 12.5779 9.72952C11.8005 9.66187 10.9638 9.61972 10.0024 9.61972C9.04109 9.61972 8.20382 9.66243 7.42695 9.72786C7.03501 9.38443 6.72037 8.96026 6.50418 8.48383C6.28799 8.0074 6.17525 7.48976 6.17353 6.96568C6.17353 5.1867 7.45111 3.69387 9.15528 3.31788C9.37489 4.05709 8.7501 5.18393 8.74296 5.19613C8.73178 5.21574 8.72621 5.2381 8.72689 5.26073C8.72757 5.28335 8.73447 5.30533 8.74681 5.32422ZM14.7734 6.79709C14.8052 6.77178 14.8439 6.75697 14.8843 6.75468C14.9247 6.7524 14.9648 6.76276 14.9991 6.78434C15.1375 6.8592 15.4021 7.29341 15.4191 7.77864C15.4323 8.17015 15.284 8.46794 14.9771 8.66591C14.7389 8.8173 14.5379 8.88052 14.3705 8.87331C14.641 8.27481 14.7816 7.62473 14.7828 6.96678C14.7828 6.90967 14.7789 6.8531 14.7734 6.79709ZM5.63274 8.87164C5.46474 8.87774 5.26709 8.81619 5.02882 8.66424C4.72191 8.46794 4.57368 8.17015 4.58685 7.77697C4.60387 7.29175 4.86795 6.85754 5.00741 6.77879C5.04072 6.75807 5.07937 6.7478 5.11846 6.74928C5.15755 6.75076 5.19533 6.76393 5.22702 6.78711C5.22702 6.84257 5.21823 6.90301 5.21823 6.96068C5.219 7.62034 5.36037 8.2721 5.63274 8.87164ZM4.67689 11.3898C6.30695 11.1325 7.83543 10.919 10.0024 10.919C12.1694 10.919 13.6968 11.1325 15.328 11.3898C16.7719 11.6471 17.5757 12.2804 17.8244 13.3468C12.6799 12.1294 7.32655 12.1294 2.18213 13.3468C2.42589 12.2815 3.23076 11.6471 4.67689 11.3898Z" fill="white"/>
</svg>
