<svg width="35" height="35" viewBox="0 0 35 35" fill="none" xmlns="http://www.w3.org/2000/svg">
<rect width="35" height="35" rx="17.5" fill="#F0F0F0"/>
<path fill-rule="evenodd" clip-rule="evenodd" d="M13.4612 18.2918L9.14434 13.9749C8.87943 13.71 8.87943 13.2805 9.14434 13.0156L13.4612 8.69868C13.7261 8.43377 14.1556 8.43377 14.4205 8.69868C14.6854 8.96358 14.6854 9.39308 14.4205 9.65799L11.2616 12.8169H25.4518C25.8264 12.8169 26.1301 13.1206 26.1301 13.4952C26.1301 13.8698 25.8264 14.1735 25.4518 14.1735H11.2616L14.4205 17.3324C14.6854 17.5974 14.6854 18.0268 14.4205 18.2918C14.1556 18.5567 13.7261 18.5567 13.4612 18.2918Z" fill="#4D4C4C"/>
<path fill-rule="evenodd" clip-rule="evenodd" d="M21.5389 26.3013L25.8557 21.9844C26.1207 21.7195 26.1207 21.29 25.8557 21.0251L21.5389 16.7082C21.274 16.4433 20.8445 16.4433 20.5796 16.7082C20.3147 16.9732 20.3147 17.4026 20.5796 17.6676L23.7385 20.8265H9.54833C9.1737 20.8265 8.87 21.1302 8.87 21.5048C8.87 21.8794 9.1737 22.1831 9.54833 22.1831H23.7385L20.5796 25.342C20.3147 25.6069 20.3147 26.0364 20.5796 26.3013C20.8445 26.5662 21.274 26.5662 21.5389 26.3013Z" fill="#4D4C4C"/>
</svg>
