<svg width="22" height="24" viewBox="0 0 22 24" fill="none" xmlns="http://www.w3.org/2000/svg">
<path d="M11.0023 11.8401C11.2444 11.8401 11.4765 11.7439 11.6476 11.5728C11.8187 11.4017 11.9149 11.1696 11.9149 10.9276V1.80252C11.9149 1.56051 11.8187 1.32841 11.6476 1.15728C11.4765 0.986153 11.2444 0.890015 11.0023 0.890015C10.7603 0.890015 10.5282 0.986153 10.3571 1.15728C10.186 1.32841 10.0898 1.56051 10.0898 1.80252V10.9276C10.0898 11.1696 10.186 11.4017 10.3571 11.5728C10.5282 11.7439 10.7603 11.8401 11.0023 11.8401Z" fill="white"/>
<path d="M15.1904 4.04823C14.975 3.9369 14.7242 3.9157 14.4932 3.98929C14.2622 4.06287 14.0698 4.22522 13.9585 4.44061C13.8472 4.656 13.826 4.90679 13.8996 5.13781C13.9732 5.36883 14.1355 5.56116 14.3509 5.67249C15.8049 6.42318 16.9646 7.64063 17.6437 9.12943C18.3228 10.6182 18.482 12.292 18.0958 13.8822C17.7095 15.4723 16.8002 16.8866 15.5137 17.8979C14.2273 18.9093 12.6384 19.4591 11.002 19.4591C9.36562 19.4591 7.7767 18.9093 6.49027 17.8979C5.20384 16.8866 4.29451 15.4723 3.90825 13.8822C3.52199 12.292 3.6812 10.6182 4.36032 9.12943C5.03944 7.64063 6.19908 6.42318 7.65311 5.67249C7.75976 5.61736 7.85451 5.54178 7.93195 5.45004C8.00938 5.3583 8.068 5.2522 8.10443 5.13781C8.14087 5.02342 8.15441 4.90297 8.1443 4.78335C8.13419 4.66372 8.10061 4.54726 8.04549 4.44061C7.99037 4.33396 7.91478 4.23921 7.82304 4.16177C7.7313 4.08433 7.6252 4.02572 7.51081 3.98929C7.39642 3.95285 7.27597 3.9393 7.15635 3.94942C7.03672 3.95953 6.92026 3.99311 6.81361 4.04823C4.99653 4.987 3.54751 6.509 2.6991 8.36999C1.85068 10.231 1.65207 12.323 2.13512 14.3104C2.61817 16.2978 3.75488 18.0653 5.36284 19.3292C6.97079 20.5932 8.95675 21.2803 11.002 21.2803C13.0473 21.2803 15.0332 20.5932 16.6412 19.3292C18.2491 18.0653 19.3858 16.2978 19.8689 14.3104C20.3519 12.323 20.1533 10.231 19.3049 8.36999C18.4565 6.509 17.0075 4.987 15.1904 4.04823V4.04823Z" fill="white"/>
</svg>
