<svg width="50" height="50" viewBox="0 0 50 50" fill="none" xmlns="http://www.w3.org/2000/svg">
<rect width="50" height="50" rx="25" fill="#B01AA7"/>
<path d="M34.864 19.6037C35.6837 18.9613 37.4826 18.2446 38.1207 20.5177C38.7589 22.7908 37.5448 24.0901 36.858 24.4557C36.5146 24.5775 35.635 24.7481 34.864 24.4557" stroke="white" stroke-width="1.7"/>
<path d="M15.134 19.6037C14.3143 18.9613 12.5154 18.2446 11.8773 20.5177C11.2392 22.7908 12.4532 24.0901 13.14 24.4557C13.4835 24.5775 14.3631 24.7481 15.134 24.4557" stroke="white" stroke-width="1.7"/>
<path d="M21.5267 31.4728L21.5411 31.4943L21.5576 31.5142L23.0633 33.3277C24.0737 34.5448 25.9464 34.5293 26.9365 33.2956L28.4703 31.3844C28.9843 30.7726 29.7237 30.6472 30.2465 30.9792L30.2753 30.9975L30.3064 31.0117L30.4187 31.0632L30.4279 31.0674L30.4371 31.0712C32.5338 31.9318 33.5971 33.2797 33.5971 34.5108C33.5971 35.796 32.7687 36.9647 31.2276 37.8381C29.6894 38.71 27.5087 39.2398 25.013 39.2398C22.5176 39.2398 20.3351 38.7101 18.7951 37.8523C17.2478 36.9903 16.429 35.8519 16.429 34.6383C16.429 33.283 17.4709 32.0088 19.7107 31.0157C20.4135 30.717 21.1661 30.9336 21.5267 31.4728ZM20.1511 31.3325H20.0488L19.9547 31.3727C19.0111 31.7758 18.2451 32.2897 17.7078 32.861C17.1742 33.4284 16.8363 34.0869 16.8363 34.7659C16.8363 35.9478 17.8249 37.0016 19.216 37.7279C20.644 38.4735 22.6457 38.9644 25.013 38.9644C27.3804 38.9644 29.382 38.4735 30.81 37.7279C32.2011 37.0016 33.1897 35.9478 33.1897 34.7659C33.1897 34.0838 32.848 33.456 32.3534 32.9347C31.8654 32.4206 31.1959 31.973 30.4297 31.6258C30.4249 31.6226 30.4201 31.6195 30.4151 31.6164C30.3712 31.5887 30.3112 31.5551 30.2259 31.5126C29.9564 31.3783 29.6669 31.3948 29.4629 31.44C29.265 31.4839 29.0368 31.5793 28.8822 31.7335L28.8626 31.753L28.8452 31.7747L27.0612 33.9975C26.0684 35.2346 24.1894 35.2463 23.1813 34.0216L21.4328 31.8974L21.4171 31.8784L21.3997 31.861C21.2435 31.7053 21.0806 31.5816 20.9264 31.4937C20.7902 31.4161 20.602 31.3325 20.407 31.3325H20.4063H20.4055H20.4048H20.404H20.4033H20.4026H20.4018H20.4011H20.4004H20.3997H20.3989H20.3982H20.3975H20.3968H20.3961H20.3954H20.3947H20.394H20.3933H20.3926H20.3919H20.3912H20.3905H20.3898H20.3892H20.3885H20.3878H20.3871H20.3865H20.3858H20.3851H20.3845H20.3838H20.3831H20.3825H20.3818H20.3812H20.3805H20.3799H20.3792H20.3786H20.378H20.3773H20.3767H20.3761H20.3754H20.3748H20.3742H20.3736H20.3729H20.3723H20.3717H20.3711H20.3705H20.3699H20.3693H20.3687H20.3681H20.3675H20.3669H20.3663H20.3657H20.3651H20.3645H20.3639H20.3634H20.3628H20.3622H20.3616H20.3611H20.3605H20.3599H20.3593H20.3588H20.3582H20.3577H20.3571H20.3565H20.356H20.3554H20.3549H20.3543H20.3538H20.3532H20.3527H20.3522H20.3516H20.3511H20.3505H20.35H20.3495H20.3489H20.3484H20.3479H20.3474H20.3468H20.3463H20.3458H20.3453H20.3448H20.3443H20.3438H20.3432H20.3427H20.3422H20.3417H20.3412H20.3407H20.3402H20.3397H20.3392H20.3387H20.3382H20.3377H20.3373H20.3368H20.3363H20.3358H20.3353H20.3348H20.3344H20.3339H20.3334H20.3329H20.3325H20.332H20.3315H20.331H20.3306H20.3301H20.3296H20.3292H20.3287H20.3283H20.3278H20.3273H20.3269H20.3264H20.326H20.3255H20.3251H20.3246H20.3242H20.3237H20.3233H20.3228H20.3224H20.3219H20.3215H20.3211H20.3206H20.3202H20.3198H20.3193H20.3189H20.3185H20.318H20.3176H20.3172H20.3167H20.3163H20.3159H20.3155H20.315H20.3146H20.3142H20.3138H20.3133H20.3129H20.3125H20.3121H20.3117H20.3113H20.3109H20.3104H20.31H20.3096H20.3092H20.3088H20.3084H20.308H20.3076H20.3072H20.3068H20.3064H20.306H20.3056H20.3052H20.3048H20.3044H20.304H20.3036H20.3032H20.3028H20.3024H20.302H20.3016H20.3012H20.3008H20.3004H20.3H20.2996H20.2992H20.2988H20.2984H20.298H20.2977H20.2973H20.2969H20.2965H20.2961H20.2957H20.2953H20.2949H20.2946H20.2942H20.2938H20.2934H20.293H20.2926H20.2923H20.2919H20.2915H20.2911H20.2907H20.2904H20.29H20.2896H20.2892H20.2888H20.2885H20.2881H20.2877H20.2873H20.287H20.2866H20.2862H20.2858H20.2854H20.2851H20.2847H20.2843H20.2839H20.2836H20.2832H20.2828H20.2824H20.2821H20.2817H20.2813H20.2809H20.2806H20.2802H20.2798H20.2794H20.2791H20.2787H20.2783H20.2779H20.2776H20.2772H20.2768H20.2764H20.2761H20.2757H20.2753H20.2749H20.2746H20.2742H20.2738H20.2734H20.2731H20.2727H20.2723H20.2719H20.2716H20.2712H20.2708H20.2704H20.27H20.2697H20.2693H20.2689H20.2685H20.2681H20.2678H20.2674H20.267H20.2666H20.2662H20.2659H20.2655H20.2651H20.2647H20.2643H20.2639H20.2636H20.2632H20.2628H20.2624H20.262H20.2616H20.2612H20.2609H20.2605H20.2601H20.2597H20.2593H20.2589H20.2585H20.2581H20.2577H20.2573H20.257H20.2566H20.2562H20.2558H20.2554H20.255H20.2546H20.2542H20.2538H20.2534H20.253H20.2526H20.2522H20.2518H20.2514H20.251H20.2506H20.2501H20.2497H20.2493H20.2489H20.2485H20.2481H20.2477H20.2473H20.2469H20.2464H20.246H20.2456H20.2452H20.2448H20.2444H20.2439H20.2435H20.2431H20.2427H20.2422H20.2418H20.2414H20.241H20.2405H20.2401H20.2397H20.2392H20.2388H20.2384H20.2379H20.2375H20.2371H20.2366H20.2362H20.2357H20.2353H20.2348H20.2344H20.234H20.2335H20.2331H20.2326H20.2322H20.2317H20.2312H20.2308H20.2303H20.2299H20.2294H20.2289H20.2285H20.228H20.2276H20.2271H20.2266H20.2261H20.2257H20.2252H20.2247H20.2242H20.2238H20.2233H20.2228H20.2223H20.2218H20.2214H20.2209H20.2204H20.2199H20.2194H20.2189H20.2184H20.2179H20.2174H20.2169H20.2164H20.2159H20.2154H20.2149H20.2144H20.2139H20.2134H20.2128H20.2123H20.2118H20.2113H20.2108H20.2102H20.2097H20.2092H20.2087H20.2081H20.2076H20.2071H20.2065H20.206H20.2054H20.2049H20.2043H20.2038H20.2032H20.2027H20.2021H20.2016H20.201H20.2005H20.1999H20.1993H20.1988H20.1982H20.1976H20.1971H20.1965H20.1959H20.1953H20.1948H20.1942H20.1936H20.193H20.1924H20.1918H20.1912H20.1906H20.19H20.1894H20.1888H20.1882H20.1876H20.187H20.1864H20.1858H20.1852H20.1846H20.1839H20.1833H20.1827H20.1821H20.1814H20.1808H20.1802H20.1795H20.1789H20.1782H20.1776H20.1769H20.1763H20.1756H20.175H20.1743H20.1737H20.173H20.1723H20.1717H20.171H20.1703H20.1697H20.169H20.1683H20.1676H20.1669H20.1662H20.1655H20.1648H20.1642H20.1634H20.1627H20.162H20.1613H20.1606H20.1599H20.1592H20.1585H20.1577H20.157H20.1563H20.1556H20.1548H20.1541H20.1534H20.1526H20.1519H20.1511Z" fill="white" stroke="white"/>
<circle cx="25.0142" cy="21.3858" r="10.125" stroke="white" stroke-width="2"/>
<path d="M22.9442 11.1269C23.7091 12.4745 24.6026 15.4979 22.3403 17.1966C22.2597 17.2572 22.3 17.3874 22.4004 17.3775C24.3859 17.181 27.8126 15.5174 28.1806 11.6531" stroke="white" stroke-width="1.7"/>
<path d="M22.7249 22.2942C22.7249 21.2908 21.8955 20.4775 20.8723 20.4775C19.8492 20.4775 19.0198 21.2908 19.0198 22.2942" stroke="white" stroke-width="1.2" stroke-linecap="round"/>
<path d="M30.7224 22.2942C30.7224 21.2908 29.893 20.4775 28.8699 20.4775C27.8467 20.4775 27.0173 21.2908 27.0173 22.2942" stroke="white" stroke-width="1.2" stroke-linecap="round"/>
<path d="M22.6459 25.9544C22.8932 26.8511 23.6999 27.6271 25.0002 27.6271C26.3004 27.6271 27.0793 26.813 27.3545 25.9544" stroke="white" stroke-width="1.2" stroke-linecap="round"/>
</svg>
