<svg width="50" height="50" viewBox="0 0 50 50" fill="none" xmlns="http://www.w3.org/2000/svg">
<rect width="50" height="50" rx="25" fill="#B01AA7"/>
<path d="M21.7474 32.4997L21.7618 32.5212L21.7783 32.5411L23.0932 34.1249C24.1036 35.342 25.9763 35.3264 26.9664 34.0927L28.3094 32.4192C28.7837 31.8549 29.4602 31.7444 29.9347 32.0457L29.9635 32.064L29.9945 32.0783L30.0999 32.1265L30.109 32.1307L30.1183 32.1345C32.0798 32.9396 33.0626 34.1957 33.0626 35.3317C33.0626 36.5218 32.2958 37.6093 30.8561 38.4253C29.4193 39.2397 27.3796 39.7358 25.0429 39.7358C22.7065 39.7358 20.6651 39.2398 19.2264 38.4384C17.7804 37.6329 17.0232 36.5738 17.0232 35.4513C17.0232 34.199 17.9857 33.0119 20.0824 32.0823C20.7295 31.8073 21.4185 32.008 21.7474 32.4997ZM20.4831 32.3198H20.3807L20.2866 32.36C19.3987 32.7393 18.6764 33.2235 18.1689 33.7631C17.6651 34.2988 17.3431 34.9236 17.3431 35.5709C17.3431 36.6974 18.284 37.6937 19.5917 38.3765C20.9362 39.0785 22.8186 39.5397 25.0429 39.5397C27.2672 39.5397 29.1496 39.0785 30.4941 38.3765C31.8018 37.6937 32.7427 36.6974 32.7427 35.5709C32.7427 34.9206 32.417 34.3245 31.9498 33.8322C31.4892 33.3469 30.8585 32.9254 30.1381 32.5986C30.1341 32.596 30.1301 32.5934 30.126 32.5908C30.0836 32.5641 30.0264 32.5321 29.9458 32.4919C29.6842 32.3616 29.4047 32.3781 29.2096 32.4214C29.0206 32.4632 28.8004 32.5547 28.6498 32.7049L28.6302 32.7245L28.6128 32.7461L27.0832 34.6521C26.0903 35.8891 24.2113 35.9008 23.2032 34.6761L21.7091 32.8609L21.6934 32.8419L21.676 32.8245C21.5277 32.6767 21.3728 32.559 21.2255 32.4751C21.0963 32.4014 20.9141 32.3198 20.7231 32.3198H20.7223H20.7216H20.721H20.7203H20.7196H20.7189H20.7182H20.7175H20.7168H20.7162H20.7155H20.7148H20.7141H20.7135H20.7128H20.7121H20.7115H20.7108H20.7102H20.7095H20.7089H20.7082H20.7076H20.7069H20.7063H20.7057H20.705H20.7044H20.7038H20.7031H20.7025H20.7019H20.7013H20.7007H20.7H20.6994H20.6988H20.6982H20.6976H20.697H20.6964H20.6958H20.6952H20.6946H20.694H20.6934H20.6929H20.6923H20.6917H20.6911H20.6905H20.69H20.6894H20.6888H20.6882H20.6877H20.6871H20.6865H20.686H20.6854H20.6849H20.6843H20.6838H20.6832H20.6827H20.6821H20.6816H20.681H20.6805H20.6799H20.6794H20.6789H20.6783H20.6778H20.6773H20.6768H20.6762H20.6757H20.6752H20.6747H20.6742H20.6736H20.6731H20.6726H20.6721H20.6716H20.6711H20.6706H20.6701H20.6696H20.6691H20.6686H20.6681H20.6676H20.6671H20.6666H20.6661H20.6657H20.6652H20.6647H20.6642H20.6637H20.6632H20.6628H20.6623H20.6618H20.6614H20.6609H20.6604H20.6599H20.6595H20.659H20.6586H20.6581H20.6576H20.6572H20.6567H20.6563H20.6558H20.6554H20.6549H20.6545H20.654H20.6536H20.6531H20.6527H20.6522H20.6518H20.6514H20.6509H20.6505H20.6501H20.6496H20.6492H20.6488H20.6483H20.6479H20.6475H20.647H20.6466H20.6462H20.6458H20.6454H20.6449H20.6445H20.6441H20.6437H20.6433H20.6429H20.6424H20.642H20.6416H20.6412H20.6408H20.6404H20.64H20.6396H20.6392H20.6388H20.6384H20.638H20.6376H20.6372H20.6368H20.6364H20.636H20.6356H20.6352H20.6348H20.6344H20.634H20.6336H20.6333H20.6329H20.6325H20.6321H20.6317H20.6313H20.6309H20.6306H20.6302H20.6298H20.6294H20.629H20.6287H20.6283H20.6279H20.6275H20.6271H20.6268H20.6264H20.626H20.6256H20.6253H20.6249H20.6245H20.6242H20.6238H20.6234H20.6231H20.6227H20.6223H20.622H20.6216H20.6212H20.6209H20.6205H20.6201H20.6198H20.6194H20.619H20.6187H20.6183H20.618H20.6176H20.6172H20.6169H20.6165H20.6162H20.6158H20.6154H20.6151H20.6147H20.6144H20.614H20.6136H20.6133H20.6129H20.6126H20.6122H20.6119H20.6115H20.6112H20.6108H20.6105H20.6101H20.6097H20.6094H20.609H20.6087H20.6083H20.608H20.6076H20.6073H20.6069H20.6066H20.6062H20.6059H20.6055H20.6052H20.6048H20.6045H20.6041H20.6038H20.6034H20.6031H20.6027H20.6024H20.602H20.6016H20.6013H20.6009H20.6006H20.6002H20.5999H20.5995H20.5992H20.5988H20.5985H20.5981H20.5978H20.5974H20.5971H20.5967H20.5964H20.596H20.5957H20.5953H20.5949H20.5946H20.5942H20.5939H20.5935H20.5932H20.5928H20.5925H20.5921H20.5917H20.5914H20.591H20.5907H20.5903H20.59H20.5896H20.5892H20.5889H20.5885H20.5882H20.5878H20.5874H20.5871H20.5867H20.5863H20.586H20.5856H20.5853H20.5849H20.5845H20.5842H20.5838H20.5834H20.5831H20.5827H20.5823H20.5819H20.5816H20.5812H20.5808H20.5805H20.5801H20.5797H20.5793H20.579H20.5786H20.5782H20.5778H20.5775H20.5771H20.5767H20.5763H20.5759H20.5756H20.5752H20.5748H20.5744H20.574H20.5736H20.5732H20.5729H20.5725H20.5721H20.5717H20.5713H20.5709H20.5705H20.5701H20.5697H20.5693H20.5689H20.5685H20.5681H20.5677H20.5673H20.5669H20.5665H20.5661H20.5657H20.5653H20.5649H20.5645H20.5641H20.5637H20.5632H20.5628H20.5624H20.562H20.5616H20.5612H20.5607H20.5603H20.5599H20.5595H20.5591H20.5586H20.5582H20.5578H20.5573H20.5569H20.5565H20.5561H20.5556H20.5552H20.5547H20.5543H20.5539H20.5534H20.553H20.5525H20.5521H20.5516H20.5512H20.5507H20.5503H20.5498H20.5494H20.5489H20.5485H20.548H20.5476H20.5471H20.5466H20.5462H20.5457H20.5452H20.5448H20.5443H20.5438H20.5433H20.5429H20.5424H20.5419H20.5414H20.5409H20.5405H20.54H20.5395H20.539H20.5385H20.538H20.5375H20.537H20.5365H20.536H20.5355H20.535H20.5345H20.534H20.5335H20.533H20.5325H20.532H20.5314H20.5309H20.5304H20.5299H20.5293H20.5288H20.5283H20.5278H20.5272H20.5267H20.5262H20.5256H20.5251H20.5245H20.524H20.5234H20.5229H20.5224H20.5218H20.5212H20.5207H20.5201H20.5196H20.519H20.5184H20.5179H20.5173H20.5167H20.5162H20.5156H20.515H20.5144H20.5138H20.5133H20.5127H20.5121H20.5115H20.5109H20.5103H20.5097H20.5091H20.5085H20.5079H20.5073H20.5067H20.5061H20.5054H20.5048H20.5042H20.5036H20.503H20.5023H20.5017H20.5011H20.5004H20.4998H20.4992H20.4985H20.4979H20.4972H20.4966H20.4959H20.4953H20.4946H20.494H20.4933H20.4926H20.492H20.4913H20.4906H20.49H20.4893H20.4886H20.4879H20.4872H20.4865H20.4858H20.4852H20.4845H20.4838H20.4831Z" fill="white" stroke="white"/>
<path d="M29.6449 23.5533C29.6449 22.9299 29.1296 22.4246 28.494 22.4246C27.8583 22.4246 27.343 22.9299 27.343 23.5533" stroke="white" stroke-linecap="round"/>
<path d="M22.6569 23.5533C22.6569 22.9299 22.1416 22.4246 21.5059 22.4246C20.8703 22.4246 20.355 22.9299 20.355 23.5533" stroke="white" stroke-linecap="round"/>
<path d="M22.7919 27.6458C23.0238 28.4868 23.7805 29.2146 25 29.2146C26.2194 29.2146 26.9499 28.4511 27.208 27.6458" stroke="white" stroke-width="1.2" stroke-linecap="round"/>
<path d="M33.3016 26.0867C33.0486 26.0867 33.4281 26.1966 33.3016 26.0867L33.5909 24.7981C33.844 24.908 33.3123 24.7308 33.1118 25.1481C33.3649 24.9283 33.1751 25.0974 33.3016 24.7677C33.4281 24.328 33.4281 24.4379 33.3016 24.1082C33.3016 23.9983 33.5547 23.2932 33.3016 23.1833C33.0486 23.0734 33.5546 22.1297 33.3016 22.3495L33.3016 21.3618C33.9342 20.8122 34.0607 20.8107 34.8198 21.0305C35.4524 21.2503 35.832 21.69 36.085 22.3495C36.2116 22.8991 36.2116 23.5586 35.9585 24.1082C35.7055 24.7677 35.3259 25.2074 34.8198 25.5371C34.1872 25.8669 33.8077 26.0867 33.3016 26.0867Z" fill="white"/>
<path d="M16.6979 26.0867C16.9509 26.0867 16.5714 26.1966 16.6979 26.0867L16.4086 24.7981C16.1555 24.908 16.6872 24.7308 16.8877 25.1481C16.6347 24.9283 16.8244 25.0974 16.6979 24.7677C16.5714 24.328 16.5714 24.4379 16.6979 24.1082C16.6979 23.9983 16.4449 23.2932 16.6979 23.1833C16.9509 23.0734 16.4449 22.1297 16.6979 22.3495L16.6979 21.3618C16.0653 20.8122 15.9388 20.8107 15.1797 21.0305C14.5471 21.2503 14.1675 21.69 13.9145 22.3495C13.7879 22.8991 13.7879 23.5586 14.041 24.1082C14.294 24.7677 14.6736 25.2074 15.1797 25.5371C15.8123 25.8669 16.1918 26.0867 16.6979 26.0867Z" fill="white"/>
<path d="M25.0816 33.716C19.7896 33.716 15.6418 29.4389 15.6418 24.3063V19.1738C15.6418 13.8987 19.9326 9.76416 25.0816 9.76416C30.2306 9.76416 34.5213 14.0413 34.5213 19.1738V24.1638C34.5213 29.4389 30.3736 33.716 25.0816 33.716ZM25.0816 11.1899C20.6478 11.1899 17.0721 14.7541 17.0721 19.1738V24.1638C17.0721 28.5835 20.6478 32.1477 25.0816 32.1477C29.5154 32.1477 33.0911 28.5835 33.0911 24.1638V19.1738C33.0911 14.7541 29.5154 11.1899 25.0816 11.1899Z" fill="white"/>
<path d="M23.4983 10.1222C19.8557 12.4344 17.9242 13.8571 16.1618 17.5387L15.897 21.4444C15.897 21.9104 15.7867 22.4245 16.2734 22.4245C16.76 22.4245 17.1546 22.0466 17.1546 21.5806V20.7367C17.1958 19.3649 18.0141 18.1237 19.2896 17.4982C19.5854 17.3361 19.9522 17.3519 20.2316 17.5387C21.6468 18.4867 23.364 18.93 25.085 18.7918C26.8035 18.929 28.518 18.4864 29.9315 17.5404C30.2116 17.3512 30.5807 17.3348 30.8779 17.4982C32.1538 18.1227 32.9732 19.3634 33.0157 20.735V21.5789C33.0157 22.0449 33.4102 22.4228 33.8969 22.4228C34.3836 22.4228 34.1359 22.0466 34.1359 21.5806L33.8969 17.4982C31.4715 13.2286 29.9315 11.2597 26.634 10.1222L23.4983 10.1222Z" fill="white"/>
</svg>
