<svg width="36" height="35" viewBox="0 0 36 35" fill="none" xmlns="http://www.w3.org/2000/svg">
<path d="M29.7686 10.5437L22.9582 3.57291C22.7547 3.36534 22.5119 3.2004 22.244 3.08772C21.9761 2.97505 21.6884 2.91689 21.3978 2.91666H10.7082C10.128 2.91666 9.57161 3.14712 9.16137 3.55736C8.75114 3.9676 8.52067 4.524 8.52067 5.10416V5.83332H7.7915C7.21134 5.83332 6.65494 6.06379 6.24471 6.47403C5.83447 6.88426 5.604 7.44066 5.604 8.02082V15.1409C5.604 15.3343 6.19643 15.1757 6.33317 15.3125C6.46992 15.4492 6.13978 14.9479 6.33317 14.9479C6.52656 14.9479 6.56101 15.0847 6.69775 14.9479C6.8345 14.8112 7.06234 15.4448 7.06234 15.2515V8.02082C7.06234 7.82744 7.13916 7.64197 7.27591 7.50522C7.41265 7.36848 7.59812 7.29166 7.7915 7.29166H8.52067V26.9792C8.52067 27.5593 8.75114 28.1157 9.16137 28.526C9.57161 28.9362 10.128 29.1667 10.7082 29.1667H26.0207V29.8958C26.0207 30.0892 25.9438 30.2747 25.8071 30.4114C25.6704 30.5482 25.4849 30.625 25.2915 30.625H7.7915C7.59812 30.625 7.41265 30.5482 7.27591 30.4114C7.13916 30.2747 7.06234 30.0892 7.06234 29.8958V14.5833C7.06234 14.3899 6.98551 14.2045 6.84877 14.0677C6.71202 13.931 6.52656 13.8542 6.33317 13.8542C6.13978 13.8542 5.95432 13.931 5.81757 14.0677C5.68083 14.2045 5.604 14.3899 5.604 14.5833V29.8958C5.604 30.476 5.83447 31.0324 6.24471 31.4426C6.65494 31.8529 7.21134 32.0833 7.7915 32.0833H25.2915C25.8717 32.0833 26.4281 31.8529 26.8383 31.4426C27.2485 31.0324 27.479 30.476 27.479 29.8958V29.1667H28.2082C28.7883 29.1667 29.3447 28.9362 29.755 28.526C30.1652 28.1157 30.3957 27.5593 30.3957 26.9792V12.0677C30.3972 11.7848 30.3426 11.5044 30.235 11.2428C30.1273 10.9812 29.9688 10.7436 29.7686 10.5437ZM23.104 5.83332L28.1207 10.9375H23.8332C23.6398 10.9375 23.4543 10.8607 23.3176 10.7239C23.1808 10.5872 23.104 10.4017 23.104 10.2083V5.83332ZM28.9373 26.9792C28.9373 27.1725 28.8605 27.358 28.7238 27.4948C28.587 27.6315 28.4016 27.7083 28.2082 27.7083H10.7082C10.5148 27.7083 10.3293 27.6315 10.1926 27.4948C10.0558 27.358 9.979 27.1725 9.979 26.9792V5.10416C9.979 4.91077 10.0558 4.7253 10.1926 4.58856C10.3293 4.45181 10.5148 4.37499 10.7082 4.37499H21.3978C21.4827 4.37742 21.5666 4.39469 21.6457 4.42603V10.2083C21.6457 10.7885 21.8761 11.3449 22.2864 11.7551C22.6966 12.1654 23.253 12.3958 23.8332 12.3958H28.9373V26.9792ZM23.6217 17.7114C23.6901 17.7792 23.7443 17.8599 23.7813 17.9487C23.8183 18.0376 23.8374 18.1329 23.8374 18.2292C23.8374 18.3254 23.8183 18.4207 23.7813 18.5096C23.7443 18.5984 23.6901 18.6791 23.6217 18.7469C23.5539 18.8152 23.4733 18.8695 23.3844 18.9065C23.2956 18.9435 23.2003 18.9626 23.104 18.9626C23.0077 18.9626 22.9124 18.9435 22.8236 18.9065C22.7347 18.8695 22.6541 18.8152 22.5863 18.7469L20.1873 16.3406V24.0625C20.1873 24.2559 20.1105 24.4413 19.9738 24.5781C19.837 24.7148 19.6516 24.7917 19.4582 24.7917C19.2648 24.7917 19.0793 24.7148 18.9426 24.5781C18.8058 24.4413 18.729 24.2559 18.729 24.0625V16.3406L16.33 18.7469C16.1927 18.8842 16.0065 18.9613 15.8123 18.9613C15.6182 18.9613 15.4319 18.8842 15.2946 18.7469C15.1573 18.6096 15.0802 18.4233 15.0802 18.2292C15.0802 18.035 15.1573 17.8488 15.2946 17.7114L18.9405 14.0656C19.0082 13.9973 19.0889 13.943 19.1777 13.906C19.2666 13.869 19.3619 13.8499 19.4582 13.8499C19.5544 13.8499 19.6497 13.869 19.7386 13.906C19.8274 13.943 19.9081 13.9973 19.9759 14.0656L23.6217 17.7114Z" fill="#B01AA7"/>
</svg>
